# Blender 4.2.3 LTS
# www.blender.org
mtllib building.mtl
o building
v -2.245437 0.054563 2.145437
v -2.245437 8.000000 2.145437
v -2.245437 0.054563 -2.345437
v -2.245437 8.000000 -2.345437
v 2.245437 0.054563 2.145437
v 2.245437 8.000000 2.145437
v 2.245437 0.054563 -2.345437
v 2.245437 8.000000 -2.345437
v -2.423635 0.054563 2.323635
v -2.423635 0.054563 -2.523635
v 2.423635 0.054563 2.323635
v 2.423635 0.054563 -2.523635
v -2.423635 0.000000 2.323635
v -2.423635 0.000000 -2.523635
v 2.423635 0.000000 2.323635
v 2.423635 0.000000 -2.523635
v -2.245437 4.225359 2.145437
v -2.245437 4.225359 -2.345437
v 2.245437 4.225359 -2.345437
v 2.245437 4.225359 2.145437
v -2.245437 4.401337 2.145437
v -2.245437 4.401337 -2.345437
v 2.245437 4.401337 -2.345437
v 2.245437 4.401337 2.145437
v -2.245437 4.401337 -2.345437
v -2.245437 4.225359 -2.345437
v 2.245437 4.401337 -2.345437
v 2.245437 4.225359 -2.345437
v 2.245437 4.401337 2.145437
v 2.245437 4.225359 2.145437
v -2.245437 4.225359 2.145437
v -2.245437 4.401337 2.145437
v -2.360312 4.405838 -2.460312
v -2.360312 4.220858 -2.460312
v 2.360312 4.405838 -2.460312
v 2.360312 4.220858 -2.460312
v 2.360312 4.405838 2.260312
v 2.360312 4.220858 2.260312
v -2.360312 4.220858 2.260312
v -2.360312 4.405838 2.260312
v -2.409852 8.000000 2.309852
v -2.409852 8.000000 -2.509852
v 2.409852 8.000000 -2.509852
v 2.409852 8.000000 2.309852
v -2.056172 8.155923 1.956172
v -2.056172 8.155923 -2.156172
v 2.056172 8.155923 -2.156172
v 2.056172 8.155923 1.956172
v -2.409852 8.155923 2.309852
v -2.409852 8.155923 -2.509852
v 2.409852 8.155923 -2.509852
v 2.409852 8.155923 2.309852
v -2.056172 7.950228 1.956172
v -2.056172 7.950228 -2.156172
v 2.056172 7.950228 -2.156172
v 2.056172 7.950228 1.956172
v -0.320165 8.456164 -1.217100
v -0.320165 8.456164 -0.363365
v 1.060653 8.456164 -0.363365
v 1.060653 8.456164 -1.217100
v -0.320165 7.673553 -1.217100
v -0.320165 7.673553 -0.363365
v 1.060653 7.673553 -0.363365
v 1.060653 7.673553 -1.217100
v 0.398574 8.185026 -0.358082
v 0.398574 8.185026 0.049786
v 1.058253 8.185026 0.049786
v 1.058253 8.185026 -0.358082
v 0.398574 7.810716 -0.358082
v 0.398574 7.810716 0.049786
v 1.058253 7.810716 0.049786
v 1.058253 7.810716 -0.358082
v 0.468249 8.254236 -0.315003
v 0.468249 8.254236 0.006708
v 0.988578 8.254236 0.006708
v 0.988578 8.254236 -0.315003
v 0.497633 8.131789 0.085074
v 0.489053 8.140369 0.036740
v 0.752925 8.140369 0.036740
v 0.744345 8.131789 0.085074
v 0.497633 7.950876 0.085074
v 0.489053 7.942296 0.036740
v 0.752925 7.942296 0.036740
v 0.744345 7.950876 0.085074
v 0.752925 8.140369 0.085074
v 0.489053 8.140369 0.085074
v 0.752925 7.942296 0.085074
v 0.489053 7.942296 0.085074
v 0.744345 8.131789 0.057557
v 0.497633 8.131789 0.057557
v 0.744345 7.950876 0.057557
v 0.497633 7.950876 0.057557
v -0.489436 -0.065465 -2.543579
v -0.489436 -0.065465 2.343579
v -1.962616 -0.065465 2.343579
v -1.962616 -0.065465 -2.543579
v 2.448603 -0.065465 -2.543579
v 2.448603 -0.065465 2.343579
v -2.438555 -0.065465 -2.543579
v -2.438555 -0.065465 2.343579
v -1.808090 8.000000 -2.345437
v -1.808090 0.054563 -2.345437
v -0.000000 -1.000000 -1.000000
v 0.195090 -1.000000 -0.980785
v 0.382683 -1.000000 -0.923880
v 0.555570 -1.000000 -0.831470
v 0.707107 -1.000000 -0.707107
v 0.831470 -1.000000 -0.555570
v 0.923880 -1.000000 -0.382683
v 0.980785 -1.000000 -0.195090
v 1.000000 -1.000000 0.000000
v 0.980785 -1.000000 0.195090
v 0.923880 -1.000000 0.382683
v 0.831470 -1.000000 0.555570
v 0.707107 -1.000000 0.707107
v 0.555570 -1.000000 0.831470
v 0.382683 -1.000000 0.923880
v 0.195090 -1.000000 0.980785
v -0.000000 -1.000000 1.000000
v -0.195090 -1.000000 0.980785
v -0.382683 -1.000000 0.923880
v -0.555570 -1.000000 0.831470
v -0.707107 -1.000000 0.707107
v -0.831470 -1.000000 0.555570
v -0.923880 -1.000000 0.382683
v -0.980785 -1.000000 0.195090
v -1.000000 -1.000000 0.000000
v -0.980785 -1.000000 -0.195090
v -0.923880 -1.000000 -0.382683
v -0.831470 -1.000000 -0.555570
v -0.707107 -1.000000 -0.707107
v -0.555570 -1.000000 -0.831470
v -0.382683 -1.000000 -0.923880
v -0.195090 -1.000000 -0.980785
v -0.000000 -1.000000 -1.000000
v 0.195090 -1.000000 -0.980785
v 0.382683 -1.000000 -0.923880
v 0.555570 -1.000000 -0.831470
v 0.707107 -1.000000 -0.707107
v 0.831470 -1.000000 -0.555570
v 0.923880 -1.000000 -0.382683
v 0.980785 -1.000000 -0.195090
v 1.000000 -1.000000 0.000000
v 0.980785 -1.000000 0.195090
v 0.923880 -1.000000 0.382683
v 0.831470 -1.000000 0.555570
v 0.707107 -1.000000 0.707107
v 0.555570 -1.000000 0.831470
v 0.382683 -1.000000 0.923880
v 0.195090 -1.000000 0.980785
v -0.000000 -1.000000 1.000000
v -0.195090 -1.000000 0.980785
v -0.382683 -1.000000 0.923880
v -0.555570 -1.000000 0.831470
v -0.707107 -1.000000 0.707107
v -0.831470 -1.000000 0.555570
v -0.923880 -1.000000 0.382683
v -0.980785 -1.000000 0.195090
v -1.000000 -1.000000 0.000000
v -0.980785 -1.000000 -0.195090
v -0.923880 -1.000000 -0.382683
v -0.831470 -1.000000 -0.555570
v -0.707107 -1.000000 -0.707107
v -0.555570 -1.000000 -0.831470
v -0.382683 -1.000000 -0.923880
v -0.195090 -1.000000 -0.980785
v -1.808090 0.054563 2.145437
v -1.808090 8.000000 2.145437
v -1.951580 0.054563 -2.523635
v -1.951580 0.054563 2.323635
v -1.951580 0.000000 -2.523635
v -1.951580 0.000000 2.323635
v -1.808090 4.225359 2.145437
v -1.808090 4.225359 -2.345437
v -1.808090 4.401337 2.145437
v -1.808090 4.401337 -2.345437
v -1.808090 4.225359 2.145437
v -1.808090 4.225359 -2.345437
v -1.808090 4.401337 2.145437
v -1.808090 4.401337 -2.345437
v -1.900590 4.220858 2.260312
v -1.900590 4.220858 -2.460312
v -1.900590 4.405838 2.260312
v -1.900590 4.405838 -2.460312
v -1.940482 8.000000 -2.509852
v -1.940482 8.000000 2.309852
v -1.940482 8.155923 -2.509852
v -1.940482 8.155923 2.309852
v -1.655688 8.155923 -2.156172
v -1.655688 8.155923 1.956172
v -1.655688 7.950228 -2.156172
v -1.655688 7.950228 1.956172
v -0.454366 8.000000 -2.345437
v -0.454366 0.054563 2.145437
v -0.490425 0.054563 2.323635
v -0.490425 0.000000 2.323635
v -0.454366 4.225359 -2.345437
v -0.454366 4.401337 -2.345437
v -0.454366 4.225359 -2.345437
v -0.454366 4.401337 -2.345437
v -0.477611 4.220858 -2.460312
v -0.477611 4.405838 -2.460312
v -0.487636 8.000000 -2.509852
v -0.487636 8.155923 -2.509852
v -0.416068 8.155923 -2.156172
v -0.416068 7.950228 -2.156172
v -0.416068 7.950228 1.956172
v -0.416068 8.155923 1.956172
v -0.477611 4.405838 2.260312
v -0.487636 8.000000 2.309852
v -0.487636 8.155923 2.309852
v -0.477611 4.220858 2.260312
v -0.454366 4.401337 2.145437
v -0.454366 4.225359 2.145437
v -0.454366 4.401337 2.145437
v -0.454366 4.225359 2.145437
v -0.490425 0.000000 -2.523635
v -0.490425 0.054563 -2.523635
v -0.454366 8.000000 2.145437
v -0.454366 0.054563 -2.345437
v -2.245437 2.127364 -2.345437
v 2.245437 2.127364 -2.345437
v 2.245437 2.127364 2.145437
v -2.245437 2.127364 2.145437
v -1.808090 2.127364 2.145437
v -1.808090 2.127364 -2.345437
v -0.454366 2.127364 2.145437
v -0.454366 2.127364 -2.345437
v -1.808090 0.054563 2.045035
v -0.454366 0.054563 2.045035
v -1.808090 2.127364 2.045035
v -0.454366 2.127364 2.045035
v -1.872156 2.197940 2.001692
v -1.872156 -0.016014 2.001692
v -0.390300 2.197940 2.001692
v -0.390300 -0.016014 2.001692
v -1.872156 2.197940 2.188782
v -1.872156 -0.016014 2.188782
v -0.390300 2.197940 2.188782
v -0.390300 -0.016014 2.188782
v -1.821663 2.122502 2.001692
v -1.821663 0.059424 2.001692
v -0.440793 2.122502 2.001692
v -0.440793 0.059424 2.001692
v -1.821663 2.122502 2.188782
v -1.821663 0.059424 2.188782
v -0.440793 2.122502 2.188782
v -0.440793 0.059424 2.188782
v -0.711760 0.873928 2.090035
v -0.717931 0.871227 2.021976
v -0.722955 0.866788 2.090038
v -0.730567 0.855907 2.090012
v -0.732861 0.849883 2.021925
v -0.733434 0.842941 2.089961
v -0.731122 0.829865 2.089892
v -0.728325 0.824234 2.021790
v -0.723982 0.818670 2.089817
v -0.713101 0.811059 2.089746
v -0.706981 0.809304 2.021651
v -0.700135 0.808191 2.089690
v -0.687059 0.810504 2.089658
v -0.681332 0.813840 2.021589
v -0.675863 0.817644 2.089655
v -0.668252 0.828525 2.089681
v -0.666402 0.835184 2.021640
v -0.665385 0.841491 2.089732
v -0.667697 0.854567 2.089801
v -0.670937 0.860834 2.021774
v -0.674837 0.865762 2.089876
v -0.685718 0.873373 2.089947
v -0.692282 0.875763 2.021914
v -0.698684 0.876241 2.090003
v -0.683571 0.801545 2.089605
v -0.675940 0.805417 2.089599
v -0.669212 0.810703 2.089601
v -0.663645 0.817199 2.089614
v -0.659451 0.824658 2.089635
v -0.656793 0.832790 2.089664
v -0.655773 0.841285 2.089700
v -0.656430 0.849816 2.089742
v -0.658739 0.858055 2.089788
v -0.662610 0.865685 2.089836
v -0.667896 0.872413 2.089885
v -0.674393 0.877981 2.089932
v -0.681851 0.882174 2.089976
v -0.689984 0.884831 2.090015
v -0.698479 0.885851 2.090047
v -0.707010 0.885194 2.090072
v -0.715248 0.882886 2.090088
v -0.722879 0.879014 2.090095
v -0.729607 0.873728 2.090092
v -0.735174 0.867231 2.090080
v -0.739368 0.859773 2.090059
v -0.742025 0.851641 2.090029
v -0.743046 0.843146 2.089993
v -0.742389 0.834615 2.089951
v -0.740080 0.826376 2.089906
v -0.736208 0.818746 2.089857
v -0.730923 0.812018 2.089809
v -0.724426 0.806450 2.089761
v -0.716968 0.802257 2.089717
v -0.708835 0.799600 2.089679
v -0.700340 0.798580 2.089646
v -0.691809 0.799237 2.089621
v -0.670153 0.796361 2.131836
v -0.654897 0.810980 2.131855
v -0.646397 0.830324 2.131917
v -0.645946 0.851449 2.132015
v -0.653614 0.871137 2.132131
v -0.668233 0.886393 2.132250
v -0.687577 0.894893 2.132353
v -0.708701 0.895343 2.132424
v -0.728390 0.887675 2.132452
v -0.743646 0.873056 2.132433
v -0.752147 0.853712 2.132371
v -0.752597 0.832588 2.132274
v 1.665734 0.779369 2.171263
v -0.744929 0.812899 2.132157
v 0.008606 0.779369 2.171263
v -0.730311 0.797643 2.132038
v 1.665734 1.811419 2.171262
v -0.710966 0.789143 2.131936
v 0.008606 1.811419 2.171262
v -0.689842 0.788693 2.131864
v 1.574879 0.870224 2.171263
v 0.099461 0.870224 2.171263
v 0.099461 1.720564 2.171262
v 1.574879 1.720564 2.171262
v 1.574879 0.870224 2.057861
v 0.099461 0.870224 2.057861
v 0.099461 1.720564 2.057860
v 1.574879 1.720564 2.057860
v 1.601163 0.771156 1.821414
v -0.055965 0.771156 1.821414
v 1.601163 1.803207 1.821413
v -0.055965 1.803207 1.821413
v 1.574879 0.870224 2.150234
v 0.099461 0.870224 2.150234
v 0.099461 1.720564 2.150233
v 1.574879 1.720564 2.150233
v 2.321820 0.779369 0.138201
v 2.321820 0.779369 1.795328
v 2.321820 1.811419 0.138201
v 2.321820 1.811419 1.795328
v 2.321820 0.870224 0.229056
v 2.321820 0.870224 1.704473
v 2.321820 1.720564 1.704473
v 2.321820 1.720564 0.229056
v 2.208418 0.870224 0.229056
v 2.208418 0.870224 1.704473
v 2.208417 1.720564 1.704473
v 2.208417 1.720564 0.229056
v 1.971971 0.771156 0.202771
v 1.971971 0.771156 1.859899
v 1.971971 1.803207 0.202771
v 1.971971 1.803207 1.859899
v 2.300791 0.870224 0.229056
v 2.300791 0.870224 1.704473
v 2.300790 1.720564 1.704473
v 2.300790 1.720564 0.229056
v 2.328620 0.779369 -2.051255
v 2.328620 0.779369 -0.394128
v 2.328619 1.811419 -2.051255
v 2.328619 1.811419 -0.394128
v 2.328620 0.870224 -1.960400
v 2.328620 0.870224 -0.484983
v 2.328619 1.720564 -0.484983
v 2.328619 1.720564 -1.960400
v 2.215217 0.870224 -1.960400
v 2.215218 0.870224 -0.484983
v 2.215217 1.720564 -0.484983
v 2.215217 1.720564 -1.960400
v 1.978771 0.771156 -1.986685
v 1.978771 0.771156 -0.329557
v 1.978770 1.803207 -1.986685
v 1.978770 1.803207 -0.329557
v 2.307590 0.870224 -1.960400
v 2.307590 0.870224 -0.484983
v 2.307590 1.720564 -0.484983
v 2.307590 1.720564 -1.960400
v -2.339200 0.779369 0.869219
v -2.339200 0.779369 -0.787909
v -2.339199 1.811419 0.869219
v -2.339199 1.811419 -0.787909
v -2.339200 0.870224 0.778364
v -2.339200 0.870224 -0.697053
v -2.339199 1.720564 -0.697053
v -2.339199 1.720564 0.778364
v -2.225797 0.870224 0.778364
v -2.225797 0.870224 -0.697053
v -2.225797 1.720564 -0.697053
v -2.225796 1.720564 0.778364
v -1.989351 0.771156 0.804648
v -1.989351 0.771156 -0.852479
v -1.989350 1.803207 0.804648
v -1.989350 1.803207 -0.852479
v -2.318170 0.870224 0.778364
v -2.318170 0.870224 -0.697053
v -2.318169 1.720564 -0.697053
v -2.318169 1.720564 0.778364
v 1.341792 6.847839 2.189234
v -1.217313 6.847839 2.189234
v 1.385520 6.927686 1.838909
v -1.484722 6.927686 1.838909
v -1.217313 5.151457 2.197252
v 1.341792 5.151457 2.197252
v 1.385520 5.068908 1.847693
v -1.484722 5.068908 1.847693
v -1.484722 6.236593 1.842175
v -1.217313 6.273949 2.190773
v 1.385520 6.236593 1.842175
v 1.341792 6.273949 2.190773
v -1.372882 6.929037 2.188851
v 1.497361 6.929037 2.188851
v -1.217313 6.201941 2.193461
v 1.341792 6.201941 2.193461
v -1.372882 5.070260 2.197635
v 1.497361 5.070260 2.197635
v 1.497361 6.237945 2.192117
v -1.372882 6.237945 2.192117
v -1.217313 6.847757 2.157090
v 1.341792 6.847757 2.157090
v -1.217313 6.273867 2.158629
v 1.341792 6.273867 2.158629
v -1.217313 5.151375 2.165107
v 1.341792 5.151375 2.165107
v 1.341792 6.201859 2.161316
v -1.217313 6.201859 2.161316
v -1.217313 6.847732 2.147173
v 1.341792 6.847732 2.147173
v -1.217313 6.273841 2.148712
v 1.341792 6.273841 2.148712
v -1.217313 5.151349 2.155190
v 1.341792 5.151349 2.155190
v 1.341792 6.201833 2.151399
v -1.217313 6.201833 2.151399
v 2.331767 6.926661 -0.710759
v 2.331767 6.926661 0.534224
v 1.981441 7.014983 -0.732033
v 1.981441 7.014983 0.664317
v 2.339784 5.050207 0.534224
v 2.339784 5.050207 -0.710759
v 1.990226 4.958895 -0.732033
v 1.990226 4.958895 0.664317
v 1.984707 6.250531 0.664317
v 2.333306 6.291852 0.534224
v 1.984707 6.250531 -0.732033
v 2.333306 6.291852 -0.710759
v 2.331383 7.016479 0.609907
v 2.331383 7.016479 -0.786442
v 2.335993 6.212201 0.534224
v 2.335993 6.212201 -0.710759
v 2.340168 4.960390 0.609907
v 2.340168 4.960390 -0.786442
v 2.334650 6.252027 -0.786442
v 2.334650 6.252027 0.609907
v 2.299623 6.926571 0.534224
v 2.299623 6.926571 -0.710759
v 2.301162 6.291761 0.534224
v 2.301162 6.291761 -0.710759
v 2.307640 5.050116 0.534224
v 2.307640 5.050116 -0.710759
v 2.303849 6.212109 -0.710759
v 2.303849 6.212109 0.534224
v 2.289706 6.926542 0.534224
v 2.289706 6.926542 -0.710759
v 2.291245 6.291733 0.534224
v 2.291245 6.291733 -0.710759
v 2.297723 5.050087 0.534224
v 2.297723 5.050087 -0.710759
v 2.293932 6.212081 -0.710759
v 2.293932 6.212081 0.534224
v -2.329317 6.926661 -0.704082
v -2.329317 6.926661 -1.949065
v -1.978991 7.014983 -0.682808
v -1.978991 7.014983 -2.079157
v -2.337334 5.050207 -1.949065
v -2.337334 5.050207 -0.704082
v -1.987776 4.958895 -0.682808
v -1.987776 4.958895 -2.079157
v -1.982257 6.250531 -2.079157
v -2.330856 6.291852 -1.949065
v -1.982257 6.250531 -0.682808
v -2.330856 6.291852 -0.704082
v -2.328933 7.016479 -2.024748
v -2.328933 7.016479 -0.628398
v -2.333543 6.212201 -1.949065
v -2.333543 6.212201 -0.704082
v -2.337718 4.960390 -2.024748
v -2.337718 4.960390 -0.628398
v -2.332200 6.252027 -0.628398
v -2.332200 6.252027 -2.024748
v -2.297173 6.926571 -1.949065
v -2.297173 6.926571 -0.704082
v -2.298712 6.291761 -1.949065
v -2.298712 6.291761 -0.704082
v -2.305190 5.050116 -1.949065
v -2.305190 5.050116 -0.704082
v -2.301399 6.212109 -0.704082
v -2.301399 6.212109 -1.949065
v -2.287256 6.926542 -1.949065
v -2.287256 6.926542 -0.704082
v -2.288795 6.291733 -1.949065
v -2.288795 6.291733 -0.704082
v -2.295273 5.050087 -1.949065
v -2.295273 5.050087 -0.704082
v -2.291482 6.212081 -0.704082
v -2.291482 6.212081 -1.949065
v -2.329317 6.926661 1.611454
v -2.329317 6.926661 0.366471
v -1.978991 7.014983 1.632728
v -1.978991 7.014983 0.236378
v -2.337334 5.050207 0.366471
v -2.337334 5.050207 1.611454
v -1.987776 4.958895 1.632728
v -1.987776 4.958895 0.236378
v -1.982257 6.250531 0.236378
v -2.330856 6.291852 0.366471
v -1.982257 6.250531 1.632728
v -2.330856 6.291852 1.611454
v -2.328933 7.016479 0.290788
v -2.328933 7.016479 1.687137
v -2.333543 6.212201 0.366471
v -2.333543 6.212201 1.611454
v -2.337718 4.960390 0.290788
v -2.337718 4.960390 1.687137
v -2.332200 6.252027 1.687137
v -2.332200 6.252027 0.290788
v -2.297173 6.926571 0.366471
v -2.297173 6.926571 1.611454
v -2.298712 6.291761 0.366471
v -2.298712 6.291761 1.611454
v -2.305190 5.050116 0.366471
v -2.305190 5.050116 1.611454
v -2.301399 6.212109 1.611454
v -2.301399 6.212109 0.366471
v -2.287256 6.926542 0.366471
v -2.287256 6.926542 1.611454
v -2.288795 6.291733 0.366471
v -2.288795 6.291733 1.611454
v -2.295273 5.050087 0.366471
v -2.295273 5.050087 1.611454
v -2.291482 6.212081 1.611454
v -2.291482 6.212081 0.366471
v -0.542032 6.926661 2.189234
v -1.787015 6.926661 2.189234
v -0.520759 7.014983 1.838909
v -1.917108 7.014983 1.838909
v -1.787015 5.050207 2.197252
v -0.542032 5.050207 2.197252
v -0.520759 4.958895 1.847693
v -1.917108 4.958895 1.847693
v -1.917108 6.250531 1.842175
v -1.787015 6.291852 2.190773
v -0.520759 6.250531 1.842175
v -0.542032 6.291852 2.190773
v -1.862698 7.016479 2.188851
v -0.466349 7.016479 2.188851
v -1.787015 6.212201 2.193461
v -0.542032 6.212201 2.193461
v -1.862698 4.960390 2.197635
v -0.466349 4.960390 2.197635
v -0.466349 6.252027 2.192117
v -1.862698 6.252027 2.192117
v -1.787015 6.926571 2.157090
v -0.542032 6.926571 2.157090
v -1.787015 6.291761 2.158629
v -0.542032 6.291761 2.158629
v -1.787015 5.050116 2.165107
v -0.542032 5.050116 2.165107
v -0.542032 6.212109 2.161316
v -1.787015 6.212109 2.161316
v -1.787015 6.926542 2.147173
v -0.542032 6.926542 2.147173
v -1.787015 6.291733 2.148712
v -0.542032 6.291733 2.148712
v -1.787015 5.050087 2.155190
v -0.542032 5.050087 2.155190
v -0.542032 6.212081 2.151399
v -1.787015 6.212081 2.151399
v -0.019869 6.929037 2.188851
v -0.131710 6.927686 1.838909
v -0.019869 5.070260 2.197635
v -0.131710 5.068908 1.847693
v -0.019869 6.237945 2.192117
v -0.131710 6.236593 1.842175
v -0.010969 6.847839 2.189234
v -0.010969 6.273949 2.190773
v -0.010969 5.151457 2.197252
v -0.010969 6.201941 2.193461
v -0.010969 6.847757 2.157090
v -0.010969 6.273867 2.158629
v -0.010969 5.151375 2.165107
v -0.010969 6.201859 2.161316
v -0.010969 6.847732 2.147173
v -0.010969 6.273841 2.148712
v -0.010969 5.151349 2.155190
v -0.010969 6.201833 2.151399
v 0.108573 6.929037 2.188851
v 0.108573 5.070260 2.197635
v 0.108573 6.237945 2.192117
v 0.103551 6.847839 2.189234
v 0.103551 6.273949 2.190773
v 0.103551 5.151457 2.197252
v 0.103551 6.201941 2.193461
v 0.103551 6.847757 2.157090
v 0.103551 6.273867 2.158629
v 0.103551 5.151375 2.165107
v 0.103551 6.201859 2.161316
v 0.103551 6.847732 2.147173
v 0.103551 6.273841 2.148712
v 0.103551 5.151349 2.155190
v 0.103551 6.201833 2.151399
v -0.003267 6.236593 1.842175
v -0.003267 5.068908 1.847693
v -0.003267 6.927686 1.838909
v -0.010969 5.084530 2.193757
v -0.010969 5.084447 2.161613
v 0.103551 5.084530 2.193757
v 0.103551 5.084447 2.161613
v -0.475649 2.122502 2.001692
v -0.475649 0.059424 2.001692
v -0.475649 2.122502 2.188782
v -0.475649 0.059424 2.188782
v -1.796886 2.122502 2.001692
v -1.796886 0.059424 2.001692
v -1.796886 2.122502 2.188782
v -1.796886 0.059424 2.188782
v -2.126606 1.939464 2.560121
v -0.137191 1.939464 2.560121
v -2.126606 2.332457 2.173549
v -0.137191 2.332457 2.173549
v -0.137191 1.939464 1.909578
v -2.126606 1.939464 1.909578
v -2.126606 2.332457 1.829255
v -0.137191 2.332457 1.829255
v -0.259996 1.946140 2.500430
v -2.003801 1.946140 2.500430
v -0.259996 1.946140 1.914789
v -2.003801 1.946140 1.914789
v -0.259996 1.944143 2.496436
v -2.003801 1.944143 2.496436
v -2.003801 2.288618 2.157590
v -0.259996 2.288618 2.157590
v -0.259996 1.944143 1.923849
v -2.003801 1.944143 1.923849
v -2.003801 2.288618 1.744006
v -0.259996 2.288618 1.744006
vn -1.0000 -0.0000 -0.0000
vn -0.0000 -0.0000 -1.0000
vn 1.0000 -0.0000 -0.0000
vn -0.0000 -0.0000 1.0000
vn -0.0000 1.0000 -0.0000
vn -0.0392 -0.9992 -0.0000
vn 0.0392 -0.9992 -0.0000
vn -0.0000 0.9992 -0.0392
vn -0.0000 0.9992 0.0392
vn 0.0392 0.9992 -0.0000
vn -0.0392 0.9992 -0.0000
vn -0.0000 -0.9992 0.0392
vn -0.0000 -0.9992 -0.0392
vn -0.0000 -1.0000 -0.0000
vn 0.9879 0.1552 -0.0000
vn -0.9879 0.1552 -0.0000
vn -0.0000 0.0967 -0.9953
vn -0.0000 0.0967 0.9953
vn -0.0000 0.2914 -0.9566
vn -0.0000 0.2914 0.9566
vn -0.7404 -0.6721 -0.0000
vn 0.9344 0.3564 -0.0000
vn -0.9750 0.2222 -0.0000
vn 0.9134 -0.0000 -0.4071
vn 0.7404 -0.6721 -0.0000
vn 0.8310 0.5562 -0.0000
vn -0.8310 0.5562 -0.0000
vn -0.0000 -0.8976 0.4407
vn 0.9134 -0.0000 0.4071
vn -0.9134 -0.0000 -0.4071
vn -0.0000 -0.8976 -0.4407
vn -0.9134 -0.0000 0.4071
vn -0.0033 0.0047 -1.0000
vn -0.9763 0.2159 0.0138
vn -0.0032 0.0047 -1.0000
vn 0.0033 -0.0047 1.0000
vn -0.8430 -0.5377 0.0098
vn -0.0032 0.0046 -1.0000
vn -0.2159 -0.9764 0.0058
vn 0.0033 -0.0046 1.0000
vn 0.5377 -0.8431 0.0039
vn 0.9764 -0.2160 0.0054
vn -0.0033 0.0046 -1.0000
vn 0.8431 0.5376 0.0094
vn 0.2160 0.9763 0.0135
vn 0.3534 -0.9083 -0.2238
vn -0.6759 0.7056 -0.2129
vn -0.8192 0.5731 -0.0231
vn 0.8190 -0.5728 -0.0338
vn 0.6745 -0.7035 -0.2239
vn 0.1740 -0.9842 -0.0336
vn 0.8927 -0.3915 -0.2231
vn 0.9749 -0.0198 -0.2217
vn -0.9844 -0.1739 -0.0260
vn 0.9086 0.3552 -0.2197
vn -0.5730 -0.8190 -0.0304
vn 0.7039 0.6762 -0.2175
vn 0.9220 -0.3004 -0.2444
vn 0.3919 0.8944 -0.2155
vn 0.5728 0.8192 -0.0265
vn 0.0201 0.9766 -0.2139
vn 0.9842 0.1742 -0.0308
vn 0.4385 -0.8646 -0.2454
vn 0.2611 -0.9336 -0.2452
vn 0.9671 0.0757 -0.2428
vn -0.9235 0.3027 -0.2356
vn 0.9631 -0.1146 -0.2437
vn 0.5989 -0.7623 -0.2455
vn -0.8470 0.4769 -0.2350
vn 0.8649 0.4404 -0.2408
vn -0.9687 -0.0734 -0.2372
vn 0.9340 0.2631 -0.2418
vn -0.9646 0.1168 -0.2363
vn 0.6309 0.7382 -0.2386
vn -0.8665 -0.4381 -0.2392
vn 0.7626 0.6008 -0.2397
vn -0.9355 -0.2608 -0.2382
vn 0.3008 0.9239 -0.2367
vn -0.6325 -0.7360 -0.2414
vn 0.4750 0.8473 -0.2376
vn -0.7642 -0.5986 -0.2403
vn -0.0753 0.9690 -0.2352
vn -0.3023 -0.9216 -0.2433
vn 0.1149 0.9650 -0.2359
vn -0.4765 -0.8451 -0.2424
vn -0.4400 0.8668 -0.2345
vn 0.7363 -0.6306 -0.2453
vn 0.0737 -0.9668 -0.2447
vn -0.2627 0.9359 -0.2348
vn 0.8454 -0.4747 -0.2450
vn -0.1165 -0.9627 -0.2441
vn -0.7379 0.6328 -0.2346
vn -0.6005 0.7645 -0.2345
vn -0.5377 0.8430 0.0153
vn -0.3548 0.9103 -0.2130
vn -0.1742 0.9844 -0.0233
vn -0.8941 0.3936 -0.2137
vn -0.9763 0.0218 -0.2151
vn -0.9100 -0.3531 -0.2171
vn -0.7053 -0.6741 -0.2193
vn -0.3933 -0.8924 -0.2213
vn -0.0215 -0.9746 -0.2229
vn -0.0000 -0.9997 0.0235
vn -0.0000 0.9997 -0.0235
vn -0.9834 -0.0000 0.1815
vn 0.9834 -0.0000 -0.1815
vn 0.0235 -0.9997 -0.0000
vn -0.0235 0.9997 -0.0000
vn 0.1815 -0.0000 0.9834
vn -0.1815 -0.0000 -0.9834
vn -0.0235 -0.9997 -0.0000
vn 0.0235 0.9997 -0.0000
vn -0.0000 1.0000 -0.0039
vn -0.0000 -1.0000 0.0039
vn -0.9525 0.0014 0.3044
vn -0.0000 -0.0047 -1.0000
vn 0.9525 -0.0014 -0.3044
vn -0.0000 -1.0000 0.0026
vn -0.0000 0.0047 1.0000
vn 0.0080 0.0027 1.0000
vn -0.0000 0.0373 0.9993
vn 0.0078 0.0036 1.0000
vn -0.0000 1.0000 -0.0026
vn -0.0000 0.0036 1.0000
vn -0.0000 0.0027 1.0000
vn -0.0043 1.0000 -0.0000
vn 0.0043 -1.0000 -0.0000
vn 0.1536 0.0007 0.9881
vn -1.0000 -0.0043 -0.0000
vn -0.1536 -0.0007 -0.9881
vn 0.0028 -1.0000 -0.0000
vn 1.0000 0.0043 -0.0000
vn 0.9999 0.0024 -0.0165
vn 0.9994 0.0337 -0.0000
vn 0.9999 0.0033 -0.0160
vn 0.0029 -1.0000 -0.0000
vn -0.0029 1.0000 -0.0000
vn 1.0000 0.0033 -0.0000
vn 1.0000 0.0024 -0.0000
vn -0.0028 1.0000 -0.0000
vn 0.0043 1.0000 -0.0000
vn -0.0043 -1.0000 -0.0000
vn -0.1536 0.0007 -0.9881
vn 1.0000 -0.0043 -0.0000
vn 0.1536 -0.0007 0.9881
vn -0.0028 -1.0000 -0.0000
vn -1.0000 0.0043 -0.0000
vn -0.9999 0.0024 0.0165
vn -0.9994 0.0337 -0.0000
vn -0.9999 0.0033 0.0160
vn -0.0029 -1.0000 -0.0000
vn 0.0029 1.0000 -0.0000
vn -1.0000 0.0033 -0.0000
vn -1.0000 0.0024 -0.0000
vn 0.0028 1.0000 -0.0000
vn -0.0000 -0.0026 -1.0000
vn -0.0000 0.0026 1.0000
vn -0.0000 -0.7013 -0.7129
vn -0.0000 0.2002 0.9797
vn -0.0543 0.9985 -0.0000
vn -0.0000 0.6152 -0.7883
vn -0.0000 0.9938 0.1112
vn 0.0543 0.9985 -0.0000
vn -0.0000 0.7013 0.7129
vn -0.0000 -0.4628 -0.8865
vn 0.7404 0.6721 -0.0000
vn -0.7404 0.6721 -0.0000
vn 0.0032 -0.0047 1.0000
vn 0.0033 -0.0048 1.0000
vn -0.1741 0.9844 -0.0233
vn -0.0080 0.0027 1.0000
vn -0.0078 0.0036 1.0000
vn 0.9999 0.0024 0.0165
vn 0.9999 0.0033 0.0160
vn -0.9999 0.0024 -0.0165
vn -0.9999 0.0033 -0.0160
vn -0.0000 0.6153 -0.7883
vt 0.625000 0.000000
vt 0.531461 0.250000
vt 0.531461 0.000000
vt 0.625000 0.349706
vt 0.531461 0.500000
vt 0.531461 0.349706
vt 0.625000 0.500000
vt 0.531461 0.750000
vt 0.625000 0.975654
vt 0.531461 1.000000
vt 0.531461 0.975654
vt 0.375000 1.000000
vt 0.375000 0.975654
vt 0.375000 0.500000
vt 0.375000 0.349706
vt 0.375000 0.250000
vt 0.375000 0.000000
vt 0.375000 0.750000
vt 0.525127 0.975654
vt 0.449610 1.000000
vt 0.449610 0.975654
vt 0.525127 0.500000
vt 0.449610 0.750000
vt 0.449610 0.500000
vt 0.525127 0.349706
vt 0.449610 0.349706
vt 0.525127 0.000000
vt 0.449610 0.250000
vt 0.449610 0.000000
vt 0.525127 0.900294
vt 0.525127 0.750000
vt 0.525127 0.274346
vt 0.525127 0.250000
vt 0.531461 0.975654
vt 0.531461 0.349706
vt 0.525127 1.000000
vt 0.525127 0.349706
vt 0.625000 0.250000
vt 0.625000 0.274346
vt 0.625000 0.750000
vt 0.625000 0.900294
vt 0.625000 0.900294
vt 0.625000 0.316069
vt 0.625000 0.334694
vt 0.625000 0.334694
vt 0.625000 1.000000
vt 0.625000 0.933931
vt 0.625000 0.507313
vt 0.625000 0.349706
vt 0.625000 0.392342
vt 0.625000 0.742687
vt 0.625000 0.915306
vt 0.625000 0.857658
vt 0.625000 0.748906
vt 0.625000 0.927712
vt 0.625000 0.927712
vt 0.449610 0.274346
vt 0.375000 0.274346
vt 0.531461 0.900294
vt 0.531461 0.274346
vt 0.531461 0.900294
vt 0.375000 0.900294
vt 0.449610 0.900294
vt 0.625000 0.349706
vt 0.000000 0.500000
vt 0.031250 0.500000
vt 0.812500 0.500000
vt 0.875000 0.500000
vt 0.843750 1.000000
vt 0.937500 0.500000
vt 0.906250 0.500000
vt 0.656250 0.500000
vt 0.687500 0.500000
vt 0.843750 0.500000
vt 0.750000 0.500000
vt 0.718750 1.000000
vt 0.781250 0.500000
vt 0.500000 0.500000
vt 0.531250 0.500000
vt 0.562500 0.500000
vt 0.718750 0.500000
vt 0.593750 1.000000
vt 0.406250 0.500000
vt 0.437500 0.500000
vt 0.593750 0.500000
vt 0.468750 1.000000
vt 0.250000 0.500000
vt 0.281250 0.500000
vt 0.312500 0.500000
vt 0.468750 0.500000
vt 0.343750 1.000000
vt 0.125000 0.500000
vt 0.156250 0.500000
vt 0.187500 0.500000
vt 0.343750 0.500000
vt 0.218750 1.000000
vt 0.062500 0.500000
vt 0.218750 0.500000
vt 0.093750 1.000000
vt 0.703178 0.485388
vt 1.000000 0.500000
vt 0.796822 0.485388
vt 0.093750 0.500000
vt 0.616663 0.050447
vt 0.968750 0.500000
vt 0.883337 0.050447
vt 0.550447 0.116663
vt 0.616663 0.449553
vt 0.449553 0.383337
vt 0.296822 0.485388
vt 0.050447 0.116663
vt 0.203178 0.014612
vt 0.883337 0.449553
vt 0.383337 0.050447
vt 0.949553 0.383337
vt 0.985388 0.296822
vt 0.485388 0.203178
vt 0.985388 0.203178
vt 0.949553 0.116663
vt 0.116663 0.449553
vt 0.014612 0.296822
vt 0.796822 0.014612
vt 0.054827 0.088033
vt 0.945173 0.088033
vt 0.968750 1.000000
vt 0.703178 0.014612
vt 0.514612 0.203178
vt 0.514612 0.296822
vt 0.550447 0.383337
vt 0.000000 1.000000
vt 0.945173 0.911966
vt 0.054827 0.911966
vt 0.000000 0.000000
vt 1.000000 1.000000
vt 1.000000 0.000000
vt 0.471393 0.000000
vt 0.471393 0.000000
vt 0.471393 0.000000
vt 0.516143 0.000000
vt 0.516143 0.000000
vt 1.000000 0.000000
vt 0.054201 0.000000
vt 0.474494 0.000000
vt 0.474494 0.000000
vt 0.945799 0.000000
vt 0.945799 0.000000
vt 0.516143 0.000000
vt 0.516143 0.000000
vt 0.514393 0.000000
vt 0.054201 0.000000
vt 0.471393 0.000000
vt 0.474494 0.000000
vt 0.054201 0.000000
vt 0.945799 0.000000
vt 0.514393 0.000000
vt 0.474494 0.000000
vt 0.514393 0.000000
vt 0.474494 0.000000
s 0
usemtl building
f 2/1/1 22/2/1 21/3/1
f 193/4/2 23/5/2 198/6/2
f 8/7/3 24/8/3 23/5/3
f 168/9/4 21/10/4 175/11/4
f 173/19/4 224/20/4 225/21/4
f 19/22/3 223/23/3 222/24/3
f 197/25/2 222/24/2 228/26/2
f 17/27/1 221/28/1 224/29/1
f 23/5/5 29/8/5 27/5/5
f 216/30/5 30/31/5 214/30/5
f 21/3/5 25/2/5 32/3/5
f 174/32/5 26/33/5 178/32/5
f 18/33/5 31/27/5 26/33/5
f 20/31/5 28/22/5 30/31/5
f 198/6/5 27/5/5 200/6/5
f 175/11/5 32/10/5 179/11/5
f 226/57/2 220/15/2 102/58/2
f 4/38/2 176/60/2 22/2/2
f 176/60/5 200/6/5 180/60/5
f 219/42/4 175/11/4 215/61/4
f 223/23/4 194/62/4 5/18/4
f 101/39/2 198/6/2 176/60/2
f 224/29/1 3/16/1 1/17/1
f 215/61/5 179/11/5 213/61/5
f 230/62/21 236/62/21 240/62/21
f 22/2/5 180/60/5 25/2/5
f 221/28/2 102/58/2 3/16/2
f 216/30/4 225/21/4 227/63/4
f 197/25/5 178/32/5 199/25/5
f 228/26/2 7/14/2 220/15/2
f 173/19/5 214/30/5 177/19/5
f 17/36/5 177/19/5 31/36/5
f 222/24/3 5/18/3 7/14/3
f 19/22/5 199/25/5 28/22/5
f 174/32/2 228/26/2 226/57/2
f 18/33/2 226/57/2 221/28/2
f 225/21/4 1/12/4 167/13/4
f 6/40/4 215/61/4 24/8/4
f 24/8/5 213/61/5 29/8/5
f 20/31/4 227/63/4 223/23/4
f 225/21/24 234/13/24 233/21/24
f 167/13/25 238/13/25 234/13/25
f 236/62/26 248/62/26 240/62/26
f 238/13/27 242/13/27 234/13/27
f 234/13/4 241/21/4 233/21/4
f 227/63/30 236/62/30 194/62/30
f 225/21/31 235/63/31 227/63/31
f 244/62/5 624/62/5 248/62/5
f 241/21/5 247/63/5 243/63/5
f 242/13/4 625/21/4 241/21/4
f 235/63/4 244/62/4 236/62/4
f 233/21/4 243/63/4 235/63/4
f 243/63/4 622/62/4 244/62/4
f 247/63/14 621/63/14 243/63/14
f 246/13/5 626/13/5 242/13/5
f 241/21/14 627/21/14 245/21/14
f 2/1/1 4/38/1 22/2/1
f 193/4/2 8/7/2 23/5/2
f 8/7/3 6/40/3 24/8/3
f 168/9/4 2/46/4 21/10/4
f 173/19/4 17/36/4 224/20/4
f 19/22/3 20/31/3 223/23/3
f 197/25/2 19/22/2 222/24/2
f 17/27/1 18/33/1 221/28/1
f 23/5/5 24/8/5 29/8/5
f 216/30/5 20/31/5 30/31/5
f 21/3/5 22/2/5 25/2/5
f 174/32/5 18/33/5 26/33/5
f 18/33/5 17/27/5 31/27/5
f 20/31/5 19/22/5 28/22/5
f 198/6/5 23/5/5 27/5/5
f 175/11/5 21/10/5 32/10/5
f 226/57/2 228/26/2 220/15/2
f 4/38/2 101/39/2 176/60/2
f 176/60/5 198/6/5 200/6/5
f 219/42/4 168/9/4 175/11/4
f 223/23/4 227/63/4 194/62/4
f 101/39/2 193/4/2 198/6/2
f 224/29/1 221/28/1 3/16/1
f 215/61/5 175/11/5 179/11/5
f 230/62/166 194/62/166 236/62/166
f 22/2/5 176/60/5 180/60/5
f 221/28/2 226/57/2 102/58/2
f 216/30/4 173/19/4 225/21/4
f 197/25/5 174/32/5 178/32/5
f 228/26/2 222/24/2 7/14/2
f 173/19/5 216/30/5 214/30/5
f 17/36/5 173/19/5 177/19/5
f 222/24/3 223/23/3 5/18/3
f 19/22/5 197/25/5 199/25/5
f 174/32/2 197/25/2 228/26/2
f 18/33/2 174/32/2 226/57/2
f 225/21/4 224/20/4 1/12/4
f 6/40/4 219/42/4 215/61/4
f 24/8/5 215/61/5 213/61/5
f 20/31/4 216/30/4 227/63/4
f 225/21/24 167/13/24 234/13/24
f 167/13/167 229/13/167 238/13/167
f 236/62/26 244/62/26 248/62/26
f 238/13/27 246/13/27 242/13/27
f 234/13/4 242/13/4 241/21/4
f 227/63/30 235/63/30 236/62/30
f 225/21/31 233/21/31 235/63/31
f 244/62/5 622/62/5 624/62/5
f 241/21/5 245/21/5 247/63/5
f 242/13/4 626/13/4 625/21/4
f 235/63/4 243/63/4 244/62/4
f 233/21/4 241/21/4 243/63/4
f 243/63/4 621/63/4 622/62/4
f 247/63/14 623/63/14 621/63/14
f 246/13/5 628/13/5 626/13/5
f 241/21/14 625/21/14 627/21/14
usemtl window_sill
f 331/123/14 328/124/14 327/123/14
f 319/130/4 325/131/4 326/132/4
f 323/133/4 326/132/4 327/123/4
f 317/134/4 328/124/4 325/131/4
f 321/135/4 327/123/4 328/124/4
f 339/123/5 332/124/5 331/123/5
f 329/131/5 326/132/5 325/131/5
f 332/124/1 325/131/1 328/124/1
f 326/132/3 331/123/3 327/123/3
f 319/130/103 333/134/103 317/134/103
f 335/135/104 323/133/104 321/135/104
f 336/133/105 319/130/105 323/133/105
f 317/134/106 335/135/106 321/135/106
f 338/132/1 331/123/1 330/132/1
f 340/124/3 329/131/3 332/124/3
f 337/131/14 330/132/14 329/131/14
f 351/123/14 348/124/14 347/123/14
f 346/132/3 341/134/3 345/131/3
f 347/123/3 342/130/3 346/132/3
f 341/134/3 348/124/3 345/131/3
f 343/135/3 347/123/3 348/124/3
f 351/123/5 360/124/5 352/124/5
f 349/131/5 346/132/5 345/131/5
f 352/124/4 345/131/4 348/124/4
f 346/132/2 351/123/2 347/123/2
f 342/130/107 353/134/107 341/134/107
f 355/135/108 344/133/108 343/135/108
f 356/133/109 342/130/109 344/133/109
f 341/134/110 355/135/110 343/135/110
f 358/132/4 351/123/4 350/132/4
f 360/124/2 349/131/2 352/124/2
f 357/131/14 350/132/14 349/131/14
f 371/123/14 368/124/14 367/123/14
f 362/130/3 365/131/3 366/132/3
f 367/123/3 362/130/3 366/132/3
f 361/134/3 368/124/3 365/131/3
f 363/135/3 367/123/3 368/124/3
f 379/123/5 372/124/5 371/123/5
f 369/131/5 366/132/5 365/131/5
f 372/124/4 365/131/4 368/124/4
f 366/132/2 371/123/2 367/123/2
f 362/130/107 373/134/107 361/134/107
f 375/135/108 364/133/108 363/135/108
f 376/133/109 362/130/109 364/133/109
f 361/134/110 375/135/110 363/135/110
f 378/132/4 371/123/4 370/132/4
f 380/124/2 369/131/2 372/124/2
f 377/131/14 370/132/14 369/131/14
f 391/123/14 388/124/14 387/123/14
f 386/132/1 381/134/1 385/131/1
f 384/133/1 386/132/1 387/123/1
f 381/134/1 388/124/1 385/131/1
f 383/135/1 387/123/1 388/124/1
f 399/123/5 392/124/5 391/123/5
f 389/131/5 386/132/5 385/131/5
f 392/124/2 385/131/2 388/124/2
f 390/132/4 387/123/4 386/132/4
f 382/130/111 393/134/111 381/134/111
f 395/135/112 384/133/112 383/135/112
f 396/133/110 382/130/110 384/133/110
f 381/134/109 395/135/109 383/135/109
f 398/132/2 391/123/2 390/132/2
f 400/124/4 389/131/4 392/124/4
f 397/131/14 390/132/14 389/131/14
f 582/136/113 413/133/113 581/137/113
f 417/133/114 584/138/114 583/137/114
f 420/133/115 408/133/115 417/133/115
f 411/135/116 615/139/116 614/140/116
f 419/141/117 407/135/117 411/135/117
f 415/142/118 594/143/118 590/144/118
f 401/145/1 424/146/1 412/146/1
f 414/135/117 411/135/117 403/135/117
f 403/135/116 614/140/116 616/147/116
f 413/133/115 409/133/115 420/133/115
f 401/145/119 599/148/119 602/149/119
f 402/150/120 420/133/120 410/142/120
f 401/145/119 419/141/119 414/135/119
f 410/142/121 585/151/121 588/152/121
f 405/153/119 583/137/119 589/152/119
f 406/146/122 419/141/122 416/154/122
f 405/153/119 420/133/119 417/133/119
f 416/154/121 601/140/121 605/155/121
f 428/142/3 433/153/3 436/142/3
f 421/150/3 431/142/3 429/150/3
f 402/150/118 591/156/118 587/152/118
f 416/154/1 426/146/1 406/146/1
f 412/146/123 607/157/123 603/157/123
f 402/150/3 423/142/3 421/150/3
f 415/142/3 425/153/3 428/142/3
f 406/146/123 608/157/123 604/149/123
f 426/146/123 612/157/123 608/157/123
f 422/145/1 432/146/1 424/146/1
f 421/150/118 595/158/118 591/156/118
f 428/142/118 598/143/118 594/143/118
f 427/154/1 434/146/1 426/146/1
f 424/146/123 611/157/123 607/157/123
f 439/135/126 449/133/126 450/135/126
f 453/133/127 443/135/127 454/135/127
f 445/133/128 453/133/128 456/133/128
f 447/135/129 444/133/129 445/133/129
f 455/141/130 443/135/130 447/135/130
f 451/142/131 463/154/131 452/154/131
f 448/146/4 458/145/4 460/146/4
f 439/135/130 455/141/130 447/135/130
f 439/135/129 445/133/129 440/133/129
f 449/133/128 445/133/128 456/133/128
f 437/145/132 449/133/132 438/150/132
f 438/150/133 456/133/133 446/142/133
f 437/145/132 455/141/132 450/135/132
f 446/142/134 455/141/134 448/146/134
f 441/153/132 454/135/132 442/146/132
f 442/146/135 455/141/135 452/154/135
f 441/153/132 456/133/132 453/133/132
f 452/154/134 456/133/134 451/142/134
f 464/142/2 469/153/2 472/142/2
f 459/142/2 465/150/2 457/150/2
f 438/150/136 458/145/136 437/145/136
f 452/154/4 462/146/4 442/146/4
f 448/146/137 459/142/137 446/142/137
f 446/142/2 457/150/2 438/150/2
f 451/142/2 461/153/2 464/142/2
f 442/146/137 461/153/137 441/153/137
f 462/146/140 469/153/140 461/153/140
f 460/146/4 466/145/4 468/146/4
f 457/150/136 466/145/136 458/145/136
f 464/142/131 471/154/131 463/154/131
f 463/154/4 470/146/4 462/146/4
f 460/146/140 467/142/140 459/142/140
f 475/135/141 485/133/141 486/135/141
f 489/133/142 479/135/142 490/135/142
f 492/133/143 480/133/143 489/133/143
f 483/135/144 480/133/144 481/133/144
f 491/141/145 479/135/145 483/135/145
f 487/142/146 499/154/146 488/154/146
f 484/146/2 494/145/2 496/146/2
f 486/135/145 483/135/145 475/135/145
f 475/135/144 481/133/144 476/133/144
f 485/133/143 481/133/143 492/133/143
f 473/145/147 485/133/147 474/150/147
f 474/150/148 492/133/148 482/142/148
f 473/145/147 491/141/147 486/135/147
f 482/142/149 491/141/149 484/146/149
f 477/153/147 490/135/147 478/146/147
f 478/146/150 491/141/150 488/154/150
f 477/153/147 492/133/147 489/133/147
f 488/154/149 492/133/149 487/142/149
f 500/142/4 505/153/4 508/142/4
f 495/142/4 501/150/4 493/150/4
f 474/150/151 494/145/151 473/145/151
f 488/154/2 498/146/2 478/146/2
f 484/146/152 495/142/152 482/142/152
f 482/142/4 493/150/4 474/150/4
f 487/142/4 497/153/4 500/142/4
f 478/146/152 497/153/152 477/153/152
f 498/146/155 505/153/155 497/153/155
f 496/146/2 502/145/2 504/146/2
f 493/150/151 502/145/151 494/145/151
f 500/142/146 507/154/146 499/154/146
f 499/154/2 506/146/2 498/146/2
f 496/146/155 503/142/155 495/142/155
f 511/135/141 521/133/141 522/135/141
f 525/133/142 515/135/142 526/135/142
f 528/133/143 516/133/143 525/133/143
f 519/135/144 516/133/144 517/133/144
f 527/141/145 515/135/145 519/135/145
f 523/142/146 535/154/146 524/154/146
f 520/146/2 530/145/2 532/146/2
f 522/135/145 519/135/145 511/135/145
f 511/135/144 517/133/144 512/133/144
f 512/133/143 528/133/143 521/133/143
f 509/145/147 521/133/147 510/150/147
f 510/150/148 528/133/148 518/142/148
f 509/145/147 527/141/147 522/135/147
f 518/142/149 527/141/149 520/146/149
f 513/153/147 526/135/147 514/146/147
f 514/146/150 527/141/150 524/154/150
f 513/153/147 528/133/147 525/133/147
f 524/154/149 528/133/149 523/142/149
f 536/142/4 541/153/4 544/142/4
f 531/142/4 537/150/4 529/150/4
f 510/150/151 530/145/151 509/145/151
f 524/154/2 534/146/2 514/146/2
f 520/146/152 531/142/152 518/142/152
f 518/142/4 529/150/4 510/150/4
f 523/142/4 533/153/4 536/142/4
f 514/146/152 533/153/152 513/153/152
f 534/146/155 541/153/155 533/153/155
f 532/146/2 538/145/2 540/146/2
f 529/150/151 538/145/151 530/145/151
f 536/142/146 543/154/146 535/154/146
f 535/154/2 542/146/2 534/146/2
f 532/146/155 539/142/155 531/142/155
f 589/152/119 600/148/119 604/149/119
f 586/137/116 408/133/116 409/133/116
f 593/152/123 433/153/123 425/153/123
f 591/156/1 617/152/1 587/152/1
f 616/147/113 581/137/113 599/148/113
f 402/150/119 581/137/119 413/133/119
f 590/144/118 609/149/118 605/155/118
f 583/137/114 615/139/114 600/148/114
f 588/152/121 601/140/121 603/157/121
f 582/136/116 409/133/116 404/133/116
f 592/152/123 431/142/123 423/142/123
f 594/143/118 613/149/118 609/149/118
f 588/152/123 423/142/123 410/142/123
f 415/142/121 585/151/121 420/133/121
f 591/156/118 610/157/118 606/157/118
f 589/152/123 425/153/123 405/153/123
f 606/157/118 430/145/118 422/145/118
f 609/149/118 435/154/118 427/154/118
f 412/146/121 601/140/121 419/141/121
f 600/148/114 407/135/114 418/135/114
f 605/155/118 427/154/118 416/154/118
f 403/135/113 599/148/113 414/135/113
f 602/149/118 422/145/118 401/145/118
f 406/146/119 600/148/119 418/135/119
f 607/157/123 596/152/123 592/152/123
f 608/157/123 597/152/123 593/152/123
f 604/149/123 593/152/123 589/152/123
f 603/157/123 592/152/123 588/152/123
f 590/144/121 601/140/121 585/151/121
f 587/152/119 599/148/119 581/137/119
f 616/147/116 586/137/116 582/136/116
f 614/140/116 584/138/116 586/137/116
f 617/152/118 620/157/118 619/149/118
f 606/157/3 619/149/3 620/157/3
f 606/157/156 618/156/156 591/156/156
f 587/152/157 619/149/157 602/149/157
f 331/123/14 332/124/14 328/124/14
f 319/130/4 317/134/4 325/131/4
f 323/133/4 319/130/4 326/132/4
f 317/134/4 321/135/4 328/124/4
f 321/135/4 323/133/4 327/123/4
f 339/123/5 340/124/5 332/124/5
f 329/131/5 330/132/5 326/132/5
f 332/124/1 329/131/1 325/131/1
f 326/132/3 330/132/3 331/123/3
f 319/130/103 334/130/103 333/134/103
f 335/135/104 336/133/104 323/133/104
f 336/133/105 334/130/105 319/130/105
f 317/134/106 333/134/106 335/135/106
f 338/132/1 339/123/1 331/123/1
f 340/124/3 337/131/3 329/131/3
f 337/131/14 338/132/14 330/132/14
f 351/123/14 352/124/14 348/124/14
f 346/132/3 342/130/3 341/134/3
f 347/123/3 344/133/3 342/130/3
f 341/134/3 343/135/3 348/124/3
f 343/135/3 344/133/3 347/123/3
f 351/123/5 359/123/5 360/124/5
f 349/131/5 350/132/5 346/132/5
f 352/124/4 349/131/4 345/131/4
f 346/132/2 350/132/2 351/123/2
f 342/130/107 354/130/107 353/134/107
f 355/135/108 356/133/108 344/133/108
f 356/133/109 354/130/109 342/130/109
f 341/134/110 353/134/110 355/135/110
f 358/132/4 359/123/4 351/123/4
f 360/124/2 357/131/2 349/131/2
f 357/131/14 358/132/14 350/132/14
f 371/123/14 372/124/14 368/124/14
f 362/130/3 361/134/3 365/131/3
f 367/123/3 364/133/3 362/130/3
f 361/134/3 363/135/3 368/124/3
f 363/135/3 364/133/3 367/123/3
f 379/123/5 380/124/5 372/124/5
f 369/131/5 370/132/5 366/132/5
f 372/124/4 369/131/4 365/131/4
f 366/132/2 370/132/2 371/123/2
f 362/130/107 374/130/107 373/134/107
f 375/135/108 376/133/108 364/133/108
f 376/133/109 374/130/109 362/130/109
f 361/134/110 373/134/110 375/135/110
f 378/132/4 379/123/4 371/123/4
f 380/124/2 377/131/2 369/131/2
f 377/131/14 378/132/14 370/132/14
f 391/123/14 392/124/14 388/124/14
f 386/132/1 382/130/1 381/134/1
f 384/133/1 382/130/1 386/132/1
f 381/134/1 383/135/1 388/124/1
f 383/135/1 384/133/1 387/123/1
f 399/123/5 400/124/5 392/124/5
f 389/131/5 390/132/5 386/132/5
f 392/124/2 389/131/2 385/131/2
f 390/132/4 391/123/4 387/123/4
f 382/130/111 394/130/111 393/134/111
f 395/135/112 396/133/112 384/133/112
f 396/133/110 394/130/110 382/130/110
f 381/134/109 393/134/109 395/135/109
f 398/132/2 399/123/2 391/123/2
f 400/124/4 397/131/4 389/131/4
f 397/131/14 398/132/14 390/132/14
f 582/136/113 404/133/113 413/133/113
f 417/133/114 408/133/114 584/138/114
f 420/133/115 409/133/115 408/133/115
f 411/135/116 407/135/116 615/139/116
f 419/141/117 418/135/117 407/135/117
f 415/142/118 428/142/118 594/143/118
f 401/145/1 422/145/1 424/146/1
f 414/135/117 419/141/117 411/135/117
f 403/135/116 411/135/116 614/140/116
f 413/133/115 404/133/115 409/133/115
f 401/145/119 414/135/119 599/148/119
f 402/150/119 413/133/119 420/133/119
f 401/145/171 412/146/171 419/141/171
f 410/142/121 420/133/121 585/151/121
f 405/153/119 417/133/119 583/137/119
f 406/146/119 418/135/119 419/141/119
f 405/153/172 415/142/172 420/133/172
f 416/154/121 419/141/121 601/140/121
f 428/142/3 425/153/3 433/153/3
f 421/150/3 423/142/3 431/142/3
f 402/150/118 421/150/118 591/156/118
f 416/154/1 427/154/1 426/146/1
f 412/146/123 424/146/123 607/157/123
f 402/150/3 410/142/3 423/142/3
f 415/142/3 405/153/3 425/153/3
f 406/146/123 426/146/123 608/157/123
f 426/146/123 434/146/123 612/157/123
f 422/145/1 430/145/1 432/146/1
f 421/150/118 429/150/118 595/158/118
f 428/142/118 436/142/118 598/143/118
f 427/154/1 435/154/1 434/146/1
f 424/146/123 432/146/123 611/157/123
f 439/135/126 440/133/126 449/133/126
f 453/133/127 444/133/127 443/135/127
f 445/133/128 444/133/128 453/133/128
f 447/135/129 443/135/129 444/133/129
f 455/141/130 454/135/130 443/135/130
f 451/142/136 464/142/136 463/154/136
f 448/146/4 437/145/4 458/145/4
f 439/135/130 450/135/130 455/141/130
f 439/135/129 447/135/129 445/133/129
f 449/133/128 440/133/128 445/133/128
f 437/145/132 450/135/132 449/133/132
f 438/150/132 449/133/132 456/133/132
f 437/145/173 448/146/173 455/141/173
f 446/142/134 456/133/134 455/141/134
f 441/153/132 453/133/132 454/135/132
f 442/146/132 454/135/132 455/141/132
f 441/153/174 451/142/174 456/133/174
f 452/154/134 455/141/134 456/133/134
f 464/142/2 461/153/2 469/153/2
f 459/142/2 467/142/2 465/150/2
f 438/150/131 457/150/131 458/145/131
f 452/154/4 463/154/4 462/146/4
f 448/146/140 460/146/140 459/142/140
f 446/142/2 459/142/2 457/150/2
f 451/142/2 441/153/2 461/153/2
f 442/146/140 462/146/140 461/153/140
f 462/146/137 470/146/137 469/153/137
f 460/146/4 458/145/4 466/145/4
f 457/150/131 465/150/131 466/145/131
f 464/142/131 472/142/131 471/154/131
f 463/154/4 471/154/4 470/146/4
f 460/146/137 468/146/137 467/142/137
f 475/135/141 476/133/141 485/133/141
f 489/133/142 480/133/142 479/135/142
f 492/133/143 481/133/143 480/133/143
f 483/135/144 479/135/144 480/133/144
f 491/141/145 490/135/145 479/135/145
f 487/142/151 500/142/151 499/154/151
f 484/146/2 473/145/2 494/145/2
f 486/135/145 491/141/145 483/135/145
f 475/135/144 483/135/144 481/133/144
f 485/133/143 476/133/143 481/133/143
f 473/145/147 486/135/147 485/133/147
f 474/150/147 485/133/147 492/133/147
f 473/145/175 484/146/175 491/141/175
f 482/142/149 492/133/149 491/141/149
f 477/153/147 489/133/147 490/135/147
f 478/146/147 490/135/147 491/141/147
f 477/153/176 487/142/176 492/133/176
f 488/154/149 491/141/149 492/133/149
f 500/142/4 497/153/4 505/153/4
f 495/142/4 503/142/4 501/150/4
f 474/150/146 493/150/146 494/145/146
f 488/154/2 499/154/2 498/146/2
f 484/146/155 496/146/155 495/142/155
f 482/142/4 495/142/4 493/150/4
f 487/142/4 477/153/4 497/153/4
f 478/146/155 498/146/155 497/153/155
f 498/146/152 506/146/152 505/153/152
f 496/146/2 494/145/2 502/145/2
f 493/150/146 501/150/146 502/145/146
f 500/142/146 508/142/146 507/154/146
f 499/154/2 507/154/2 506/146/2
f 496/146/152 504/146/152 503/142/152
f 511/135/141 512/133/141 521/133/141
f 525/133/142 516/133/142 515/135/142
f 528/133/143 517/133/143 516/133/143
f 519/135/144 515/135/144 516/133/144
f 527/141/145 526/135/145 515/135/145
f 523/142/151 536/142/151 535/154/151
f 520/146/2 509/145/2 530/145/2
f 522/135/145 527/141/145 519/135/145
f 511/135/144 519/135/144 517/133/144
f 512/133/143 517/133/143 528/133/143
f 509/145/147 522/135/147 521/133/147
f 510/150/147 521/133/147 528/133/147
f 509/145/175 520/146/175 527/141/175
f 518/142/149 528/133/149 527/141/149
f 513/153/147 525/133/147 526/135/147
f 514/146/147 526/135/147 527/141/147
f 513/153/176 523/142/176 528/133/176
f 524/154/149 527/141/149 528/133/149
f 536/142/4 533/153/4 541/153/4
f 531/142/4 539/142/4 537/150/4
f 510/150/146 529/150/146 530/145/146
f 524/154/2 535/154/2 534/146/2
f 520/146/155 532/146/155 531/142/155
f 518/142/4 531/142/4 529/150/4
f 523/142/4 513/153/4 533/153/4
f 514/146/155 534/146/155 533/153/155
f 534/146/152 542/146/152 541/153/152
f 532/146/2 530/145/2 538/145/2
f 529/150/146 537/150/146 538/145/146
f 536/142/146 544/142/146 543/154/146
f 535/154/2 543/154/2 542/146/2
f 532/146/152 540/146/152 539/142/152
f 589/152/119 583/137/119 600/148/119
f 586/137/116 584/138/116 408/133/116
f 593/152/123 597/152/123 433/153/123
f 591/156/1 618/156/1 617/152/1
f 616/147/113 582/136/113 581/137/113
f 402/150/119 587/152/119 581/137/119
f 590/144/118 594/143/118 609/149/118
f 583/137/114 584/138/114 615/139/114
f 588/152/121 585/151/121 601/140/121
f 582/136/116 586/137/116 409/133/116
f 592/152/123 596/152/123 431/142/123
f 594/143/118 598/143/118 613/149/118
f 588/152/123 592/152/123 423/142/123
f 415/142/121 590/144/121 585/151/121
f 591/156/118 595/158/118 610/157/118
f 589/152/123 593/152/123 425/153/123
f 606/157/118 610/157/118 430/145/118
f 609/149/118 613/149/118 435/154/118
f 412/146/121 603/157/121 601/140/121
f 600/148/114 615/139/114 407/135/114
f 605/155/118 609/149/118 427/154/118
f 403/135/113 616/147/113 599/148/113
f 602/149/118 606/157/118 422/145/118
f 406/146/119 604/149/119 600/148/119
f 607/157/123 611/157/123 596/152/123
f 608/157/123 612/157/123 597/152/123
f 604/149/123 608/157/123 593/152/123
f 603/157/123 607/157/123 592/152/123
f 590/144/121 605/155/121 601/140/121
f 587/152/119 602/149/119 599/148/119
f 616/147/116 614/140/116 586/137/116
f 614/140/116 615/139/116 584/138/116
f 617/152/118 618/156/118 620/157/118
f 606/157/3 602/149/3 619/149/3
f 606/157/156 620/157/156 618/156/156
f 587/152/157 617/152/157 619/149/157
usemtl window
f 338/132/4 340/124/4 339/123/4
f 358/132/3 360/124/3 359/123/3
f 378/132/3 380/124/3 379/123/3
f 398/132/1 400/124/1 399/123/1
f 338/132/4 337/131/4 340/124/4
f 358/132/3 357/131/3 360/124/3
f 378/132/3 377/131/3 380/124/3
f 398/132/1 397/131/1 400/124/1
usemtl foundation
f 1/12/5 170/13/5 167/13/5
f 7/14/5 218/15/5 220/15/5
f 3/16/5 9/17/5 1/17/5
f 5/18/5 12/14/5 7/14/5
f 9/12/4 172/13/4 170/13/4
f 12/14/2 217/15/2 218/15/2
f 11/18/3 16/14/3 12/14/3
f 10/16/1 13/17/1 9/17/1
f 28/22/6 38/31/6 30/31/6
f 26/33/7 39/27/7 34/33/7
f 32/10/8 183/34/8 179/11/8
f 27/5/9 202/35/9 200/6/9
f 183/34/4 39/36/4 181/19/4
f 35/5/3 38/31/3 36/22/3
f 202/35/2 36/22/2 201/37/2
f 40/3/1 34/33/1 39/27/1
f 25/2/10 40/3/10 32/3/10
f 29/8/11 35/5/11 27/5/11
f 26/33/12 182/32/12 178/32/12
f 30/31/13 212/30/13 214/30/13
f 4/38/14 185/39/14 101/39/14
f 43/7/3 52/40/3 44/40/3
f 8/7/14 44/40/14 6/40/14
f 4/38/14 41/1/14 42/38/14
f 6/40/14 210/41/14 219/42/14
f 46/43/4 191/44/4 189/45/4
f 41/1/1 50/38/1 42/38/1
f 44/40/4 211/42/4 210/41/4
f 42/38/2 187/39/2 185/39/2
f 46/43/5 49/46/5 45/47/5
f 47/48/5 204/49/5 205/50/5
f 48/51/5 51/7/5 47/48/5
f 45/47/5 188/9/5 190/52/5
f 56/51/5 206/50/5 207/53/5
f 47/48/1 56/51/1 48/51/1
f 45/47/3 54/43/3 46/43/3
f 48/51/2 207/53/2 208/53/2
f 209/59/4 181/19/4 212/30/4
f 33/2/2 182/32/2 34/33/2
f 184/60/2 201/37/2 182/32/2
f 179/11/8 209/59/8 213/61/8
f 3/16/5 169/58/5 10/16/5
f 25/2/9 184/60/9 33/2/9
f 168/9/14 210/41/14 186/9/14
f 170/13/4 196/62/4 195/62/4
f 210/41/4 188/9/4 186/9/4
f 14/16/19 96/58/19 99/16/19
f 15/18/20 94/62/20 98/18/20
f 16/14/19 93/15/19 217/15/19
f 172/13/20 94/62/20 196/62/20
f 189/45/5 204/49/5 187/39/5
f 171/58/19 93/15/19 96/58/19
f 169/58/2 14/16/2 10/16/2
f 102/58/5 218/15/5 169/58/5
f 177/19/13 212/30/13 181/19/13
f 167/13/5 195/62/5 194/62/5
f 178/32/12 201/37/12 199/25/12
f 218/15/2 171/58/2 169/58/2
f 207/53/5 191/44/5 192/52/5
f 13/12/20 95/13/20 172/13/20
f 48/51/5 211/42/5 52/40/5
f 180/60/9 202/35/9 184/60/9
f 203/64/2 51/7/2 43/7/2
f 8/7/14 203/64/14 43/7/14
f 15/18/22 97/14/22 16/14/22
f 31/36/13 181/19/13 39/36/13
f 208/53/2 192/52/2 190/52/2
f 101/39/14 203/64/14 193/4/14
f 37/8/4 212/30/4 38/31/4
f 2/46/14 186/9/14 41/46/14
f 189/45/4 206/50/4 205/50/4
f 29/8/8 209/59/8 37/8/8
f 186/9/4 49/46/4 41/46/4
f 195/62/4 15/18/4 11/18/4
f 185/39/2 204/49/2 203/64/2
f 46/43/5 187/39/5 50/38/5
f 5/18/5 195/62/5 11/18/5
f 190/52/5 211/42/5 208/53/5
f 28/22/12 201/37/12 36/22/12
f 192/52/5 54/43/5 53/47/5
f 190/52/2 53/47/2 45/47/2
f 205/50/4 55/48/4 47/48/4
f 14/16/23 100/17/23 13/17/23
f 194/62/5 229/13/5 167/13/5
f 1/12/5 9/12/5 170/13/5
f 7/14/5 12/14/5 218/15/5
f 3/16/5 10/16/5 9/17/5
f 5/18/5 11/18/5 12/14/5
f 9/12/4 13/12/4 172/13/4
f 12/14/2 16/14/2 217/15/2
f 11/18/3 15/18/3 16/14/3
f 10/16/1 14/16/1 13/17/1
f 28/22/6 36/22/6 38/31/6
f 26/33/7 31/27/7 39/27/7
f 32/10/8 40/10/8 183/34/8
f 27/5/9 35/5/9 202/35/9
f 183/34/4 40/10/4 39/36/4
f 35/5/3 37/8/3 38/31/3
f 202/35/2 35/5/2 36/22/2
f 40/3/1 33/2/1 34/33/1
f 25/2/10 33/2/10 40/3/10
f 29/8/11 37/8/11 35/5/11
f 26/33/12 34/33/12 182/32/12
f 30/31/13 38/31/13 212/30/13
f 4/38/14 42/38/14 185/39/14
f 43/7/3 51/7/3 52/40/3
f 8/7/14 43/7/14 44/40/14
f 4/38/14 2/1/14 41/1/14
f 6/40/14 44/40/14 210/41/14
f 46/43/4 54/43/4 191/44/4
f 41/1/1 49/1/1 50/38/1
f 44/40/4 52/40/4 211/42/4
f 42/38/2 50/38/2 187/39/2
f 46/43/5 50/38/5 49/46/5
f 47/48/5 51/7/5 204/49/5
f 48/51/5 52/40/5 51/7/5
f 45/47/5 49/46/5 188/9/5
f 56/51/5 55/48/5 206/50/5
f 47/48/1 55/48/1 56/51/1
f 45/47/3 53/47/3 54/43/3
f 48/51/2 56/51/2 207/53/2
f 209/59/4 183/34/4 181/19/4
f 33/2/2 184/60/2 182/32/2
f 184/60/2 202/35/2 201/37/2
f 179/11/8 183/34/8 209/59/8
f 3/16/5 102/58/5 169/58/5
f 25/2/9 180/60/9 184/60/9
f 168/9/14 219/42/14 210/41/14
f 170/13/4 172/13/4 196/62/4
f 210/41/4 211/42/4 188/9/4
f 14/16/19 171/58/19 96/58/19
f 15/18/20 196/62/20 94/62/20
f 16/14/19 97/14/19 93/15/19
f 172/13/20 95/13/20 94/62/20
f 189/45/5 205/50/5 204/49/5
f 171/58/19 217/15/19 93/15/19
f 169/58/2 171/58/2 14/16/2
f 102/58/5 220/15/5 218/15/5
f 177/19/13 214/30/13 212/30/13
f 167/13/5 170/13/5 195/62/5
f 178/32/12 182/32/12 201/37/12
f 218/15/2 217/15/2 171/58/2
f 207/53/5 206/50/5 191/44/5
f 13/12/20 100/12/20 95/13/20
f 48/51/5 208/53/5 211/42/5
f 180/60/9 200/6/9 202/35/9
f 203/64/2 204/49/2 51/7/2
f 8/7/14 193/4/14 203/64/14
f 15/18/22 98/18/22 97/14/22
f 31/36/13 177/19/13 181/19/13
f 208/53/2 207/53/2 192/52/2
f 101/39/14 185/39/14 203/64/14
f 37/8/4 209/59/4 212/30/4
f 2/46/14 168/9/14 186/9/14
f 189/45/4 191/44/4 206/50/4
f 29/8/8 213/61/8 209/59/8
f 186/9/4 188/9/4 49/46/4
f 195/62/4 196/62/4 15/18/4
f 185/39/2 187/39/2 204/49/2
f 46/43/5 189/45/5 187/39/5
f 5/18/5 194/62/5 195/62/5
f 190/52/5 188/9/5 211/42/5
f 28/22/12 199/25/12 201/37/12
f 192/52/5 191/44/5 54/43/5
f 190/52/2 192/52/2 53/47/2
f 205/50/4 206/50/4 55/48/4
f 14/16/23 99/16/23 100/17/23
f 194/62/5 230/62/5 229/13/5
usemtl roofbox
f 58/43/5 60/51/5 57/47/5
f 64/51/14 62/43/14 61/47/14
f 60/51/2 61/47/2 57/47/2
f 58/43/4 63/48/4 59/48/4
f 59/48/3 64/51/3 60/51/3
f 57/47/1 62/43/1 58/43/1
f 68/51/14 66/43/14 65/47/14
f 76/51/15 71/48/15 72/51/15
f 72/51/1 67/48/1 68/51/1
f 70/43/3 65/47/3 66/43/3
f 69/47/4 68/51/4 65/47/4
f 71/48/2 66/43/2 67/48/2
f 74/43/5 76/51/5 73/47/5
f 74/43/16 69/47/16 70/43/16
f 73/47/17 72/51/17 69/47/17
f 71/48/18 74/43/18 70/43/18
f 85/51/5 78/43/5 86/47/5
f 82/43/14 87/51/14 88/47/14
f 87/51/3 79/48/3 85/51/3
f 82/43/1 86/47/1 78/43/1
f 89/54/1 84/54/1 80/54/1
f 83/48/2 78/43/2 79/48/2
f 85/51/4 77/55/4 80/54/4
f 88/47/4 84/54/4 81/56/4
f 87/51/4 80/54/4 84/54/4
f 86/47/4 81/56/4 77/55/4
f 92/56/4 89/54/4 90/55/4
f 90/55/14 80/54/14 77/55/14
f 92/56/3 77/55/3 81/56/3
f 91/54/5 81/56/5 84/54/5
f 58/43/5 59/48/5 60/51/5
f 64/51/14 63/48/14 62/43/14
f 60/51/2 64/51/2 61/47/2
f 58/43/4 62/43/4 63/48/4
f 59/48/3 63/48/3 64/51/3
f 57/47/1 61/47/1 62/43/1
f 68/51/14 67/48/14 66/43/14
f 76/51/15 75/48/15 71/48/15
f 72/51/1 71/48/1 67/48/1
f 70/43/3 69/47/3 65/47/3
f 69/47/4 72/51/4 68/51/4
f 71/48/2 70/43/2 66/43/2
f 74/43/5 75/48/5 76/51/5
f 74/43/16 73/47/16 69/47/16
f 73/47/17 76/51/17 72/51/17
f 71/48/18 75/48/18 74/43/18
f 85/51/5 79/48/5 78/43/5
f 82/43/14 83/48/14 87/51/14
f 87/51/3 83/48/3 79/48/3
f 82/43/1 88/47/1 86/47/1
f 89/54/1 91/54/1 84/54/1
f 83/48/2 82/43/2 78/43/2
f 85/51/4 86/47/4 77/55/4
f 88/47/4 87/51/4 84/54/4
f 87/51/4 85/51/4 80/54/4
f 86/47/4 88/47/4 81/56/4
f 92/56/4 91/54/4 89/54/4
f 90/55/14 89/54/14 80/54/14
f 92/56/3 90/55/3 77/55/3
f 91/54/5 92/56/5 81/56/5
usemtl upper_window
f 436/142/124 597/152/124 598/143/124
f 429/150/125 596/152/125 595/158/125
f 472/142/138 470/146/138 471/154/138
f 465/150/139 468/146/139 466/145/139
f 508/142/153 506/146/153 507/154/153
f 501/150/154 504/146/154 502/145/154
f 544/142/153 542/146/153 543/154/153
f 537/150/154 540/146/154 538/145/154
f 598/143/124 612/157/124 613/149/124
f 595/158/125 611/157/125 610/157/125
f 610/157/125 432/146/125 430/145/125
f 613/149/124 434/146/124 435/154/124
f 436/142/124 433/153/124 597/152/124
f 429/150/125 431/142/125 596/152/125
f 472/142/138 469/153/138 470/146/138
f 465/150/139 467/142/139 468/146/139
f 508/142/153 505/153/153 506/146/153
f 501/150/154 503/142/154 504/146/154
f 544/142/153 541/153/153 542/146/153
f 537/150/154 539/142/154 540/146/154
f 598/143/124 597/152/124 612/157/124
f 595/158/125 596/152/125 611/157/125
f 610/157/125 611/157/125 432/146/125
f 613/149/124 612/157/124 434/146/124
usemtl door_frame
f 232/63/28 237/21/28 231/21/28
f 231/21/29 238/13/29 229/13/29
f 230/62/32 239/63/32 232/63/32
f 239/63/2 245/21/2 237/21/2
f 237/21/2 246/13/2 238/13/2
f 240/62/2 247/63/2 239/63/2
f 621/63/3 624/62/3 622/62/3
f 248/62/2 623/63/2 247/63/2
f 626/13/1 627/21/1 625/21/1
f 245/21/2 628/13/2 246/13/2
f 232/63/28 239/63/28 237/21/28
f 231/21/29 237/21/29 238/13/29
f 230/62/32 240/62/32 239/63/32
f 239/63/2 247/63/2 245/21/2
f 237/21/2 245/21/2 246/13/2
f 240/62/2 248/62/2 247/63/2
f 621/63/3 623/63/3 624/62/3
f 248/62/2 624/62/2 623/63/2
f 626/13/1 628/13/1 627/21/1
f 245/21/2 627/21/2 628/13/2
usemtl door
f 232/63/4 229/13/4 230/62/4
f 232/63/4 231/21/4 229/13/4
usemtl door_handle
f 249/65/33 273/65/33 304/66/33
f 254/67/34 252/68/34 253/69/34
f 275/70/35 251/70/35 276/71/35
f 258/7/36 284/72/36 257/73/36
f 277/68/33 252/68/33 278/74/33
f 257/73/37 255/75/37 256/76/37
f 279/67/33 254/67/33 280/77/33
f 261/78/36 288/79/36 260/80/36
f 281/75/38 255/75/38 282/81/38
f 260/80/39 258/7/39 259/82/39
f 283/73/33 257/73/33 284/72/33
f 264/14/40 292/83/40 263/84/40
f 285/7/35 258/7/35 286/85/35
f 263/84/41 261/78/41 262/86/41
f 287/80/33 260/80/33 288/79/33
f 267/87/40 296/88/40 266/89/40
f 289/78/35 261/78/35 290/90/35
f 266/89/42 264/14/42 265/91/42
f 291/84/43 263/84/43 292/83/43
f 270/92/36 300/93/36 269/94/36
f 293/14/33 264/14/33 294/95/33
f 269/94/44 267/87/44 268/96/44
f 295/89/33 266/89/33 296/88/33
f 249/65/36 304/66/36 272/97/36
f 297/87/33 267/87/33 298/98/33
f 272/97/45 270/92/45 271/99/45
f 299/94/33 269/94/33 300/93/33
f 324/100/46 273/101/46 305/102/46
f 301/92/38 270/92/38 302/103/38
f 291/84/47 314/104/47 313/90/47
f 251/70/33 275/70/33 274/105/33
f 303/97/33 272/97/33 304/66/33
f 273/101/35 249/101/35 274/105/35
f 258/7/33 285/7/33 284/72/33
f 311/106/36 315/107/36 322/108/36
f 264/14/43 293/14/43 292/83/43
f 272/97/33 303/97/33 302/103/33
f 255/75/33 281/75/33 280/77/33
f 261/78/33 289/78/33 288/79/33
f 269/94/38 299/94/38 298/98/38
f 253/109/48 251/70/48 250/110/48
f 265/111/49 263/84/49 262/112/49
f 266/89/33 295/89/33 294/95/33
f 275/70/50 306/113/50 305/105/50
f 262/112/51 260/80/51 259/114/51
f 263/84/33 291/84/33 290/90/33
f 307/115/52 306/71/52 277/68/52
f 252/68/40 276/71/40 251/70/40
f 260/80/33 287/80/33 286/85/33
f 279/67/53 308/116/53 307/74/53
f 255/75/54 253/109/54 256/117/54
f 257/73/33 283/73/33 282/81/33
f 281/75/55 309/118/55 308/77/55
f 270/92/35 301/92/35 300/93/35
f 254/67/33 279/67/33 278/74/33
f 259/114/56 257/73/56 256/117/56
f 283/73/57 310/119/57 309/81/57
f 267/87/43 297/87/43 296/88/43
f 277/68/58 278/74/58 307/74/58
f 285/7/59 311/106/59 310/72/59
f 271/120/60 269/94/60 268/121/60
f 268/121/33 262/112/33 256/117/33
f 287/80/61 312/122/61 311/85/61
f 267/87/62 265/111/62 268/121/62
f 273/101/63 274/105/63 305/105/63
f 304/66/64 273/65/64 324/66/64
f 279/67/65 280/77/65 308/77/65
f 293/14/66 294/95/66 315/95/66
f 278/74/67 279/67/67 307/74/67
f 274/105/68 275/70/68 305/105/68
f 292/83/69 293/14/69 314/83/69
f 281/75/70 282/81/70 309/81/70
f 295/89/71 296/88/71 316/88/71
f 280/77/72 281/75/72 308/77/72
f 294/95/73 295/89/73 315/95/73
f 283/73/74 284/72/74 310/72/74
f 297/87/75 298/98/75 318/98/75
f 282/81/76 283/73/76 309/81/76
f 296/88/77 297/87/77 316/88/77
f 285/7/78 286/85/78 311/85/78
f 299/94/79 300/93/79 320/93/79
f 284/72/80 285/7/80 310/72/80
f 298/98/81 299/94/81 318/98/81
f 287/80/82 288/79/82 312/79/82
f 301/92/83 302/103/83 322/103/83
f 286/85/84 287/80/84 311/85/84
f 300/93/85 301/92/85 320/93/85
f 289/78/86 290/90/86 313/90/86
f 275/70/87 276/71/87 306/71/87
f 303/97/88 304/66/88 324/66/88
f 288/79/89 289/78/89 312/79/89
f 276/71/90 277/68/90 306/71/90
f 302/103/91 303/97/91 322/103/91
f 291/84/92 292/83/92 314/83/92
f 290/90/93 291/84/93 313/90/93
f 252/68/43 277/68/43 276/71/43
f 251/70/94 249/101/94 250/125/94
f 289/78/95 313/126/95 312/79/95
f 249/65/96 271/120/96 250/125/96
f 255/75/36 280/77/36 254/67/36
f 293/14/97 315/107/97 314/83/97
f 295/89/98 316/127/98 315/95/98
f 297/87/99 318/128/99 316/88/99
f 299/94/100 320/129/100 318/98/100
f 301/92/101 322/108/101 320/93/101
f 303/97/102 324/100/102 322/103/102
f 254/67/36 278/74/36 252/68/36
f 257/73/36 282/81/36 255/75/36
f 260/80/36 286/85/36 258/7/36
f 263/84/36 290/90/36 261/78/36
f 266/89/36 294/95/36 264/14/36
f 269/94/36 298/98/36 267/87/36
f 272/97/36 302/103/36 270/92/36
f 322/108/36 324/100/36 305/102/36
f 305/102/168 306/113/168 307/115/168
f 307/115/168 308/116/168 309/118/168
f 309/118/36 310/119/36 311/106/36
f 311/106/169 312/122/169 313/126/169
f 313/126/36 314/104/36 315/107/36
f 315/107/40 316/127/40 318/128/40
f 318/128/168 320/129/168 322/108/168
f 322/108/36 305/102/36 307/115/36
f 307/115/40 309/118/40 311/106/40
f 311/106/36 313/126/36 315/107/36
f 315/107/36 318/128/36 322/108/36
f 322/108/36 307/115/36 311/106/36
f 253/109/48 252/68/48 251/70/48
f 265/111/49 264/14/49 263/84/49
f 262/112/51 261/78/51 260/80/51
f 255/75/54 254/67/54 253/109/54
f 259/114/56 258/7/56 257/73/56
f 271/120/60 270/92/60 269/94/60
f 256/117/33 253/109/33 250/110/33
f 250/110/33 271/120/33 268/121/33
f 268/121/33 265/111/33 262/112/33
f 262/112/33 259/114/33 256/117/33
f 256/117/33 250/110/33 268/121/33
f 267/87/62 266/89/62 265/111/62
f 251/70/36 274/105/36 249/101/36
f 249/65/170 272/97/170 271/120/170
usemtl door_cover
f 630/30/158 631/21/158 632/63/158
f 635/21/159 633/30/159 636/63/159
f 635/21/14 632/63/14 631/21/14
f 634/19/3 631/21/3 629/19/3
f 632/63/1 633/30/1 630/30/1
f 634/19/160 638/19/160 640/19/160
f 634/19/161 639/30/161 633/30/161
f 629/19/162 637/30/162 638/19/162
f 633/30/163 637/30/163 630/30/163
f 643/21/164 641/30/164 644/63/164
f 645/30/165 647/21/165 648/63/165
f 644/63/5 647/21/5 643/21/5
f 643/21/1 646/19/1 642/19/1
f 644/63/3 645/30/3 648/63/3
f 630/30/158 629/19/158 631/21/158
f 635/21/159 634/19/159 633/30/159
f 635/21/14 636/63/14 632/63/14
f 634/19/3 635/21/3 631/21/3
f 632/63/1 636/63/1 633/30/1
f 634/19/160 629/19/160 638/19/160
f 634/19/177 640/19/177 639/30/177
f 629/19/162 630/30/162 637/30/162
f 633/30/163 639/30/163 637/30/163
f 643/21/164 642/19/164 641/30/164
f 645/30/165 646/19/165 647/21/165
f 644/63/5 648/63/5 647/21/5
f 643/21/1 647/21/1 646/19/1
f 644/63/3 641/30/3 645/30/3
