# Blender 4.2.3 LTS
# www.blender.org
mtllib buildingA.mtl
o Cube
v -2.000000 -0.022267 2.000000
v -2.000000 3.977733 2.000000
v -2.000000 -0.022267 -2.000000
v -2.000000 3.977733 -2.000000
v 2.000000 -0.022267 2.000000
v 2.000000 3.977733 2.000000
v 2.000000 -0.022267 -2.000000
v 2.000000 3.977733 -2.000000
v -3.000000 3.877734 3.000000
v -3.000000 3.877734 -3.000000
v 3.000000 3.877734 -3.000000
v 3.000000 3.877734 3.000000
v -2.000000 4.477733 2.000000
v -2.000000 4.477733 -2.000000
v 2.000000 4.477733 -2.000000
v 2.000000 4.477733 2.000000
v -3.000000 4.477733 3.000000
v -3.000000 4.477733 -3.000000
v 3.000000 4.477733 -3.000000
v 3.000000 4.477733 3.000000
v -2.000000 8.477733 2.000000
v -2.000000 8.477733 -2.000000
v 2.000000 8.477733 -2.000000
v 2.000000 8.477733 2.000000
v -2.000000 8.977733 2.000000
v -2.000000 8.977733 -2.000000
v 2.000000 8.977733 -2.000000
v 2.000000 8.977733 2.000000
v -4.398973 9.499038 4.398973
v -4.398973 9.499038 -4.398973
v 4.398973 9.499038 -4.398973
v 4.398973 9.499038 4.398973
v -4.398973 9.033196 4.398973
v -4.398973 9.033196 -4.398973
v 4.398973 9.033196 -4.398973
v 4.398973 9.033196 4.398973
v -2.000000 12.977733 2.000000
v -2.000000 12.977733 -2.000000
v 2.000000 12.977733 -2.000000
v 2.000000 12.977733 2.000000
v -5.185491 15.413327 4.585491
v -5.185491 15.413327 -4.585491
v 4.585491 15.413327 -5.185491
v 5.185491 15.413327 4.585491
v -3.556499 20.773438 3.556499
v -3.556499 20.773438 -3.556499
v 3.556499 20.773438 -3.556499
v 3.556499 20.773438 3.556499
v -5.185491 19.398815 4.585491
v -5.185491 19.398815 -4.585491
v 4.585491 19.398815 -5.185491
v 5.185491 19.398815 4.585491
v -4.060013 20.773438 4.060013
v -4.060013 20.773438 -4.060013
v 4.060013 20.773438 -4.060013
v 4.060013 20.773438 4.060013
v -3.556499 19.664299 3.556499
v -3.556499 19.664299 -3.556499
v 3.556499 19.664299 -3.556499
v 3.556499 19.664299 3.556499
v -4.585491 15.413327 5.185491
v -4.585491 15.413327 -5.185491
v -4.585491 19.398815 5.185491
v -4.585491 19.398815 -5.185491
v -4.685491 15.413327 4.585491
v -4.685491 15.413327 -4.585491
v -4.685491 19.398815 4.585491
v -4.685491 19.398815 -4.585491
v -5.185491 14.813327 -5.185491
v 5.185491 15.413327 -4.585491
v -5.185491 19.998816 -5.185491
v 5.185491 19.398815 -4.585491
v -4.585491 15.413327 -4.685491
v 4.585491 15.413327 -4.685491
v -4.585491 19.398815 -4.685491
v 4.585491 19.398815 -4.685491
v 5.185491 14.813327 -5.185491
v 4.585491 15.413327 5.185491
v 5.185491 19.998816 -5.185491
v 4.585491 19.398815 5.185491
v 4.685491 15.413327 -4.585491
v 4.685491 15.413327 4.585491
v 4.685491 19.398815 -4.585491
v 4.685491 19.398815 4.585491
v 5.185491 14.813327 5.185491
v -5.185491 14.813327 5.185491
v 5.185491 19.998816 5.185491
v -5.185491 19.998816 5.185491
v 4.585491 15.413327 4.685491
v -4.585491 15.413327 4.685491
v 4.585491 19.398815 4.685491
v -4.585491 19.398815 4.685491
v -4.398973 8.716245 4.398973
v -4.398973 8.716245 -4.398973
v 4.398973 8.716245 -4.398973
v 4.398973 8.716245 4.398973
v -4.398973 9.815988 4.398973
v -4.398973 9.815988 -4.398973
v 4.398973 9.815988 -4.398973
v 4.398973 9.815988 4.398973
v 5.320963 8.984378 -5.320963
v 5.320963 8.984378 5.320963
v -5.320963 8.984378 5.320963
v -5.320963 8.984378 -5.320963
v -4.398973 10.723012 4.398973
v -4.398973 10.723012 -4.398973
v 4.398973 10.723012 -4.398973
v 4.398973 10.723012 4.398973
v 5.320963 10.771831 -5.320963
v 5.320963 10.208354 -5.320963
v 5.320963 10.208354 5.320963
v 5.320963 10.771831 5.320963
v -5.320963 10.771831 5.320963
v -5.320963 10.208354 5.320963
v -5.320963 10.208354 -5.320963
v -5.320963 10.771831 -5.320963
v -2.000000 0.077733 2.000000
v -2.000000 0.077733 -2.000000
v 2.000000 0.077733 -2.000000
v 2.000000 0.077733 2.000000
v -2.100000 -0.024767 -2.100000
v -2.100000 -0.024767 2.100000
v -2.100000 0.080233 -2.100000
v 2.100000 -0.024767 -2.100000
v 2.100000 0.080233 -2.100000
v 2.100000 -0.024767 2.100000
v 2.100000 0.080233 2.100000
v -2.100000 0.080233 2.100000
vn -1.0000 -0.0000 -0.0000
vn -0.0000 -0.0000 -1.0000
vn 1.0000 -0.0000 -0.0000
vn -0.0000 -0.0000 1.0000
vn -0.0995 -0.9950 -0.0000
vn 0.0995 -0.9950 -0.0000
vn -0.0000 -0.9950 -0.0995
vn -0.0000 -0.9950 0.0995
vn -0.0000 1.0000 -0.0000
vn -0.0000 0.9440 0.3299
vn -0.0989 -0.9951 -0.0000
vn -0.0000 0.9440 -0.3299
vn 0.0989 -0.9951 -0.0000
vn -0.0000 0.9986 -0.0529
vn -0.0000 0.9986 0.0529
vn -0.0000 -0.9951 0.0989
vn -0.0000 -0.9951 -0.0989
vn -0.3299 0.9440 -0.0000
vn 0.3299 0.9440 -0.0000
vn 0.4993 -0.8664 -0.0000
vn -0.4993 -0.8664 -0.0000
vn -0.0000 -0.8664 0.4993
vn -0.0000 -0.8664 -0.4993
vn -0.5670 0.8237 -0.0000
vn -0.0000 0.8237 -0.5670
vn 0.5670 0.8237 -0.0000
vn -0.0000 0.8237 0.5670
vn -0.0000 -1.0000 -0.0000
vn 0.0529 0.9986 -0.0000
vn -0.0529 0.9986 -0.0000
vn -0.0000 -0.9986 -0.0529
vn -0.0000 -0.9986 0.0529
vn 0.0529 -0.9986 -0.0000
vn -0.0529 -0.9986 -0.0000
vn -0.0000 0.9997 0.0250
vn -0.0250 -0.9997 -0.0000
vn 0.0250 -0.9997 -0.0000
vn -0.0250 0.9997 -0.0000
vn -0.0000 0.9997 -0.0250
vn -0.0000 -0.9997 -0.0250
vn 0.0250 0.9997 -0.0000
vn -0.0000 -0.9997 0.0250
vt 0.338143 0.538133
vt 0.338143 0.566920
vt 0.411582 0.566920
vt 0.411582 0.538133
vt 0.318222 0.523819
vt 0.311569 0.523819
vt 0.309895 0.523126
vt 0.319894 0.523125
vt 0.411107 0.218456
vt 0.411107 0.203411
vt 0.374794 0.203411
vt 0.374794 0.218456
vt 0.311567 0.526575
vt 0.318220 0.526575
vt 0.319894 0.527268
vt 0.309895 0.527268
vt 0.151419 0.107234
vt 0.004212 0.107234
vt 0.004212 0.079476
vt 0.151419 0.079476
vt 0.078778 0.379458
vt 0.005606 0.379458
vt 0.005606 0.393582
vt 0.078778 0.393582
vt 0.078778 0.379458
vt 0.078778 0.393582
vt 0.005606 0.379458
vt 0.005606 0.393582
vt 0.078778 0.393582
vt 0.170019 0.599432
vt 0.243208 0.599432
vt 0.243208 0.569466
vt 0.170019 0.569466
vt 0.484700 0.700796
vt 0.339029 0.700796
vt 0.339029 0.760398
vt 0.484700 0.760398
vt 0.123142 0.538132
vt 0.122992 0.539582
vt 0.120807 0.540481
vt 0.120971 0.537227
vt 0.126491 0.539644
vt 0.126641 0.538194
vt 0.128826 0.537295
vt 0.128662 0.540549
vt 0.151107 0.760528
vt 0.006402 0.760528
vt 0.006402 0.741272
vt 0.151107 0.741272
vt 0.088485 0.566738
vt 0.160380 0.566744
vt 0.160380 0.536774
vt 0.088485 0.536758
vt 0.088485 0.566751
vt 0.160380 0.566758
vt 0.160380 0.536804
vt 0.088485 0.536789
vt 0.133672 0.677552
vt 0.135625 0.677535
vt 0.137572 0.678164
vt 0.132160 0.678358
vt 0.131686 0.678270
vt 0.128184 0.679471
vt 0.128617 0.678955
vt 0.131334 0.678202
vt 0.135597 0.676727
vt 0.133644 0.676743
vt 0.131696 0.676114
vt 0.137108 0.675921
vt 0.206949 0.901922
vt 0.170692 0.901922
vt 0.170692 0.905149
vt 0.206949 0.905149
vt 0.137583 0.676008
vt 0.141084 0.674808
vt 0.140652 0.675324
vt 0.137934 0.676077
vt 0.129776 0.679735
vt 0.132284 0.678471
vt 0.132491 0.678584
vt 0.130750 0.679482
vt 0.131908 0.675918
vt 0.129008 0.674467
vt 0.130254 0.674646
vt 0.132073 0.675772
vt 0.124024 0.672828
vt 0.145042 0.672743
vt 0.141702 0.674170
vt 0.127467 0.674211
vt 0.145244 0.681451
vt 0.141801 0.680067
vt 0.124226 0.681535
vt 0.127566 0.680109
vt 0.151638 0.910705
vt 0.224363 0.910705
vt 0.224363 0.903839
vt 0.151638 0.903839
vt 0.411512 0.462672
vt 0.340811 0.462672
vt 0.340811 0.433384
vt 0.411512 0.433384
vt 0.136984 0.675808
vt 0.139492 0.674544
vt 0.152194 0.145458
vt 0.006348 0.145458
vt 0.006348 0.115079
vt 0.152194 0.115079
vt 0.136777 0.675694
vt 0.138518 0.674797
vt 0.137845 0.678113
vt 0.140898 0.679152
vt 0.138119 0.678027
vt 0.140287 0.678748
vt 0.137360 0.678361
vt 0.140260 0.679811
vt 0.137196 0.678506
vt 0.139014 0.679632
vt 0.131423 0.676166
vt 0.128371 0.675126
vt 0.131149 0.676252
vt 0.128981 0.675530
vt 0.119999 0.540884
vt 0.119998 0.536892
vt 0.129634 0.536892
vt 0.129635 0.540884
vt 0.625000 0.270255
vt 0.625000 0.146412
vt 0.625000 0.479745
vt 0.625000 0.479745
vt 0.625000 0.603588
vt 0.625000 0.603588
vt 0.006028 0.700938
vt 0.151585 0.700938
vt 0.151585 0.721417
vt 0.006028 0.721417
vt 0.160380 0.566731
vt 0.160380 0.536743
vt 0.151107 0.733165
vt 0.006402 0.733165
vt 0.151585 0.733528
vt 0.006028 0.733528
vt 0.000000 0.000000
vt 0.411582 0.537395
vt 0.338143 0.537395
s 0
usemtl Material.001
f 117/1/1 2/2/1 4/3/1 118/4/1
f 118/4/2 4/3/2 8/2/2 119/1/2
f 119/1/3 8/2/3 6/3/3 120/4/3
f 120/4/4 6/3/4 2/2/4 117/1/4
f 6/5/5 8/6/5 11/7/5 12/8/5
f 12/9/3 11/10/3 19/11/3 20/12/3
f 4/13/6 2/14/6 9/15/6 10/16/6
f 2/14/7 6/5/7 12/8/7 9/15/7
f 8/6/8 4/13/8 10/16/8 11/7/8
f 13/17/4 16/18/4 24/19/4 21/20/4
f 10/9/1 9/10/1 17/11/1 18/12/1
f 9/10/4 12/9/4 20/12/4 17/11/4
f 11/10/2 10/9/2 18/12/2 19/11/2
f 13/21/9 14/22/9 18/23/9 17/24/9
f 14/22/9 15/25/9 19/26/9 18/23/9
f 15/25/9 16/27/9 20/28/9 19/26/9
f 16/27/9 13/25/9 17/29/9 20/28/9
f 26/30/10 27/31/10 99/32/10 98/33/10
f 15/17/2 14/18/2 22/19/2 23/20/2
f 16/18/3 15/17/3 23/20/3 24/19/3
f 14/18/1 13/17/1 21/20/1 22/19/1
f 25/34/4 28/35/4 40/36/4 37/37/4
f 22/38/11 21/39/11 93/40/11 94/41/11
f 28/30/12 25/31/12 97/32/12 100/33/12
f 24/42/13 23/43/13 95/44/13 96/45/13
f 30/46/1 29/47/1 105/48/1 106/49/1
f 32/46/3 31/47/3 107/48/3 108/49/3
f 34/50/14 35/51/14 101/52/14 104/53/14
f 36/54/15 33/55/15 103/56/15 102/57/15
f 21/39/16 24/42/16 96/45/16 93/40/16
f 23/43/17 22/38/17 94/41/17 95/44/17
f 27/31/18 28/30/18 100/33/18 99/32/18
f 25/31/19 26/30/19 98/33/19 97/32/19
f 40/58/20 39/59/20 77/60/20 85/61/20
f 27/34/2 26/35/2 38/36/2 39/37/2
f 28/35/3 27/34/3 39/37/3 40/36/3
f 26/35/1 25/34/1 37/37/1 38/36/1
f 78/62/1 80/63/1 91/64/1 89/65/1
f 38/66/21 37/67/21 86/68/21 69/69/21
f 37/67/22 40/58/22 85/61/22 86/68/22
f 39/59/23 38/66/23 69/69/23 77/60/23
f 48/70/1 47/71/1 59/72/1 60/73/1
f 62/74/3 64/75/3 75/76/3 73/77/3
f 52/78/2 44/79/2 82/80/2 84/81/2
f 41/82/2 49/83/2 67/84/2 65/85/2
f 53/86/24 54/87/24 71/88/24 88/89/24
f 54/87/25 55/90/25 79/91/25 71/88/25
f 55/90/26 56/92/26 87/93/26 79/91/26
f 56/92/27 53/86/27 88/89/27 87/93/27
f 45/94/9 46/95/9 54/96/9 53/97/9
f 46/95/9 47/94/9 55/97/9 54/96/9
f 47/94/9 48/95/9 56/96/9 55/97/9
f 48/95/9 45/94/9 53/97/9 56/96/9
f 59/98/9 58/99/9 57/100/9 60/101/9
f 46/70/3 45/71/3 57/72/3 58/73/3
f 45/71/2 48/70/2 60/73/2 57/72/2
f 47/71/4 46/70/4 58/73/4 59/72/4
f 41/82/1 42/102/1 69/69/1 86/68/1
f 50/103/1 49/83/1 88/89/1 71/88/1
f 49/83/1 41/82/1 86/68/1 88/89/1
f 42/102/1 50/103/1 71/88/1 69/69/1
f 66/104/1 65/105/1 67/106/1 68/107/1
f 42/102/9 41/82/9 65/85/9 66/108/9
f 50/103/4 42/102/4 66/108/4 68/109/4
f 49/83/28 50/103/28 68/109/28 67/84/28
f 62/74/2 43/110/2 77/60/2 69/69/2
f 51/111/2 64/75/2 71/88/2 79/91/2
f 64/75/2 62/74/2 69/69/2 71/88/2
f 43/110/2 51/111/2 79/91/2 77/60/2
f 74/106/2 73/107/2 75/104/2 76/105/2
f 43/110/9 62/74/9 73/77/9 74/112/9
f 51/111/1 43/110/1 74/112/1 76/113/1
f 64/75/28 51/111/28 76/113/28 75/76/28
f 70/114/3 44/79/3 85/61/3 77/60/3
f 52/78/3 72/115/3 79/91/3 87/93/3
f 44/79/3 52/78/3 87/93/3 85/61/3
f 72/115/3 70/114/3 77/60/3 79/91/3
f 82/106/3 81/107/3 83/104/3 84/105/3
f 44/79/9 70/114/9 81/116/9 82/80/9
f 70/114/4 72/115/4 83/117/4 81/116/4
f 72/115/28 52/78/28 84/81/28 83/117/28
f 78/62/4 61/118/4 86/68/4 85/61/4
f 63/119/4 80/63/4 87/93/4 88/89/4
f 80/63/4 78/62/4 85/61/4 87/93/4
f 61/118/4 63/119/4 88/89/4 86/68/4
f 90/106/4 89/107/4 91/104/4 92/105/4
f 61/118/9 78/62/9 89/65/9 90/120/9
f 63/119/3 61/118/3 90/120/3 92/121/3
f 80/63/28 63/119/28 92/121/28 91/64/28
f 29/122/1 30/123/1 94/41/1 93/40/1
f 30/123/2 31/124/2 95/44/2 94/41/2
f 31/124/3 32/125/3 96/45/3 95/44/3
f 32/125/4 29/122/4 93/40/4 96/45/4
f 34/126/1 33/127/1 97/127/1 98/126/1
f 35/128/2 34/126/2 98/126/2 99/129/2
f 36/130/3 35/128/3 99/129/3 100/131/3
f 33/127/4 36/130/4 100/131/4 97/127/4
f 103/132/3 104/133/3 115/134/3 114/135/3
f 101/132/1 102/133/1 111/134/1 110/135/1
f 31/47/2 30/46/2 106/49/2 107/48/2
f 29/47/4 32/46/4 108/49/4 105/48/4
f 35/51/29 36/54/29 102/57/29 101/52/29
f 33/136/30 34/50/30 104/53/30 103/137/30
f 104/133/4 101/132/4 110/135/4 115/134/4
f 102/133/2 103/132/2 114/135/2 111/134/2
f 107/48/31 106/49/31 116/138/31 109/139/31
f 105/48/32 108/49/32 112/138/32 113/139/32
f 112/140/1 109/141/1 110/135/1 111/134/1
f 116/140/3 113/141/3 114/135/3 115/134/3
f 113/141/2 112/140/2 111/134/2 114/135/2
f 109/141/4 116/140/4 115/134/4 110/135/4
f 108/49/33 107/48/33 109/139/33 112/138/33
f 106/49/34 105/48/34 113/139/34 116/138/34
f 118/4/35 119/1/35 125/1/35 123/4/35
f 5/142/36 7/142/36 124/142/36 126/142/36
f 3/142/37 1/142/37 122/142/37 121/142/37
f 119/1/38 120/4/38 127/4/38 125/1/38
f 126/143/4 127/4/4 128/1/4 122/144/4
f 124/144/3 125/1/3 127/4/3 126/143/3
f 121/143/2 123/4/2 125/1/2 124/144/2
f 122/144/1 128/1/1 123/4/1 121/143/1
f 120/4/39 117/1/39 128/1/39 127/4/39
f 1/142/40 5/142/40 126/142/40 122/142/40
f 117/1/41 118/4/41 123/4/41 128/1/41
f 7/142/42 3/142/42 121/142/42 124/142/42
