# Blender 4.3.2
# www.blender.org
mtllib buildingB.mtl
o Cube
v 1.000000 5.550000 -0.850000
v 1.000000 0.450000 -0.850000
v 1.000000 5.550000 0.850000
v 1.000000 0.450000 0.850000
v -0.850000 5.550000 -1.000000
v -0.850000 0.450000 -1.000000
v -1.000000 5.550000 0.850000
v -1.000000 0.450000 0.850000
v 0.850000 5.550000 -1.000000
v 0.850000 0.450000 -1.000000
v 0.850000 5.550000 1.000000
v 0.850000 0.450000 1.000000
v 0.850000 5.550000 -0.850000
v 0.850000 0.450000 -0.850000
v 0.850000 5.550000 0.850000
v 0.850000 0.450000 0.850000
v 1.000000 0.000000 -1.000000
v -1.000000 0.450000 -0.850000
v 0.850000 6.000000 -0.850000
v -1.000000 5.550000 -0.850000
v 0.850000 0.450000 -0.850000
v -0.850000 0.450000 -0.850000
v 0.850000 5.550000 -0.850000
v -0.850000 5.550000 -0.850000
v -1.000000 0.000000 -1.000000
v -0.850000 0.450000 1.000000
v -0.850000 5.550000 1.000000
v -0.850000 6.000000 -0.850000
v -0.750000 0.450000 -0.850000
v -0.750000 0.450000 0.850000
v -0.750000 5.550000 0.850000
v -0.750000 5.550000 -0.850000
v -1.000000 0.000000 1.000000
v -0.850000 6.000000 0.850000
v 0.850000 6.000000 0.850000
v 1.000000 0.000000 1.000000
v -0.850000 0.450000 0.850000
v -0.850000 5.550000 0.850000
v 0.850000 5.550000 0.850000
v 0.850000 0.450000 0.850000
v -0.850000 0.450000 -0.850000
v -0.850000 0.450000 0.850000
v -0.850000 5.550000 0.850000
v -0.850000 5.550000 -0.850000
v 1.000000 6.000000 1.000000
v -1.000000 6.000000 1.000000
v 1.000000 6.000000 -1.000000
v -1.000000 6.000000 -1.000000
v 0.850000 5.850000 0.850000
v -0.850000 5.850000 0.850000
v 0.850000 5.850000 -0.850000
v -0.850000 5.850000 -0.850000
v -1.000000 0.000000 0.256499
v 1.000000 6.000000 0.256499
v -1.000000 6.000000 0.256499
v 1.000000 0.000000 0.256499
v 1.000000 5.550000 0.218024
v 1.000000 0.018167 0.144122
v 0.850000 5.550000 0.218024
v 0.850000 0.450000 0.218024
v -1.000000 0.450000 0.218024
v -1.000000 5.550000 0.218024
v -0.750000 0.450000 0.218024
v -0.750000 5.550000 0.218024
v -0.850000 0.450000 0.218024
v -0.850000 5.550000 0.218024
v 0.850000 6.000000 0.218024
v -0.850000 6.000000 0.218024
v 0.850000 5.850000 0.218024
v -0.850000 5.850000 0.218024
v -1.000000 6.000000 -0.420620
v 1.000000 0.000000 -0.420620
v 1.000000 0.018167 -0.283625
v 0.850000 0.450000 -0.357527
v -1.000000 5.550000 -0.357527
v -0.750000 5.550000 -0.357527
v -0.850000 5.550000 -0.357527
v -0.850000 6.000000 -0.357527
v -0.850000 5.850000 -0.357527
v -1.000000 0.000000 -0.420620
v 1.000000 6.000000 -0.420620
v 1.000000 5.550000 -0.357527
v 0.850000 5.550000 -0.357527
v -1.000000 0.450000 -0.357527
v -0.750000 0.450000 -0.357527
v -0.850000 0.450000 -0.357527
v 0.850000 6.000000 -0.357527
v 0.850000 5.850000 -0.357527
v 1.000000 1.063919 0.144122
v 0.850000 1.141456 0.218024
v 1.000000 1.063919 -0.283625
v 0.850000 1.141456 -0.357527
v 1.000000 0.014649 0.218024
v 1.000000 0.014649 -0.357527
v 1.000000 1.141456 0.218024
v 1.000000 1.141456 -0.357527
v 0.872907 0.018167 0.144122
v 0.872907 0.018167 -0.283625
v 0.872907 1.063919 0.144122
v 0.872907 1.063919 -0.283625
v 0.850000 0.450000 -0.860975
v -0.850000 0.450000 -0.860975
v 0.850000 5.550000 -0.860975
v -0.850000 5.550000 -0.860975
v -0.850000 0.450000 0.855683
v -0.850000 5.550000 0.855683
v 0.850000 5.550000 0.855683
v 0.850000 0.450000 0.855683
v -0.850000 0.450000 0.874803
v -0.850000 5.550000 0.874803
v 0.850000 5.550000 0.874803
v 0.850000 0.450000 0.874803
vn -0.0000 -0.0000 1.0000
vn -0.0000 -1.0000 -0.0000
vn -1.0000 -0.0000 -0.0000
vn 0.7987 0.5504 0.2433
vn 1.0000 -0.0000 -0.0000
vn -0.0000 -0.0000 -1.0000
vn -0.0000 1.0000 -0.0000
vn 0.8081 0.5569 -0.1918
vt 0.126616 0.645775
vt 0.126616 0.684832
vt 0.073446 0.531637
vt 0.013890 0.531637
vt 0.029633 0.531759
vt 0.012682 0.531759
vt 0.589707 0.436283
vt 0.589707 0.466724
vt 0.581995 0.466724
vt 0.581995 0.436283
vt 0.056358 0.503872
vt 0.074293 0.503872
vt 0.076106 0.503332
vt 0.076106 0.531921
vt 0.074293 0.531444
vt 0.079756 0.502748
vt 0.079756 0.532568
vt 0.012380 0.503872
vt 0.012380 0.531444
vt 0.006917 0.532568
vt 0.006917 0.502748
vt 0.056358 0.531444
vt 0.058656 0.532568
vt 0.035397 0.503872
vt 0.033995 0.502748
vt 0.591914 0.436565
vt 0.591914 0.466289
vt 0.582500 0.466289
vt 0.582500 0.436565
vt 0.035397 0.531444
vt 0.011764 0.503332
vt 0.007237 0.502556
vt 0.080632 0.502556
vt 0.011764 0.531921
vt 0.007237 0.532698
vt 0.080632 0.532698
vt 0.029633 0.503273
vt 0.012682 0.503273
vt 0.007519 0.502387
vt 0.027461 0.502387
vt 0.074799 0.531759
vt 0.074799 0.503273
vt 0.079962 0.502387
vt 0.079962 0.532645
vt 0.007519 0.532645
vt 0.053046 0.531759
vt 0.054371 0.532645
vt 0.606250 0.169691
vt 0.606250 0.231250
vt 0.606250 0.169691
vt 0.053046 0.503273
vt 0.013890 0.503561
vt 0.007455 0.532741
vt 0.007455 0.502457
vt 0.073446 0.503561
vt 0.079882 0.502457
vt 0.079882 0.532741
vt 0.393750 0.018750
vt 0.606250 0.018750
vt 0.613202 0.435873
vt 0.613202 0.466261
vt 0.578532 0.466261
vt 0.578532 0.435873
vt 0.393750 0.097747
vt 0.393750 0.097747
vt 0.030693 0.645775
vt 0.030693 0.684832
vt 0.008149 0.695542
vt 0.008149 0.635925
vt 0.070110 0.645775
vt 0.062462 0.635925
vt 0.097272 0.684832
vt 0.127654 0.684832
vt 0.151238 0.695542
vt 0.109813 0.695542
vt 0.127654 0.645775
vt 0.151238 0.635925
vt 0.114290 0.468969
vt 0.114290 0.498801
vt 0.086212 0.498801
vt 0.086212 0.468969
vt 0.097272 0.645775
vt 0.070110 0.684832
vt 0.139861 0.468969
vt 0.139861 0.498801
vt 0.062462 0.695542
vt 0.109813 0.635925
vt 0.393750 0.169691
vt 0.393750 0.169691
vt 0.606250 0.097747
vt 0.606250 0.097747
vt 0.027461 0.532645
vt 0.054371 0.502387
vt 0.600487 0.436565
vt 0.600487 0.466289
vt 0.058656 0.502748
vt 0.033995 0.532568
vt 0.608616 0.436283
vt 0.608616 0.466724
vt 0.598719 0.466724
vt 0.598719 0.436283
vt 0.607823 0.436565
vt 0.607823 0.466289
vt 0.393750 0.231250
vt 0.161741 0.468969
vt 0.161741 0.498801
vt 0.055416 0.503872
vt 0.393750 0.580309
vt 0.393750 0.652253
vt 0.393750 0.583540
vt 0.393750 0.649022
vt 0.393750 0.652253
vt 0.393750 0.580309
vt 0.036338 0.503872
vt 0.088857 0.566800
vt 0.161219 0.567141
vt 0.160785 0.536893
vt 0.088857 0.536573
vt 0.582011 0.436164
vt 0.612063 0.436164
vt 0.612063 0.466216
vt 0.582011 0.466216
s 0
usemtl Material
f 19/1/1 28/2/1 52/2/1 51/1/1
f 11/3/2 27/4/2 38/4/2 39/3/2
f 75/5/2 20/6/2 32/6/2 76/5/2
f 86/7/3 77/8/3 44/9/3 41/10/3
f 94/11/4 2/12/4 14/12/4 74/11/4
f 6/13/5 5/14/5 24/14/5 22/13/5
f 1/15/5 2/12/5 17/16/5 47/17/5
f 4/18/5 3/19/5 45/20/5 36/21/5
f 82/22/5 1/15/5 47/17/5 81/23/5
f 93/24/5 4/18/5 36/21/5 56/25/5
f 60/26/5 59/27/5 15/28/5 16/29/5
f 3/19/6 4/18/6 16/18/6 15/19/6
f 57/30/2 3/19/2 15/19/2 59/30/2
f 2/12/1 1/15/1 13/15/1 14/12/1
f 6/13/6 10/31/6 17/32/6 25/33/6
f 10/31/6 9/34/6 47/35/6 17/32/6
f 5/14/6 6/13/6 25/33/6 48/36/6
f 9/34/6 5/14/6 48/36/6 47/35/6
f 22/13/3 24/14/3 104/14/3 102/13/3
f 10/31/7 6/13/7 22/13/7 21/31/7
f 5/14/2 9/34/2 23/34/2 24/14/2
f 9/34/3 10/31/3 21/31/3 23/34/3
f 84/37/3 18/38/3 25/39/3 80/40/3
f 7/41/3 8/42/3 33/43/3 46/44/3
f 18/38/3 20/6/3 48/45/3 25/39/3
f 62/46/3 7/41/3 46/44/3 55/47/3
f 76/48/7 32/49/7 44/49/7 77/50/7
f 8/42/6 7/41/6 31/41/6 30/42/6
f 20/6/1 18/38/1 29/38/1 32/6/1
f 61/51/7 8/42/7 30/42/7 63/51/7
f 26/52/1 27/4/1 46/53/1 33/54/1
f 11/3/1 12/55/1 36/56/1 45/57/1
f 27/4/1 11/3/1 45/57/1 46/53/1
f 12/55/1 26/52/1 33/54/1 36/56/1
f 37/52/2 40/55/2 108/55/2 105/52/2
f 27/4/5 26/52/5 37/52/5 38/4/5
f 26/52/7 12/55/7 40/55/7 37/52/7
f 12/55/3 11/3/3 39/3/3 40/55/3
f 30/58/1 31/59/1 43/59/1 42/58/1
f 102/60/6 104/61/6 103/62/6 101/63/6
f 63/64/2 30/58/2 42/58/2 65/65/2
f 35/66/7 34/67/7 46/68/7 45/69/7
f 67/70/7 35/66/7 45/69/7 54/71/7
f 78/72/7 28/73/7 48/74/7 71/75/7
f 28/73/7 19/76/7 47/77/7 48/74/7
f 69/78/7 70/79/7 50/80/7 49/81/7
f 87/82/3 19/76/3 51/76/3 88/82/3
f 68/83/5 34/67/5 50/67/5 70/83/5
f 34/67/6 35/66/6 49/66/6 50/67/6
f 78/72/5 68/83/5 70/83/5 79/72/5
f 35/66/3 67/70/3 69/70/3 49/66/3
f 88/84/7 79/85/7 70/79/7 69/78/7
f 34/67/7 68/83/7 55/86/7 46/68/7
f 87/82/7 67/70/7 54/71/7 81/87/7
f 85/88/2 63/64/2 65/65/2 86/89/2
f 84/37/7 61/51/7 63/51/7 85/37/7
f 31/59/7 64/90/7 66/91/7 43/59/7
f 75/5/3 62/46/3 55/47/3 71/92/3
f 8/42/3 61/51/3 53/93/3 33/43/3
f 82/22/2 57/30/2 59/30/2 83/22/2
f 74/94/5 83/95/5 59/27/5 60/26/5
f 94/11/5 93/24/5 56/25/5 72/96/5
f 3/19/5 57/30/5 54/97/5 45/20/5
f 4/18/8 93/24/8 60/24/8 16/18/8
f 42/98/3 43/99/3 66/100/3 65/101/3
f 7/41/2 62/46/2 64/46/2 31/41/2
f 2/12/5 94/11/5 72/96/5 17/16/5
f 14/102/5 13/103/5 83/95/5 74/94/5
f 1/15/2 82/22/2 83/22/2 13/15/2
f 20/6/3 75/5/3 71/92/3 48/45/3
f 18/38/7 84/37/7 85/37/7 29/38/7
f 29/104/2 85/88/2 86/89/2 41/104/2
f 19/76/7 87/82/7 81/87/7 47/77/7
f 51/105/7 52/106/7 79/85/7 88/84/7
f 28/73/5 78/72/5 79/72/5 52/73/5
f 67/70/3 87/82/3 88/82/3 69/70/3
f 68/83/7 78/72/7 71/75/7 55/86/7
f 64/90/7 76/48/7 77/50/7 66/91/7
f 61/51/3 84/37/3 80/40/3 53/93/3
f 57/30/5 82/22/5 81/23/5 54/97/5
f 73/107/1 91/107/1 100/107/1 98/107/1
f 65/101/3 66/100/3 77/8/3 86/7/3
f 62/46/2 75/5/2 76/5/2 64/46/2
f 95/24/7 96/11/7 92/11/7 90/24/7
f 74/108/3 60/109/3 90/109/3 92/108/3
f 94/11/6 74/11/6 92/11/6 96/11/6
f 60/24/1 93/24/1 95/24/1 90/24/1
f 73/110/5 58/111/5 93/112/5 94/113/5
f 89/114/5 91/107/5 96/11/5 95/24/5
f 91/107/5 73/107/5 94/11/5 96/11/5
f 58/114/5 89/114/5 95/24/5 93/24/5
f 97/115/5 98/116/5 100/117/5 99/118/5
f 58/114/7 73/107/7 98/107/7 97/114/7
f 89/114/6 58/114/6 97/114/6 99/114/6
f 91/107/2 89/114/2 99/114/2 100/107/2
f 21/31/2 22/13/2 102/13/2 101/31/2
f 24/14/7 23/34/7 103/34/7 104/14/7
f 23/34/5 21/31/5 101/31/5 103/34/5
f 105/52/2 108/55/2 112/55/2 109/52/2
f 40/55/5 39/3/5 107/3/5 108/55/5
f 39/3/7 38/4/7 106/4/7 107/3/7
f 38/4/3 37/52/3 105/52/3 106/4/3
f 112/119/1 111/120/1 110/121/1 109/122/1
f 108/55/5 107/3/5 111/3/5 112/55/5
f 107/3/7 106/4/7 110/4/7 111/3/7
f 106/4/3 105/52/3 109/52/3 110/4/3
