# Blender 4.3.2
# www.blender.org
mtllib buildingC.mtl
o Cylinder
v 0.000000 0.020000 -10.000000
v 0.000000 19.980000 -8.054884
v 5.877852 0.020000 -8.090170
v 4.734542 19.980000 -6.516538
v 9.510566 0.020000 -3.090170
v 7.660651 19.980000 -2.489096
v 9.510566 0.020000 3.090170
v 7.660650 19.980000 2.489096
v 5.877852 0.020000 8.090170
v 4.734542 19.980000 6.516538
v 0.000000 0.020000 10.000000
v 0.000000 19.980000 8.054884
v -5.877852 0.020000 8.090170
v -4.734542 19.980000 6.516538
v -9.510566 0.020000 3.090170
v -7.660651 19.980000 2.489096
v -9.510566 0.020000 -3.090170
v -7.660650 19.980000 -2.489096
v -5.877852 0.020000 -8.090170
v -4.734542 19.980000 -6.516538
v 5.877852 19.980000 -8.090170
v 0.000000 19.980000 -10.000000
v 9.510566 19.980000 -3.090170
v 9.510566 19.980000 3.090170
v 5.877852 19.980000 8.090170
v 0.000000 19.980000 10.000000
v -5.877852 19.980000 8.090170
v -9.510566 19.980000 3.090170
v -9.510566 19.980000 -3.090170
v -5.877852 19.980000 -8.090170
v 4.734542 28.613798 -6.516538
v -0.000000 28.613798 -8.054884
v 7.660651 28.613798 -2.489096
v 7.660650 28.613798 2.489096
v 4.734542 28.613798 6.516538
v -0.000000 28.613798 8.054884
v -4.734542 28.613798 6.516538
v -7.660651 28.613798 2.489096
v -7.660650 28.613798 -2.489096
v -4.734542 28.613798 -6.516538
v -0.740540 58.999866 -1.019276
v -1.198223 58.999866 -0.389328
v -1.198223 58.999866 0.389329
v -0.740540 58.999866 1.019276
v 0.000007 58.999866 1.259894
v 0.740555 58.999866 1.019276
v 1.198238 58.999866 0.389329
v 1.198238 58.999866 -0.389328
v 0.000007 58.999866 -1.259894
v 0.740555 58.999866 -1.019276
v -2.306418 58.999847 -3.174522
v -3.731867 58.999847 -1.212559
v -3.731867 58.999847 1.212560
v -2.306418 58.999847 3.174522
v 0.000007 58.999847 3.923925
v 2.306432 58.999847 3.174522
v 3.731882 58.999847 1.212560
v 3.731882 58.999847 -1.212559
v 0.000007 58.999847 -3.923925
v 2.306432 58.999847 -3.174522
v -2.306418 54.667004 -3.174522
v -3.731867 54.667004 -1.212559
v -3.731867 54.667004 1.212560
v -2.306418 54.667004 3.174522
v 0.000007 54.667004 3.923925
v 2.306432 54.667004 3.174522
v 3.731882 54.667004 1.212560
v 3.731882 54.667004 -1.212559
v 0.000007 54.667004 -3.923925
v 2.306432 54.667004 -3.174522
v -2.643064 53.615959 -3.637875
v -4.276572 53.615959 -1.389544
v -4.276572 53.615959 1.389545
v -2.643064 53.615959 3.637875
v 0.000007 53.615959 4.496661
v 2.643078 53.615959 3.637875
v 4.276586 53.615959 1.389545
v 4.276586 53.615959 -1.389544
v 0.000007 53.615959 -4.496661
v 2.643078 53.615959 -3.637875
v -2.451243 52.445854 -3.373857
v -3.966199 52.445854 -1.288699
v -3.966200 52.445854 1.288699
v -2.451243 52.445854 3.373857
v 0.000007 52.445854 4.170317
v 2.451258 52.445854 3.373857
v 3.966214 52.445854 1.288699
v 3.966214 52.445854 -1.288699
v 0.000007 52.445854 -4.170317
v 2.451258 52.445854 -3.373857
v -4.734535 45.385353 -6.516538
v -7.660643 45.385353 -2.489096
v -7.660644 45.385353 2.489096
v -4.734535 45.385353 6.516538
v 0.000007 45.385353 8.054884
v 4.734549 45.385353 6.516538
v 7.660657 45.385353 2.489096
v 7.660658 45.385353 -2.489096
v 0.000007 45.385353 -8.054884
v 4.734549 45.385353 -6.516538
v 4.734542 19.284443 -6.516538
v -0.000000 19.284443 -8.054884
v 7.660651 19.284443 -2.489096
v 7.660650 19.284443 2.489096
v 4.734542 19.284443 6.516538
v -0.000000 19.284443 8.054884
v -4.734542 19.284443 6.516538
v -7.660651 19.284443 2.489096
v -7.660650 19.284443 -2.489096
v -4.734542 19.284443 -6.516538
v 0.074062 78.963928 -0.101927
v 0.000007 78.963928 -0.125989
v 0.119830 78.963928 -0.038933
v 0.119830 78.963928 0.038933
v 0.074062 78.963928 0.101928
v 0.000007 78.963928 0.125990
v -0.074047 78.963928 0.101928
v -0.119816 78.963928 0.038933
v -0.119816 78.963928 -0.038933
v -0.074047 78.963928 -0.101927
v 4.742533 28.668051 -6.527537
v -0.000000 28.668051 -8.068480
v 7.673581 28.668051 -2.493297
v 7.673581 28.668051 2.493297
v 4.742533 28.668051 6.527537
v -0.000000 28.668051 8.068480
v -4.742533 28.668051 6.527537
v -7.673581 28.668051 2.493297
v -7.673581 28.668051 -2.493297
v -4.742533 28.668051 -6.527537
v 3.820055 28.668051 -5.257856
v -0.000000 28.668051 -6.499067
v 6.180981 28.668051 -2.008322
v 6.180980 28.668051 2.008322
v 3.820055 28.668051 5.257856
v -0.000000 28.668051 6.499067
v -3.820056 28.668051 5.257856
v -6.180981 28.668051 2.008322
v -6.180980 28.668051 -2.008322
v -3.820056 28.668051 -5.257856
vn 0.3090 -0.0000 -0.9511
vn 0.8090 -0.0000 -0.5878
vn 1.0000 -0.0000 -0.0000
vn 0.8090 -0.0000 0.5878
vn 0.3090 -0.0000 0.9511
vn -0.3090 -0.0000 0.9511
vn -0.8090 -0.0000 0.5878
vn -1.0000 -0.0000 -0.0000
vn -0.8090 -0.0000 -0.5878
vn -0.3090 -0.0000 -0.9511
vn -0.7915 0.2069 0.5751
vn 0.7915 0.2069 -0.5751
vn -0.3046 -0.1679 -0.9376
vn -0.7915 0.2069 -0.5751
vn 0.7915 0.2069 0.5751
vn -0.7975 -0.1679 -0.5794
vn -0.9858 -0.1679 -0.0000
vn -0.3023 0.2069 0.9305
vn 0.3046 -0.1679 0.9376
vn -0.7975 -0.1679 0.5794
vn -0.0000 1.0000 -0.0000
vn 0.8078 0.0539 0.5869
vn -0.7183 0.4601 -0.5219
vn 0.7183 0.4601 -0.5219
vn 0.2744 0.4601 0.8444
vn -0.8879 0.4601 -0.0000
vn 0.2744 0.4601 -0.8444
vn 0.7183 0.4601 0.5219
vn -0.7183 0.4601 0.5219
vn -0.2744 0.4601 -0.8444
vn 0.8879 0.4601 -0.0000
vn -0.2987 -0.2564 -0.9193
vn 0.9666 -0.2564 -0.0000
vn -0.2987 -0.2564 0.9193
vn -0.7820 -0.2564 -0.5681
vn 0.7820 -0.2564 -0.5681
vn 0.2987 -0.2564 0.9193
vn -0.9666 -0.2564 -0.0000
vn 0.2987 -0.2564 -0.9193
vn 0.7820 -0.2564 0.5681
vn -0.2744 0.4601 0.8444
vn -0.8860 0.4636 -0.0000
vn 0.2738 0.4636 -0.8427
vn 0.7168 0.4636 0.5208
vn -0.7168 0.4636 0.5208
vn -0.2738 0.4636 -0.8427
vn 0.8860 0.4636 -0.0000
vn -0.2738 0.4636 0.8427
vn -0.7168 0.4636 -0.5208
vn 0.7168 0.4636 -0.5208
vn -0.7820 -0.2564 0.5681
vn 0.2738 0.4636 0.8427
vn 0.3086 0.0539 -0.9497
vn -0.9985 0.0539 -0.0000
vn 0.3086 0.0539 0.9497
vn 0.8078 0.0539 -0.5869
vn -0.8078 0.0539 -0.5869
vn -0.3086 0.0539 0.9497
vn 0.9985 0.0539 -0.0000
vn -0.3086 0.0539 -0.9497
vn -0.8078 0.0539 0.5869
vn 0.3046 -0.1679 -0.9376
vn 0.7975 -0.1679 -0.5794
vn 0.3023 0.2069 0.9305
vn -0.3023 0.2069 -0.9305
vn 0.9858 -0.1679 -0.0000
vn -0.3046 -0.1679 0.9376
vn 0.9784 0.2069 -0.0000
vn -0.9784 0.2069 -0.0000
vn 0.7975 -0.1679 0.5794
vn 0.3023 0.2069 -0.9305
vn 0.0001 1.0000 -0.0000
vn 0.0003 1.0000 -0.0000
vn -0.0003 1.0000 -0.0000
vt 0.078699 0.532518
vt 0.071807 0.502880
vt 0.078699 0.502880
vt 0.071807 0.532518
vt 0.064916 0.502880
vt 0.064916 0.532518
vt 0.058024 0.502880
vt 0.058024 0.532518
vt 0.051132 0.502880
vt 0.051132 0.532518
vt 0.044240 0.502880
vt 0.044240 0.532518
vt 0.037348 0.502880
vt 0.037348 0.532518
vt 0.030456 0.502880
vt 0.030456 0.532518
vt 0.023565 0.502880
vt 0.066144 0.190262
vt 0.066144 0.309738
vt 0.023565 0.532518
vt 0.016673 0.502880
vt 0.016673 0.532518
vt 0.009781 0.502880
vt 0.060150 0.721648
vt 0.044743 0.742299
vt 0.044743 0.721648
vt 0.137395 0.721648
vt 0.121822 0.742299
vt 0.121822 0.721648
vt 0.363629 0.093603
vt 0.250000 0.056683
vt 0.030590 0.721648
vt 0.019067 0.742299
vt 0.019067 0.721648
vt 0.107457 0.721648
vt 0.090581 0.742299
vt 0.090581 0.721648
vt 0.433856 0.190262
vt 0.433856 0.309738
vt 0.074840 0.721648
vt 0.060150 0.742299
vt 0.250000 0.443317
vt 0.136371 0.406397
vt 0.363629 0.406397
vt 0.260537 0.589987
vt 0.253488 0.599272
vt 0.253488 0.589987
vt 0.136371 0.093603
vt 0.302831 0.589987
vt 0.309880 0.599272
vt 0.302831 0.599272
vt 0.281684 0.589987
vt 0.288733 0.599272
vt 0.281684 0.599272
vt 0.267586 0.599272
vt 0.260537 0.599272
vt 0.316929 0.589987
vt 0.309880 0.589987
vt 0.295782 0.589987
vt 0.288733 0.589987
vt 0.267586 0.589987
vt 0.274635 0.599272
vt 0.323978 0.599272
vt 0.316929 0.599272
vt 0.295782 0.599272
vt 0.303342 0.252789
vt 0.306815 0.247163
vt 0.306815 0.252789
vt 0.288733 0.583247
vt 0.281684 0.583247
vt 0.267586 0.583247
vt 0.260537 0.583247
vt 0.316929 0.583247
vt 0.309880 0.583247
vt 0.274635 0.583247
vt 0.323978 0.583247
vt 0.302831 0.583247
vt 0.295782 0.583247
vt 0.274635 0.589987
vt 0.253488 0.583247
vt 0.267586 0.576492
vt 0.260537 0.576492
vt 0.316929 0.576492
vt 0.309880 0.576492
vt 0.295782 0.576492
vt 0.288733 0.576492
vt 0.274635 0.576492
vt 0.323978 0.576492
vt 0.302831 0.576492
vt 0.281684 0.576492
vt 0.253488 0.576492
vt 0.260537 0.569228
vt 0.253488 0.569234
vt 0.309880 0.569187
vt 0.302831 0.569193
vt 0.288733 0.569204
vt 0.281684 0.569210
vt 0.316929 0.569181
vt 0.295782 0.569198
vt 0.274635 0.569216
vt 0.267586 0.569222
vt 0.323978 0.569175
vt 0.150601 0.740722
vt 0.005532 0.723186
vt 0.006020 0.741551
vt 0.005750 0.740186
vt 0.150239 0.723767
vt 0.151438 0.740518
vt 0.150659 0.740140
vt 0.007851 0.723300
vt 0.006194 0.740564
vt 0.005457 0.741421
vt 0.149466 0.723741
vt 0.149675 0.723986
vt 0.006357 0.723200
vt 0.006139 0.723538
vt 0.150853 0.723961
vt 0.151794 0.740716
vt 0.006464 0.723457
vt 0.149199 0.740962
vt 0.005747 0.741270
vt 0.150951 0.723884
vt 0.560894 0.451529
vt 0.567496 0.460557
vt 0.606140 0.466137
vt 0.623422 0.460557
vt 0.623422 0.442501
vt 0.606140 0.436922
vt 0.567496 0.442501
vt 0.584778 0.466137
vt 0.630024 0.451529
vt 0.584778 0.436922
vt 0.292922 0.252789
vt 0.296395 0.247163
vt 0.296395 0.252789
vt 0.282503 0.252789
vt 0.285976 0.247163
vt 0.285976 0.252789
vt 0.310288 0.247163
vt 0.310288 0.252789
vt 0.299868 0.247163
vt 0.299868 0.252789
vt 0.289449 0.252789
vt 0.289449 0.247163
vt 0.313761 0.247163
vt 0.313761 0.252789
vt 0.303342 0.247163
vt 0.292922 0.247163
vt 0.317234 0.247163
vt 0.317234 0.252789
vt 0.250000 0.490000
vt 0.391068 0.444164
vt 0.478254 0.324164
vt 0.391068 0.055836
vt 0.478254 0.175836
vt 0.108932 0.055836
vt 0.250000 0.010000
vt 0.021746 0.175836
vt 0.021746 0.324164
vt 0.108932 0.444164
vt 0.074349 0.742299
vt 0.007835 0.742299
vt 0.007341 0.721648
vt 0.107457 0.742299
vt 0.030590 0.742299
vt 0.150131 0.721648
vt 0.137978 0.742299
vt 0.009781 0.532518
vt 0.323978 0.589987
vt 0.282503 0.247163
vt 0.150713 0.742299
s 0
usemtl Material.001
f 22/1/1 3/2/1 1/3/1
f 21/4/2 5/5/2 3/2/2
f 23/6/3 7/7/3 5/5/3
f 24/8/4 9/9/4 7/7/4
f 25/10/5 11/11/5 9/9/5
f 26/12/6 13/13/6 11/11/6
f 27/14/7 15/15/7 13/13/7
f 28/16/8 17/17/8 15/15/8
f 16/18/8 39/19/8 18/19/8
f 29/20/9 19/21/9 17/17/9
f 30/22/10 1/23/10 19/21/10
f 27/24/11 128/25/11 28/26/11
f 21/27/12 123/28/12 23/29/12
f 10/30/13 136/31/13 135/30/13
f 29/32/14 130/33/14 30/34/14
f 24/35/15 125/36/15 25/37/15
f 10/30/16 134/38/16 8/38/16
f 8/38/17 133/39/17 6/39/17
f 26/40/18 127/41/18 27/24/18
f 2/42/19 140/43/19 20/43/19
f 6/39/20 131/44/20 4/44/20
f 51/45/21 49/46/21 59/47/21
f 10/30/5 36/31/5 12/31/5
f 4/44/2 33/39/2 6/39/2
f 18/19/9 40/43/9 20/43/9
f 12/31/6 37/48/6 14/48/6
f 6/39/3 34/38/3 8/38/3
f 20/43/10 32/42/10 2/42/10
f 14/48/7 38/18/7 16/18/7
f 8/38/4 35/30/4 10/30/4
f 2/42/1 31/44/1 4/44/1
f 57/49/21 48/50/21 47/51/21
f 54/52/21 45/53/21 44/54/21
f 51/45/21 42/55/21 41/56/21
f 60/57/21 48/50/21 58/58/21
f 56/59/21 45/53/21 55/60/21
f 52/61/21 43/62/21 42/55/21
f 60/57/21 49/63/21 50/64/21
f 56/59/21 47/51/21 46/65/21
f 47/66/22 115/67/22 46/68/22
f 65/69/6 54/52/6 64/70/6
f 62/71/9 51/45/9 61/72/9
f 70/73/2 58/58/2 68/74/2
f 65/69/5 56/59/5 55/60/5
f 63/75/8 52/61/8 62/71/8
f 69/76/1 60/57/1 70/73/1
f 67/77/4 56/59/4 66/78/4
f 64/70/7 53/79/7 63/75/7
f 61/72/10 59/47/10 69/80/10
f 54/52/21 43/62/21 53/79/21
f 72/81/23 61/72/23 71/82/23
f 80/83/24 68/74/24 78/84/24
f 76/85/25 65/69/25 75/86/25
f 73/87/26 62/71/26 72/81/26
f 79/88/27 70/73/27 80/83/27
f 77/89/28 66/78/28 76/85/28
f 74/90/29 63/75/29 73/87/29
f 79/91/30 61/72/30 69/80/30
f 78/84/31 67/77/31 77/89/31
f 68/74/3 57/49/3 67/77/3
f 81/92/32 79/91/32 89/93/32
f 88/94/33 77/89/33 87/95/33
f 85/96/34 74/90/34 84/97/34
f 81/92/35 72/81/35 71/82/35
f 90/98/36 78/84/36 88/94/36
f 86/99/37 75/86/37 85/96/37
f 83/100/38 72/81/38 82/101/38
f 89/102/39 80/83/39 90/98/39
f 87/95/40 76/85/40 86/99/40
f 75/86/41 64/70/41 74/90/41
f 93/103/42 82/104/42 92/105/42
f 99/106/43 90/107/43 100/108/43
f 97/109/44 86/110/44 96/111/44
f 94/112/45 83/113/45 93/103/45
f 99/106/46 81/114/46 89/115/46
f 97/109/47 88/116/47 87/117/47
f 95/118/48 84/119/48 94/112/48
f 92/105/49 81/114/49 91/120/49
f 100/108/50 88/116/50 98/121/50
f 83/100/51 74/90/51 73/87/51
f 96/111/52 85/122/52 95/118/52
f 35/30/10 106/31/10 36/31/10
f 38/18/3 109/19/3 39/19/3
f 32/42/6 101/44/6 31/44/6
f 34/38/9 105/30/9 35/30/9
f 37/48/2 108/18/2 38/18/2
f 40/43/5 102/42/5 32/42/5
f 33/39/8 104/38/8 34/38/8
f 36/31/1 107/48/1 37/48/1
f 39/19/4 110/43/4 40/43/4
f 31/44/7 103/39/7 33/39/7
f 102/123/1 100/124/1 101/124/1
f 104/125/4 96/126/4 105/126/4
f 107/127/7 93/128/7 108/128/7
f 102/123/10 91/129/10 99/123/10
f 103/130/3 97/125/3 104/125/3
f 106/131/6 94/127/6 107/127/6
f 109/132/9 91/129/9 110/129/9
f 101/124/2 98/130/2 103/130/2
f 105/126/5 95/131/5 106/131/5
f 108/128/8 92/132/8 109/132/8
f 119/19/21 115/30/21 113/39/21
f 49/133/53 111/134/53 50/135/53
f 43/136/54 119/137/54 42/138/54
f 46/68/55 116/139/55 45/140/55
f 50/135/56 113/141/56 48/142/56
f 41/143/57 119/137/57 120/144/57
f 45/140/58 117/145/58 44/146/58
f 47/66/59 113/141/59 114/147/59
f 49/133/60 120/144/60 112/148/60
f 44/146/61 118/149/61 43/150/61
f 131/44/21 122/151/21 132/42/21
f 133/39/21 121/152/21 131/44/21
f 134/38/21 123/153/21 133/39/21
f 134/38/21 125/154/21 124/155/21
f 136/31/21 125/154/21 135/30/21
f 136/31/21 127/156/21 126/157/21
f 137/48/21 128/158/21 127/156/21
f 139/19/21 128/158/21 138/18/21
f 140/43/21 129/159/21 139/19/21
f 132/42/21 130/160/21 140/43/21
f 12/31/62 137/48/62 136/31/62
f 16/18/63 137/48/63 14/48/63
f 25/37/64 126/161/64 26/40/64
f 30/34/65 122/162/65 22/163/65
f 18/19/66 138/18/66 16/18/66
f 2/42/67 131/44/67 132/42/67
f 23/29/68 124/164/68 24/35/68
f 28/26/69 129/165/69 29/32/69
f 20/43/70 139/19/70 18/19/70
f 22/166/71 121/167/71 21/27/71
f 22/1/1 21/4/1 3/2/1
f 21/4/2 23/6/2 5/5/2
f 23/6/3 24/8/3 7/7/3
f 24/8/4 25/10/4 9/9/4
f 25/10/5 26/12/5 11/11/5
f 26/12/6 27/14/6 13/13/6
f 27/14/7 28/16/7 15/15/7
f 28/16/8 29/20/8 17/17/8
f 16/18/8 38/18/8 39/19/8
f 29/20/9 30/22/9 19/21/9
f 30/22/10 22/168/10 1/23/10
f 27/24/11 127/41/11 128/25/11
f 21/27/12 121/167/12 123/28/12
f 10/30/13 12/31/13 136/31/13
f 29/32/14 129/165/14 130/33/14
f 24/35/15 124/164/15 125/36/15
f 10/30/16 135/30/16 134/38/16
f 8/38/17 134/38/17 133/39/17
f 26/40/18 126/161/18 127/41/18
f 2/42/19 132/42/19 140/43/19
f 6/39/20 133/39/20 131/44/20
f 51/45/21 41/56/21 49/46/21
f 10/30/5 35/30/5 36/31/5
f 4/44/2 31/44/2 33/39/2
f 18/19/9 39/19/9 40/43/9
f 12/31/6 36/31/6 37/48/6
f 6/39/3 33/39/3 34/38/3
f 20/43/10 40/43/10 32/42/10
f 14/48/7 37/48/7 38/18/7
f 8/38/4 34/38/4 35/30/4
f 2/42/1 32/42/1 31/44/1
f 57/49/21 58/58/21 48/50/21
f 54/52/21 55/60/21 45/53/21
f 51/45/21 52/61/21 42/55/21
f 60/57/21 50/64/21 48/50/21
f 56/59/21 46/65/21 45/53/21
f 52/61/21 53/79/21 43/62/21
f 60/57/21 59/169/21 49/63/21
f 56/59/21 57/49/21 47/51/21
f 47/66/22 114/147/22 115/67/22
f 65/69/6 55/60/6 54/52/6
f 62/71/9 52/61/9 51/45/9
f 70/73/2 60/57/2 58/58/2
f 65/69/5 66/78/5 56/59/5
f 63/75/8 53/79/8 52/61/8
f 69/76/1 59/169/1 60/57/1
f 67/77/4 57/49/4 56/59/4
f 64/70/7 54/52/7 53/79/7
f 61/72/10 51/45/10 59/47/10
f 54/52/21 44/54/21 43/62/21
f 72/81/23 62/71/23 61/72/23
f 80/83/24 70/73/24 68/74/24
f 76/85/25 66/78/25 65/69/25
f 73/87/26 63/75/26 62/71/26
f 79/88/27 69/76/27 70/73/27
f 77/89/28 67/77/28 66/78/28
f 74/90/29 64/70/29 63/75/29
f 79/91/30 71/82/30 61/72/30
f 78/84/31 68/74/31 67/77/31
f 68/74/3 58/58/3 57/49/3
f 81/92/32 71/82/32 79/91/32
f 88/94/33 78/84/33 77/89/33
f 85/96/34 75/86/34 74/90/34
f 81/92/35 82/101/35 72/81/35
f 90/98/36 80/83/36 78/84/36
f 86/99/37 76/85/37 75/86/37
f 83/100/38 73/87/38 72/81/38
f 89/102/39 79/88/39 80/83/39
f 87/95/40 77/89/40 76/85/40
f 75/86/41 65/69/41 64/70/41
f 93/103/42 83/113/42 82/104/42
f 99/106/43 89/115/43 90/107/43
f 97/109/44 87/117/44 86/110/44
f 94/112/45 84/119/45 83/113/45
f 99/106/46 91/120/46 81/114/46
f 97/109/47 98/121/47 88/116/47
f 95/118/48 85/122/48 84/119/48
f 92/105/49 82/104/49 81/114/49
f 100/108/50 90/107/50 88/116/50
f 83/100/51 84/97/51 74/90/51
f 96/111/52 86/110/52 85/122/52
f 35/30/10 105/30/10 106/31/10
f 38/18/3 108/18/3 109/19/3
f 32/42/6 102/42/6 101/44/6
f 34/38/9 104/38/9 105/30/9
f 37/48/2 107/48/2 108/18/2
f 40/43/5 110/43/5 102/42/5
f 33/39/8 103/39/8 104/38/8
f 36/31/1 106/31/1 107/48/1
f 39/19/4 109/19/4 110/43/4
f 31/44/7 101/44/7 103/39/7
f 102/123/1 99/123/1 100/124/1
f 104/125/4 97/125/4 96/126/4
f 107/127/7 94/127/7 93/128/7
f 102/123/10 110/129/10 91/129/10
f 103/130/3 98/130/3 97/125/3
f 106/131/6 95/131/6 94/127/6
f 109/132/9 92/132/9 91/129/9
f 101/124/2 100/124/2 98/130/2
f 105/126/5 96/126/5 95/131/5
f 108/128/8 93/128/8 92/132/8
f 113/39/72 111/44/72 112/42/72
f 112/42/21 120/43/21 119/19/21
f 119/19/73 118/18/73 117/48/73
f 117/48/21 116/31/21 115/30/21
f 115/30/74 114/38/74 113/39/74
f 113/39/21 112/42/21 119/19/21
f 119/19/21 117/48/21 115/30/21
f 49/133/53 112/148/53 111/134/53
f 43/136/54 118/170/54 119/137/54
f 46/68/55 115/67/55 116/139/55
f 50/135/56 111/134/56 113/141/56
f 41/143/57 42/138/57 119/137/57
f 45/140/58 116/139/58 117/145/58
f 47/66/59 48/142/59 113/141/59
f 49/133/60 41/143/60 120/144/60
f 44/146/61 117/145/61 118/149/61
f 131/44/21 121/152/21 122/151/21
f 133/39/21 123/153/21 121/152/21
f 134/38/21 124/155/21 123/153/21
f 134/38/21 135/30/21 125/154/21
f 136/31/21 126/157/21 125/154/21
f 136/31/21 137/48/21 127/156/21
f 137/48/21 138/18/21 128/158/21
f 139/19/21 129/159/21 128/158/21
f 140/43/21 130/160/21 129/159/21
f 132/42/21 122/151/21 130/160/21
f 12/31/62 14/48/62 137/48/62
f 16/18/63 138/18/63 137/48/63
f 25/37/64 125/36/64 126/161/64
f 30/34/65 130/33/65 122/162/65
f 18/19/66 139/19/66 138/18/66
f 2/42/67 4/44/67 131/44/67
f 23/29/68 123/28/68 124/164/68
f 28/26/69 128/25/69 129/165/69
f 20/43/70 140/43/70 139/19/70
f 22/166/71 122/171/71 121/167/71
