# Blender 4.3.2
# www.blender.org
mtllib car.mtl
o Cube
v -5.346772 0.359699 2.512187
v -5.346772 -0.325241 2.512187
v -5.346773 0.359699 -2.512185
v -5.346773 -0.325241 -2.512185
v 6.225911 0.556799 2.512185
v 5.423558 -1.000000 2.512185
v 6.225911 0.556799 -2.512187
v 5.423558 -1.000000 -2.512187
v -2.978329 -1.000000 2.512186
v -2.978330 1.000000 -2.512186
v -2.978330 -1.000000 -2.512186
v -2.978329 1.000000 2.512186
v 2.723676 -1.000000 2.512186
v 2.688114 1.047981 -2.355209
v 2.723675 -1.000000 -2.512186
v 2.688116 1.047981 2.355208
v 1.662849 2.431334 1.451786
v -1.881941 2.479315 1.546094
v -1.881942 2.479315 -1.546094
v 1.662848 2.431334 -1.451786
v -5.860551 -0.131925 2.753413
v 6.155778 -0.641321 -2.753413
v -5.860553 -0.131925 -2.753412
v 6.155778 -0.641321 2.753412
v -3.264685 -0.524325 2.753412
v -3.264686 -0.524325 -2.753412
v 2.984842 -0.524325 2.753412
v 2.984840 -0.524325 -2.753412
v 5.793582 -0.282045 -2.512187
v -5.346772 -0.009365 2.512187
v -5.346773 -0.009365 -2.512185
v 5.793582 -0.282045 2.512185
v -2.978329 -0.077653 2.512186
v -2.978330 -0.077653 -2.512186
v 2.723676 -0.077653 2.512186
v 2.723675 -0.077653 -2.512186
v 5.433233 -0.841656 2.512185
v 5.433233 -0.841656 -2.512187
v 2.733351 -0.841656 2.512186
v -2.968655 -0.841656 -2.512186
v -5.337098 -0.166897 -2.512185
v -5.337097 -0.166897 2.512187
v -2.968654 -0.841656 2.512186
v 2.733350 -0.841656 -2.512186
v 2.723676 1.000000 2.512186
v 2.723675 1.000000 -2.512186
v 1.627288 2.479315 1.546094
v 1.627287 2.479315 -1.546094
v 2.538278 1.047981 2.355208
v 2.538277 1.047981 -2.355209
v 1.513011 2.431334 1.451786
v 1.513011 2.431334 -1.451786
v -0.408329 -1.000000 -2.512186
v -0.408328 1.000000 2.512186
v -0.408328 -1.000000 2.512186
v -0.408329 1.000000 -2.512186
v -0.300266 2.479315 1.546094
v -0.300266 2.479315 -1.546094
v -0.447907 -0.524325 -2.753412
v -0.447906 -0.524325 2.753412
v -0.408329 -0.077653 -2.512186
v -0.408328 -0.077653 2.512186
v -0.398654 -0.841656 -2.512186
v -0.398653 -0.841656 2.512186
v -0.155915 -1.000000 2.512186
v -0.155917 1.000000 -2.512186
v -0.144922 2.479315 -1.546094
v -0.171258 -0.524325 -2.753412
v -0.155917 -0.077653 -2.512186
v -0.146240 -0.841656 2.512186
v -0.155917 -1.000000 -2.512186
v -0.155916 1.000000 2.512186
v -0.144921 2.479315 1.546094
v -0.171256 -0.524325 2.753412
v -0.155916 -0.077653 2.512186
v -0.146242 -0.841656 -2.512186
v -1.921412 2.426060 -1.580873
v 1.666757 2.426060 -1.580873
v -1.921411 2.426060 1.580873
v 1.666757 2.426060 1.580873
v 1.699757 2.381534 -1.484309
v 1.699758 2.381534 1.484308
v 1.549920 2.381534 -1.484309
v 1.549920 2.381534 1.484308
v -0.304156 2.426060 1.580873
v -0.304157 2.426060 -1.580873
v -0.145318 2.426060 -1.580873
v -0.145317 2.426060 1.580873
v 2.661875 1.083385 -2.457730
v 2.630323 1.125956 -2.304286
v 2.480486 1.125956 -2.304286
v -2.916530 1.083385 -2.457730
v -2.916529 1.083385 2.457730
v 2.661876 1.083385 2.457730
v 2.630324 1.125956 2.304285
v 2.480487 1.125956 2.304285
v -0.402237 1.083385 2.457730
v -0.402238 1.083385 -2.457730
v -0.155297 1.083385 -2.457730
v -0.155296 1.083385 2.457730
v 2.588979 -1.000000 2.512186
v 2.588978 1.000000 -2.512186
v 1.544389 2.479315 -1.546094
v 2.837209 -0.524325 -2.753412
v 2.588978 -0.077653 -2.512186
v 2.598654 -0.841656 2.512186
v 2.588978 -1.000000 -2.512186
v 2.588979 1.000000 2.512186
v 1.544390 2.479315 1.546094
v 2.837210 -0.524325 2.753412
v 2.588979 -0.077653 2.512186
v 2.598653 -0.841656 -2.512186
v 1.581994 2.426060 -1.580873
v 1.581995 2.426060 1.580873
v 2.530098 1.083385 2.457730
v 2.530097 1.083385 -2.457730
v -2.844301 -1.000000 -2.512186
v -2.844300 1.000000 2.512186
v -1.799454 2.479315 1.546094
v -3.117786 -0.524325 2.753412
v -2.844300 -0.077653 2.512186
v -2.834626 -0.841656 -2.512186
v -2.844300 -1.000000 2.512186
v -2.844301 1.000000 -2.512186
v -1.799455 2.479315 -1.546094
v -3.117787 -0.524325 -2.753412
v -2.844301 -0.077653 -2.512186
v -2.834625 -0.841656 2.512186
v -1.837069 2.426060 1.580873
v -1.837069 2.426060 -1.580873
v -2.785406 1.083385 -2.457730
v -2.785405 1.083385 2.457730
v -0.155296 1.083385 2.427730
v -0.145317 2.426060 1.550873
v 1.581995 2.426060 1.550873
v 2.530098 1.083385 2.427730
v -0.402237 1.083385 2.427730
v -0.304156 2.426060 1.550873
v -1.837069 2.426060 1.550873
v -2.785405 1.083385 2.427730
v -0.155297 1.083385 -2.427730
v -0.145318 2.426060 -1.550873
v 1.581994 2.426060 -1.550873
v 2.530097 1.083385 -2.427730
v -0.402238 1.083385 -2.427730
v -0.304157 2.426060 -1.550873
v -1.837069 2.426060 -1.550873
v -2.785406 1.083385 -2.427730
v 5.423558 -1.000000 -2.426334
v -5.346773 0.359699 -2.426332
v 6.225911 0.556799 -2.426334
v -5.346773 -0.325241 -2.426332
v -2.978330 1.000000 -2.426333
v 2.723675 1.000000 -2.426333
v -1.881942 2.479315 -1.493257
v 1.627287 2.479315 -1.493257
v -5.860553 -0.131925 -2.659315
v 6.155778 -0.641321 -2.659316
v -5.346773 -0.009365 -2.426332
v 5.793582 -0.282045 -2.426334
v 5.433233 -0.841656 -2.426334
v -5.337098 -0.166897 -2.426332
v -2.968655 -0.841656 -2.426333
v 2.733350 -0.841656 -2.426333
v 2.688114 1.047981 -2.274721
v 1.662848 2.431334 -1.402172
v 2.538277 1.047981 -2.274721
v 1.513011 2.431334 -1.402172
v -0.398654 -0.841656 -2.426333
v -0.300266 2.479315 -1.493257
v -0.146242 -0.841656 -2.426333
v -0.144922 2.479315 -1.493257
v 1.549920 2.381534 -1.433584
v -1.921412 2.426060 -1.526847
v -2.916530 1.083385 -2.373738
v 2.480486 1.125956 -2.225538
v 2.598653 -0.841656 -2.426333
v 1.544389 2.479315 -1.493257
v -1.799455 2.479315 -1.493257
v -2.834626 -0.841656 -2.426333
v 6.225911 0.556799 2.420807
v -5.346772 -0.325241 2.420808
v 6.155778 -0.641321 2.653258
v 5.793582 -0.282045 2.420807
v -5.337097 -0.166897 2.420808
v 1.549920 2.381534 1.430318
v 2.480487 1.125956 2.220469
v 5.423558 -1.000000 2.420807
v -5.346772 0.359699 2.420808
v -2.978329 1.000000 2.420807
v 2.723676 1.000000 2.420807
v -1.881941 2.479315 1.489856
v 1.627288 2.479315 1.489856
v -5.860551 -0.131925 2.653260
v -5.346772 -0.009365 2.420808
v 5.433233 -0.841656 2.420807
v -2.968654 -0.841656 2.420807
v 2.733351 -0.841656 2.420807
v 2.688116 1.047981 2.269540
v 1.662849 2.431334 1.398978
v 2.538278 1.047981 2.269540
v 1.513011 2.431334 1.398978
v -0.398653 -0.841656 2.420807
v -0.300266 2.479315 1.489856
v -0.146240 -0.841656 2.420807
v -0.144921 2.479315 1.489856
v -1.921411 2.426060 1.523370
v -2.916529 1.083385 2.368332
v 2.598654 -0.841656 2.420807
v 1.544390 2.479315 1.489856
v -1.799454 2.479315 1.489856
v -2.834625 -0.841656 2.420807
v -1.891411 2.426060 1.523370
v -1.891412 2.426060 -1.526847
v -2.886529 1.083385 2.368332
v -2.886530 1.083385 -2.373738
v 6.009747 0.137377 -2.426334
v 6.475911 0.556799 -0.002764
v 5.793582 -0.282045 -0.002764
v 6.009747 0.137377 2.420807
v 5.901664 -0.072334 -2.426334
v 6.475911 0.556799 1.209022
v 5.793582 -0.282045 1.209022
v 5.901664 -0.072334 2.420807
v 6.117829 0.347088 -2.426334
v 6.475911 0.556799 -1.214549
v 5.793582 -0.282045 -1.214549
v 6.117829 0.347088 2.420807
v 6.367829 0.347088 -0.002764
v 6.367829 0.347088 -1.214549
v 6.367829 0.347088 1.209022
v -2.783402 0.973059 -2.537185
v -0.469229 0.973059 -2.537186
v -2.783402 -0.050711 -2.537185
v -0.469229 -0.050711 -2.537186
v -0.087294 0.973059 -2.537186
v -0.087294 -0.050711 -2.537186
v 2.520355 0.973059 -2.537186
v 2.520355 -0.050711 -2.537186
v -0.469227 0.973059 2.537186
v -0.469227 -0.050711 2.537186
v -2.783400 0.973059 2.537186
v -2.783400 -0.050711 2.537186
v 2.520357 0.973059 2.537185
v -0.087293 0.973059 2.537186
v 2.520357 -0.050711 2.537185
v -0.087293 -0.050711 2.537186
v 2.724869 0.999929 2.420807
v 2.724868 0.999929 -2.426333
v 6.227104 0.566728 -2.426334
v 6.477104 0.566728 1.209022
v 6.227104 0.566728 2.420807
v 6.477104 0.566728 -1.214549
v 6.477104 0.566728 -0.002764
vn 0.1255 0.9921 -0.0000
vn -0.0000 -0.0000 -1.0000
vn 0.8889 -0.4581 -0.0000
vn 0.9981 -0.0610 -0.0000
vn -1.0000 -0.0000 -0.0000
vn -0.0000 -0.0000 1.0000
vn -0.9981 0.0610 -0.0000
vn -0.2610 0.9653 -0.0000
vn -0.0000 0.5468 -0.8373
vn -0.0000 1.0000 -0.0000
vn -0.8034 0.5954 -0.0000
vn -0.0000 0.5468 0.8373
vn -0.0000 -0.5468 0.8373
vn -0.0000 -0.4523 -0.8919
vn -0.0098 -0.4918 0.8707
vn -0.1481 -0.6889 -0.7096
vn -0.0000 -0.4523 0.8919
vn -0.1481 -0.6889 0.7096
vn -0.3522 -0.9359 -0.0000
vn 0.4399 -0.8980 -0.0000
vn -0.0098 -0.4918 -0.8707
vn -0.0000 0.4752 -0.8799
vn 0.0272 0.5289 0.8483
vn 0.0556 0.5989 -0.7989
vn -0.0000 0.4752 0.8799
vn 0.0556 0.5989 0.7989
vn -0.2320 0.9727 -0.0000
vn 0.7042 0.7100 -0.0000
vn 0.0272 0.5289 -0.8483
vn -0.2740 -0.9617 -0.0000
vn -0.0000 -1.0000 -0.0000
vn 0.8034 0.5954 -0.0000
vn -0.0000 -0.5468 -0.8373
vn -0.0000 -0.6802 -0.7330
vn -0.3423 -0.0000 0.9396
vn 1.0000 -0.0074 -0.0000
vn 0.3423 -0.0000 -0.9396
vn -0.9973 0.0729 -0.0000
vn -0.3798 -0.0000 0.9251
vn -0.8169 -0.5768 -0.0000
vn 0.8168 -0.5769 -0.0000
vn 0.9929 -0.1193 -0.0000
vn 0.8743 -0.4506 0.1804
vn -0.0000 -0.5326 -0.8464
vn -0.0000 -0.5335 0.8458
vn 0.8743 -0.4506 -0.1804
vn 0.7758 -0.6310 -0.0000
vn 0.3798 -0.0000 -0.9251
vn -0.3798 -0.0000 -0.9251
vn -0.0000 0.6802 -0.7330
vn -0.3423 -0.0000 -0.9396
vn 0.3798 -0.0000 0.9251
vn -0.0000 0.6802 0.7330
vn -0.0000 -0.6802 0.7330
vn 0.3423 -0.0000 0.9396
vn 0.1166 0.9932 -0.0000
vn 0.0598 0.9982 -0.0000
vn 0.9727 -0.1168 -0.2007
vn 0.9727 -0.1168 0.2007
vt 0.349026 0.452984
vt 0.349026 0.535983
vt 0.347327 0.535983
vt 0.347327 0.452984
vt 0.668127 0.449996
vt 0.681598 0.449996
vt 0.681598 0.456263
vt 0.668127 0.456263
vt 0.490293 0.245453
vt 0.523970 0.245453
vt 0.557647 0.245453
vt 0.591323 0.245453
vt 0.625000 0.245453
vt 0.625000 0.250000
vt 0.490293 0.250000
vt 0.304727 0.285370
vt 0.302734 0.285370
vt 0.668521 0.458845
vt 0.681991 0.458845
vt 0.681991 0.459272
vt 0.668521 0.459272
vt 0.668389 0.455108
vt 0.681860 0.455108
vt 0.681991 0.434272
vt 0.668521 0.434272
vt 0.668389 0.454797
vt 0.681860 0.454797
vt 0.304270 0.285261
vt 0.302149 0.285261
vt 0.681598 0.436761
vt 0.668127 0.436761
vt 0.674370 0.458606
vt 0.674370 0.459033
vt 0.332612 0.285478
vt 0.303377 0.285478
vt 0.668389 0.435606
vt 0.681860 0.435606
vt 0.681860 0.441872
vt 0.668389 0.441872
vt 0.668127 0.449684
vt 0.681598 0.449684
vt 0.681598 0.437072
vt 0.629094 0.520771
vt 0.629094 0.525007
vt 0.627356 0.525007
vt 0.627356 0.520771
vt 0.674370 0.434488
vt 0.674370 0.434033
vt 0.681860 0.442185
vt 0.350890 0.452984
vt 0.350924 0.452984
vt 0.350890 0.452984
vt 0.334071 0.285478
vt 0.334071 0.293412
vt 0.332612 0.293412
vt 0.302149 0.293195
vt 0.414056 0.293412
vt 0.414056 0.285478
vt 0.302734 0.293303
vt 0.333263 0.293303
vt 0.333263 0.285370
vt 0.333401 0.285478
vt 0.333401 0.293412
vt 0.331950 0.293412
vt 0.331950 0.285478
vt 0.419357 0.293303
vt 0.419357 0.285370
vt 0.304727 0.293303
vt 0.304270 0.293195
vt 0.303377 0.293412
vt 0.334071 0.285345
vt 0.332612 0.285345
vt 0.302149 0.285127
vt 0.414056 0.285345
vt 0.302734 0.285236
vt 0.333264 0.285236
vt 0.333401 0.285345
vt 0.331950 0.285345
vt 0.419357 0.285236
vt 0.304727 0.285236
vt 0.304270 0.285127
vt 0.303377 0.285345
vt 0.302620 0.293451
vt 0.300627 0.293451
vt 0.302620 0.293041
vt 0.300627 0.293041
vt 0.303322 0.284927
vt 0.303322 0.293184
vt 0.301329 0.293184
vt 0.301329 0.284927
vt 0.334071 0.285478
vt 0.354582 0.467486
vt 0.354582 0.463182
vt 0.354582 0.456494
vt 0.354582 0.461041
vt 0.352500 0.452984
vt 0.350040 0.452984
vt 0.349987 0.452984
vt 0.443195 0.452984
vt 0.443161 0.452983
vt 0.446758 0.452984
vt 0.635907 0.778326
vt 0.635907 0.778722
vt 0.635907 0.778714
vt 0.635907 0.778318
vt 0.351595 0.452984
vt 0.351595 0.452984
vt 0.635907 0.755300
vt 0.635907 0.755287
vt 0.635907 0.755944
vt 0.635907 0.755523
vt 0.331812 0.285370
vt 0.305435 0.285370
vt 0.331812 0.285370
vt 0.382875 0.285478
vt 0.380142 0.285478
vt 0.302620 0.284819
vt 0.302620 0.285591
vt 0.300627 0.285591
vt 0.300627 0.284819
vt 0.382875 0.293412
vt 0.382875 0.285345
vt 0.380142 0.285345
vt 0.380142 0.293412
vt 0.331812 0.293303
vt 0.331812 0.285236
vt 0.305435 0.285236
vt 0.305435 0.293303
vt 0.681860 0.449142
vt 0.629094 0.349921
vt 0.629094 0.426520
vt 0.627356 0.426520
vt 0.627356 0.349921
vt 0.681598 0.443312
vt 0.681598 0.442726
vt 0.490293 0.864631
vt 0.490293 0.808087
vt 0.668389 0.448557
vt 0.681860 0.448557
vt 0.668389 0.449142
vt 0.412597 0.285478
vt 0.412597 0.293412
vt 0.412597 0.285345
vt 0.303322 0.293596
vt 0.301329 0.293596
vt 0.302702 0.285370
vt 0.302702 0.285370
vt 0.302702 0.285236
vt 0.302702 0.293303
vt 0.681860 0.448557
vt 0.629094 0.434457
vt 0.627356 0.434457
vt 0.668127 0.442726
vt 0.668127 0.443312
vt 0.625000 0.385369
vt 0.625000 0.441913
vt 0.635907 0.755514
vt 0.635907 0.778532
vt 0.635907 0.778936
vt 0.444045 0.452984
vt 0.350040 0.452984
vt 0.444098 0.452984
vt 0.635907 0.778545
vt 0.635907 0.778949
vt 0.625000 0.379510
vt 0.625000 0.379510
vt 0.328288 0.435985
vt 0.328288 0.432858
vt 0.328288 0.432858
vt 0.668389 0.442185
vt 0.625000 0.445024
vt 0.625000 0.441913
vt 0.625000 0.441913
vt 0.668127 0.437072
vt 0.629094 0.345706
vt 0.627356 0.345706
vt 0.635689 0.773955
vt 0.635689 0.758650
vt 0.625000 0.315796
vt 0.625000 0.315796
vt 0.635689 0.765954
vt 0.635689 0.775363
vt 0.625000 0.385369
vt 0.636350 0.762998
vt 0.636453 0.771365
vt 0.636453 0.763678
vt 0.636453 0.769957
vt 0.636453 0.756374
vt 0.412655 0.354833
vt 0.412655 0.362283
vt 0.300145 0.362283
vt 0.300145 0.354833
vt 0.727212 0.345706
vt 0.727212 0.349921
vt 0.731273 0.430885
vt 0.731273 0.524344
vt 0.625033 0.524344
vt 0.625033 0.430885
vt 0.413357 0.362426
vt 0.413357 0.362838
vt 0.300847 0.362838
vt 0.300847 0.362426
vt 0.635907 0.755717
vt 0.635907 0.755730
vt 0.635907 0.755936
vt 0.727212 0.426520
vt 0.727212 0.434457
vt 0.412655 0.354061
vt 0.300145 0.354061
vt 0.812331 0.740956
vt 0.812331 0.736993
vt 0.812331 0.736993
vt 0.442386 0.452984
vt 0.442386 0.452984
vt 0.441483 0.452983
vt 0.444949 0.452984
vt 0.413357 0.354169
vt 0.300847 0.354169
vt 0.412655 0.362693
vt 0.300145 0.362693
vt 0.414761 0.354612
vt 0.302252 0.354612
vt 0.418773 0.293195
vt 0.418773 0.285127
vt 0.416780 0.285127
vt 0.416780 0.293195
vt 0.417236 0.293303
vt 0.417236 0.285236
vt 0.418773 0.285261
vt 0.416780 0.285261
vt 0.417236 0.285370
vt 0.727212 0.520771
vt 0.727212 0.525007
vt 0.680492 0.440805
vt 0.680492 0.450837
vt 0.669374 0.450119
vt 0.669374 0.440087
vt 0.416780 0.285261
vt 0.668521 0.434727
vt 0.681991 0.434727
vt 0.490293 0.000000
vt 0.625000 0.000000
vt 0.625000 0.004272
vt 0.591323 0.004272
vt 0.557647 0.004272
vt 0.523970 0.004272
vt 0.490293 0.004272
vt 0.672939 0.445834
vt 0.672939 0.439804
vt 0.446758 0.535983
vt 0.444949 0.535983
vt 0.729062 0.520771
vt 0.729062 0.525007
vt 0.417251 0.293451
vt 0.415130 0.293451
vt 0.417251 0.293041
vt 0.415130 0.293041
vt 0.417953 0.284927
vt 0.417953 0.293184
vt 0.415832 0.293184
vt 0.415832 0.284927
vt 0.417251 0.284819
vt 0.417251 0.285591
vt 0.415130 0.285591
vt 0.415130 0.284819
vt 0.729062 0.349921
vt 0.729062 0.426520
vt 0.417953 0.293596
vt 0.415832 0.293596
vt 0.729062 0.434457
vt 0.729062 0.345706
vt 0.679976 0.504547
vt 0.679976 0.745728
vt 0.388653 0.285127
vt 0.360525 0.285127
vt 0.332398 0.285127
vt 0.617556 0.604245
vt 0.617556 0.534177
vt 0.655230 0.534177
vt 0.655230 0.604245
vt 0.636017 0.779817
vt 0.636017 0.766962
vt 0.669572 0.439804
vt 0.669572 0.445834
vt 0.641383 0.528077
vt 0.655943 0.583489
vt 0.626150 0.609559
vt 0.611589 0.554147
vt 0.672939 0.445639
vt 0.669572 0.445639
vt 0.436122 0.358854
vt 0.436122 0.370285
vt 0.436122 0.381716
vt 0.436122 0.393148
vt 0.401251 0.393148
vt 0.366378 0.393148
vt 0.331506 0.393148
vt 0.296634 0.393148
vt 0.296634 0.381716
vt 0.296634 0.370285
vt 0.296634 0.358854
vt 0.331506 0.358854
vt 0.366378 0.358854
vt 0.401251 0.358854
vt 0.490293 0.934204
vt 0.490293 0.870490
vt 0.490293 0.441913
vt 0.490293 0.385369
vt 0.490293 0.379510
vt 0.490293 0.315796
vt 0.448080 0.451859
vt 0.448080 0.535642
vt 0.423873 0.535642
vt 0.399665 0.535642
vt 0.375458 0.535642
vt 0.351251 0.535642
vt 0.351251 0.451859
vt 0.625000 0.064567
vt 0.625000 0.185158
s 0
usemtl Material
f 154/1/1 151/2/1 7/3/1 46/4/1
f 36/5/2 46/6/2 7/7/2 29/8/2
f 184/9/3 224/10/3 220/11/3 228/12/3 181/13/3 5/14/3 32/15/3
f 152/16/4 4/17/4 41/17/4 162/16/4
f 159/18/5 150/19/5 3/20/5 31/21/5
f 33/22/6 12/23/6 1/24/6 30/25/6
f 121/26/6 118/27/6 12/23/6 33/22/6
f 188/28/7 6/29/7 37/29/7 196/28/7
f 31/21/2 3/20/2 10/30/2 34/31/2
f 150/19/8 153/32/8 10/33/8 3/20/8
f 15/34/6 8/35/6 38/35/6 44/34/6
f 32/36/6 5/37/6 45/38/6 35/39/6
f 105/40/2 102/41/2 46/6/2 36/5/2
f 130/42/9 77/30/9 19/30/9 125/42/9
f 178/43/10 156/44/10 48/45/10 103/46/10
f 207/47/11 79/48/11 18/48/11 192/47/11
f 114/49/12 80/38/12 47/38/12 109/49/12
f 81/50/13 20/51/13 52/51/13 83/52/13
f 107/53/14 104/54/14 28/55/14 15/34/14
f 6/29/15 24/56/15 27/57/15 13/58/15
f 4/17/16 23/59/16 26/60/16 11/61/16
f 123/62/17 120/63/17 25/64/17 9/65/17
f 9/65/18 25/64/18 21/66/18 2/67/18
f 152/16/19 157/68/19 23/59/19 4/17/19
f 188/28/20 183/69/20 24/56/20 6/29/20
f 15/34/21 28/55/21 22/70/21 8/35/21
f 104/54/22 105/71/22 36/72/22 28/55/22
f 24/56/23 32/73/23 35/74/23 27/57/23
f 23/59/24 31/75/24 34/76/24 26/60/24
f 120/63/25 121/77/25 33/78/25 25/64/25
f 25/64/26 33/78/26 30/79/26 21/66/26
f 157/68/27 159/80/27 31/75/27 23/59/27
f 183/69/28 184/81/28 32/73/28 24/56/28
f 28/55/29 36/72/29 29/82/29 22/70/29
f 163/83/30 162/16/30 41/17/30 40/84/30
f 180/85/31 163/83/31 40/84/31 122/86/31
f 161/87/31 164/88/31 44/89/31 38/90/31
f 123/62/2 9/65/2 43/65/2 128/62/2
f 107/53/6 15/34/6 44/34/6 112/91/6
f 9/65/2 2/67/2 42/67/2 43/65/2
f 6/29/2 13/58/2 39/58/2 37/29/2
f 4/17/6 11/61/6 40/61/6 41/17/6
f 199/92/32 16/93/32 45/94/32 191/95/32
f 166/96/32 20/51/32 48/4/32 156/1/32
f 90/97/32 14/98/32 46/4/32 89/4/32
f 82/99/32 17/100/32 47/101/32 80/101/32
f 173/102/32 83/103/32 52/104/32 168/105/32
f 165/106/10 14/98/10 50/98/10 167/107/10
f 95/108/33 16/109/33 49/109/33 96/108/33
f 200/110/31 17/111/31 51/111/31 202/110/31
f 117/112/6 53/113/6 63/113/6 122/114/6
f 65/115/2 55/116/2 64/116/2 70/115/2
f 171/117/31 169/118/31 63/119/31 76/120/31
f 74/121/25 75/122/25 62/123/25 60/124/25
f 126/125/22 127/126/22 61/127/22 59/128/22
f 65/115/17 74/121/17 60/124/17 55/116/17
f 117/112/14 126/125/14 59/128/14 53/113/14
f 129/27/12 85/129/12 57/129/12 119/27/12
f 179/130/10 170/131/10 58/132/10 125/133/10
f 87/134/9 86/135/9 58/135/9 67/134/9
f 61/136/34 127/137/34 234/137/34 235/136/34
f 75/138/6 72/139/6 54/129/6 62/140/6
f 72/139/35 75/138/35 247/138/35 245/139/35
f 113/41/9 87/134/9 67/134/9 103/41/9
f 101/141/17 110/142/17 74/121/17 65/115/17
f 110/142/25 111/143/25 75/122/25 74/121/25
f 177/144/31 171/117/31 76/120/31 112/145/31
f 101/141/2 65/115/2 70/115/2 106/141/2
f 53/113/6 71/146/6 76/147/6 63/113/6
f 59/128/22 61/127/22 69/148/22 68/149/22
f 53/113/14 59/128/14 68/149/14 71/146/14
f 85/129/12 88/150/12 73/150/12 57/129/12
f 170/131/10 172/151/10 67/152/10 58/132/10
f 61/153/2 56/135/2 66/134/2 69/154/2
f 97/129/12 100/150/12 88/150/12 85/129/12
f 87/134/31 113/41/31 143/41/31 142/134/31
f 99/134/9 98/135/9 86/135/9 87/134/9
f 85/155/31 129/156/31 139/156/31 138/155/31
f 17/111/33 82/157/33 84/157/33 51/111/33
f 176/158/32 91/159/32 83/103/32 173/102/32
f 95/160/32 82/99/32 80/101/32 94/101/32
f 20/51/32 81/50/32 78/4/32 48/4/32
f 90/97/13 81/50/13 83/52/13 91/161/13
f 115/49/12 94/38/12 80/38/12 114/49/12
f 208/47/11 93/48/11 79/48/11 207/47/11
f 131/42/9 92/30/9 77/30/9 130/42/9
f 124/42/9 10/30/9 92/30/9 131/42/9
f 190/47/11 12/48/11 93/48/11 208/47/11
f 108/49/12 45/38/12 94/38/12 115/49/12
f 14/98/13 90/97/13 91/161/13 50/98/13
f 16/162/32 95/160/32 94/101/32 45/101/32
f 167/163/32 50/164/32 91/159/32 176/158/32
f 118/27/12 54/129/12 97/129/12 132/27/12
f 66/134/9 56/135/9 98/135/9 99/134/9
f 102/41/9 66/134/9 99/134/9 116/41/9
f 54/129/12 72/139/12 100/150/12 97/129/12
f 82/157/33 95/108/33 96/108/33 84/157/33
f 81/50/32 90/97/32 89/4/32 78/4/32
f 46/6/9 102/41/9 116/41/9 89/6/9
f 72/139/12 108/49/12 115/49/12 100/150/12
f 88/165/36 100/166/36 133/166/36 134/165/36
f 89/167/9 116/168/9 113/169/9 78/167/9
f 13/58/2 101/141/2 106/141/2 39/58/2
f 164/88/31 177/144/31 112/145/31 44/89/31
f 27/57/25 35/74/25 111/143/25 110/142/25
f 13/58/17 27/57/17 110/142/17 101/141/17
f 78/6/9 113/41/9 103/41/9 48/6/9
f 35/39/6 45/38/6 108/49/6 111/170/6
f 71/146/6 107/53/6 112/91/6 76/147/6
f 68/149/22 69/148/22 105/71/22 104/54/22
f 71/146/14 68/149/14 104/54/14 107/53/14
f 88/150/12 114/49/12 109/49/12 73/150/12
f 172/151/10 178/43/10 103/46/10 67/152/10
f 102/41/37 105/40/37 239/40/37 238/41/37
f 12/171/12 118/172/12 132/173/12 93/171/12
f 56/135/9 124/42/9 131/42/9 98/135/9
f 86/135/38 98/135/38 145/135/38 146/135/38
f 93/23/12 132/27/12 129/27/12 79/23/12
f 34/31/2 10/30/2 124/42/2 127/174/2
f 155/175/10 179/130/10 125/133/10 19/176/10
f 79/23/12 129/27/12 119/27/12 18/23/12
f 11/61/14 26/60/14 126/125/14 117/112/14
f 26/60/22 34/76/22 127/126/22 126/125/22
f 11/61/6 117/112/6 122/114/6 40/61/6
f 55/116/2 123/62/2 128/62/2 64/116/2
f 169/118/31 180/85/31 122/86/31 63/119/31
f 60/124/25 62/123/25 121/77/25 120/63/25
f 55/116/17 60/124/17 120/63/17 123/62/17
f 86/135/9 130/42/9 125/42/9 58/135/9
f 118/27/39 121/26/39 243/26/39 242/27/39
f 133/177/12 136/178/12 135/178/12 134/177/12
f 115/179/40 114/180/40 135/180/40 136/179/40
f 100/166/10 115/179/10 136/179/10 133/166/10
f 114/180/31 88/165/31 134/165/31 135/180/31
f 140/181/12 137/182/12 138/182/12 139/181/12
f 129/156/41 132/173/41 140/173/41 139/156/41
f 132/173/10 97/183/10 137/183/10 140/173/10
f 97/183/38 85/155/38 138/155/38 137/183/38
f 144/184/9 141/185/9 142/185/9 143/186/9
f 113/41/40 116/41/40 144/41/40 143/41/40
f 99/134/36 87/134/36 142/134/36 141/134/36
f 116/41/10 99/134/10 141/134/10 144/41/10
f 145/187/9 148/188/9 147/188/9 146/187/9
f 98/135/10 131/42/10 148/42/10 145/135/10
f 130/42/31 86/135/31 146/135/31 147/42/31
f 131/42/41 130/42/41 147/42/41 148/42/41
f 203/189/31 212/190/31 180/191/31 169/192/31
f 192/193/10 211/194/10 179/130/10 155/175/10
f 206/195/10 210/196/10 178/197/10 172/198/10
f 198/199/31 209/200/31 177/201/31 164/202/31
f 201/203/32 167/163/32 176/158/32 187/204/32
f 10/33/11 153/32/11 175/32/11 92/33/11
f 92/33/11 175/32/11 174/32/11 77/33/11
f 187/204/32 176/158/32 173/102/32 186/205/32
f 204/206/10 206/207/10 172/151/10 170/131/10
f 209/200/31 205/208/31 171/209/31 177/201/31
f 211/194/10 204/206/10 170/131/10 179/130/10
f 205/208/31 203/189/31 169/192/31 171/209/31
f 20/210/31 166/211/31 168/212/31 52/210/31
f 199/213/10 165/106/10 167/107/10 201/214/10
f 186/205/32 173/102/32 168/105/32 202/110/32
f 200/215/32 166/96/32 156/1/32 193/216/32
f 14/98/32 165/106/32 154/1/32 46/4/32
f 196/217/31 198/199/31 164/202/31 161/218/31
f 212/190/31 197/219/31 163/220/31 180/191/31
f 197/219/30 185/221/30 162/222/30 163/220/30
f 22/223/28 29/224/28 160/225/28 158/226/28
f 194/227/27 195/228/27 159/80/27 157/68/27
f 8/229/20 22/223/20 158/226/20 149/230/20
f 182/231/19 194/227/19 157/68/19 152/16/19
f 77/33/11 174/32/11 155/32/11 19/33/11
f 210/232/10 193/233/10 156/44/10 178/43/10
f 189/234/8 190/235/8 153/236/8 150/237/8
f 8/229/7 149/230/7 161/238/7 38/229/7
f 195/239/5 189/240/5 150/19/5 159/18/5
f 182/231/4 152/16/4 162/16/4 185/231/4
f 29/241/3 7/242/3 151/243/3 225/244/3 217/245/3 221/246/3 160/247/3
f 218/248/42 226/249/42 253/249/42 254/248/42
f 45/101/1 5/250/1 181/251/1 191/216/1
f 2/67/4 182/231/4 185/231/4 42/67/4
f 30/25/5 1/24/5 189/240/5 195/239/5
f 1/24/8 12/48/8 190/47/8 189/240/8
f 109/252/10 47/253/10 193/233/10 210/232/10
f 2/67/19 21/66/19 194/227/19 182/231/19
f 21/66/27 30/79/27 195/228/27 194/227/27
f 43/254/30 42/67/30 185/231/30 197/255/30
f 128/256/31 43/254/31 197/255/31 212/257/31
f 37/258/31 39/259/31 198/260/31 196/261/31
f 17/100/32 200/215/32 193/216/32 47/101/32
f 84/157/32 186/205/32 202/110/32 51/111/32
f 16/162/10 199/213/10 201/214/10 49/162/10
f 70/262/31 64/263/31 203/264/31 205/265/31
f 119/266/10 57/267/10 204/206/10 211/194/10
f 106/268/31 70/262/31 205/265/31 209/269/31
f 57/267/10 73/270/10 206/207/10 204/206/10
f 96/108/32 187/204/32 186/205/32 84/157/32
f 49/109/32 201/203/32 187/204/32 96/108/32
f 39/259/31 106/268/31 209/269/31 198/260/31
f 73/270/10 109/252/10 210/232/10 206/207/10
f 18/271/10 119/266/10 211/194/10 192/193/10
f 64/263/31 128/256/31 212/257/31 203/264/31
f 153/32/11 190/47/11 208/47/11 175/32/11
f 207/272/31 174/273/31 214/273/31 213/272/31
f 166/105/31 200/110/31 202/110/31 168/105/31
f 165/106/32 199/213/32 191/216/32 154/1/32
f 158/226/28 160/225/28 227/274/28 219/275/28 223/276/28 184/81/28 183/69/28
f 149/230/20 158/226/20 183/69/20 188/28/20
f 174/32/11 207/47/11 192/47/11 155/32/11
f 149/230/7 188/28/7 196/28/7 161/238/7
f 231/277/43 222/278/43 181/279/43 228/280/43
f 216/281/11 215/282/11 213/282/11 214/281/11
f 208/272/44 207/272/44 213/272/44 215/272/44
f 175/32/10 208/47/10 215/47/10 216/32/10
f 174/273/45 175/273/45 216/273/45 214/273/45
f 230/283/3 226/249/3 218/248/3 229/284/3
f 225/285/46 151/286/46 226/287/46 230/288/46
f 229/284/3 218/248/3 222/289/3 231/290/3
f 160/291/47 221/292/47 217/293/47 225/294/47 230/295/47 229/296/47 231/297/47 228/298/47 220/299/47 224/300/47 184/301/47 223/302/47 219/303/47 227/304/47
f 234/174/2 232/42/2 233/135/2 235/153/2
f 56/135/48 61/153/48 235/153/48 233/135/48
f 127/174/49 124/42/49 232/42/49 234/174/49
f 124/42/50 56/135/50 233/135/50 232/42/50
f 237/154/2 236/134/2 238/41/2 239/40/2
f 66/134/50 102/41/50 238/41/50 236/134/50
f 69/154/51 66/134/51 236/134/51 237/154/51
f 105/305/34 69/306/34 237/306/34 239/305/34
f 241/140/6 240/129/6 242/27/6 243/26/6
f 62/140/52 54/129/52 240/129/52 241/140/52
f 54/129/53 118/27/53 242/27/53 240/129/53
f 121/307/54 62/308/54 241/308/54 243/307/54
f 246/170/6 244/49/6 245/139/6 247/138/6
f 75/309/54 111/310/54 246/310/54 247/309/54
f 111/170/55 108/49/55 244/49/55 246/170/55
f 108/49/53 72/139/53 245/139/53 244/49/53
f 248/311/56 252/312/56 251/313/56 254/314/56 253/315/56 250/316/56 249/317/56
f 154/1/57 191/216/57 248/216/57 249/1/57
f 151/2/2 154/1/2 249/1/2 250/2/2
f 191/216/6 181/251/6 252/251/6 248/216/6
f 226/318/58 151/243/58 250/243/58 253/318/58
f 222/289/42 218/248/42 254/248/42 251/289/42
f 181/13/59 222/319/59 251/319/59 252/13/59
