# Blender 4.2.3 LTS
# www.blender.org
mtllib goodtimes.mtl
o Cube
v 0.750000 0.500000 -1.000000
v 0.750000 0.000000 -1.000000
v 0.750000 0.500000 1.000000
v 0.750000 0.000000 1.000000
v -0.750000 0.500000 -1.000000
v -0.750000 0.000000 -1.000000
v -0.750000 0.500000 1.000000
v -0.750000 0.000000 1.000000
v 0.375000 0.000000 -1.000000
v 0.375000 0.500000 1.000000
v 0.375000 0.000000 1.000000
v 0.375000 0.500000 -1.000000
v -0.328125 0.000000 -1.000000
v -0.328125 0.500000 1.000000
v -0.328125 0.000000 1.000000
v -0.328125 0.500000 -1.000000
v -0.328125 2.250000 -1.000000
v 0.375000 2.250000 -1.000000
v 0.375000 2.250000 1.000000
v -0.328125 2.250000 1.000000
v -0.328125 2.500000 -0.850000
v 0.375000 2.500000 -0.850000
v 0.375000 2.500000 0.850000
v -0.328125 2.500000 0.850000
v -0.328125 2.625000 -0.425000
v 0.375000 2.625000 -0.425000
v 0.375000 2.625000 0.425000
v -0.328125 2.625000 0.425000
vn -0.0000 1.0000 -0.0000
vn -0.0000 -0.0000 1.0000
vn -1.0000 -0.0000 -0.0000
vn -0.0000 -1.0000 -0.0000
vn 1.0000 -0.0000 -0.0000
vn -0.0000 -0.0000 -1.0000
vn -0.0000 0.9594 0.2822
vn -0.0000 0.5145 0.8575
vn -0.0000 0.5145 -0.8575
vn -0.0000 0.9594 -0.2822
vt 0.954898 0.678414
vt 0.994831 0.678414
vt 0.994831 0.820395
vt 0.954898 0.820395
vt 0.710868 0.922444
vt 0.852850 0.922444
vt 0.852850 0.962376
vt 0.710868 0.962376
vt 0.710868 0.394451
vt 0.852850 0.394451
vt 0.852850 0.536432
vt 0.710868 0.536432
vt 0.675373 0.678414
vt 0.710868 0.678414
vt 0.710868 0.820395
vt 0.675373 0.820395
vt 0.802856 0.363472
vt 0.944838 0.363472
vt 0.944838 0.683890
vt 0.802856 0.683890
vt 0.710868 0.642918
vt 0.852850 0.642918
vt 0.852850 0.678414
vt 0.710868 0.576365
vt 0.852850 0.576365
vt 0.608820 0.678414
vt 0.608820 0.820395
vt 0.852850 0.820395
vt 0.852850 0.855890
vt 0.710868 0.855890
vt 0.888345 0.678414
vt 0.888345 0.820395
vt 0.568887 0.678414
vt 0.568887 0.820395
vt 0.585996 0.355077
vt 1.000090 0.355077
vt 1.000090 0.885886
vt 0.585996 0.885886
vt 0.969033 0.961716
vt 0.617053 0.961716
vt 0.710475 0.389103
vt 0.770397 0.389103
vt 0.770397 0.877022
vt 0.710475 0.877022
vt 0.000533 0.357085
vt 0.396187 0.357085
vt 0.396187 0.880793
vt 0.000533 0.880793
vt 0.785161 0.357036
vt 0.846001 0.357036
vt 0.846001 0.805305
vt 0.785161 0.805305
vt 0.710475 0.947505
vt 0.770397 0.947504
vt 0.770397 0.993245
vt 0.710475 0.993245
vt 0.366513 0.955609
vt 0.030207 0.955609
vt 0.846001 0.921965
vt 0.785161 0.921965
vt 0.846001 0.997672
vt 0.785161 0.997672
vt 0.881038 0.999631
vt 0.705048 0.999631
vt 0.282436 0.993016
vt 0.114283 0.993016
s 0
usemtl Material
f 16/1/1 5/2/1 7/3/1 14/4/1
f 15/5/2 14/6/2 7/7/2 8/8/2
f 8/9/3 7/10/3 5/11/3 6/12/3
f 9/13/4 2/14/4 4/15/4 11/16/4
f 2/17/5 1/18/5 3/19/5 4/20/5
f 9/21/6 12/22/6 1/23/6 2/14/6
f 13/24/6 16/25/6 12/22/6 9/21/6
f 13/26/4 9/13/4 11/16/4 15/27/4
f 4/15/2 3/28/2 10/29/2 11/30/2
f 1/23/1 12/31/1 10/32/1 3/28/1
f 6/33/4 13/26/4 15/27/4 8/34/4
f 6/12/6 5/11/6 16/25/6 13/24/6
f 11/30/2 10/29/2 14/6/2 15/5/2
f 16/35/3 14/36/3 20/37/3 17/38/3
f 17/38/3 20/37/3 24/39/3 21/40/3
f 14/41/2 10/42/2 19/43/2 20/44/2
f 10/45/5 12/46/5 18/47/5 19/48/5
f 12/49/6 16/50/6 17/51/6 18/52/6
f 24/53/7 23/54/7 27/55/7 28/56/7
f 19/48/5 18/47/5 22/57/5 23/58/5
f 20/44/8 19/43/8 23/54/8 24/53/8
f 18/52/9 17/51/9 21/59/9 22/60/9
f 26/31/1 25/1/1 28/4/1 27/32/1
f 22/60/10 21/59/10 25/61/10 26/62/10
f 21/40/3 24/39/3 28/63/3 25/64/3
f 23/58/5 22/57/5 26/65/5 27/66/5
