# Blender 4.3.2
# www.blender.org
mtllib spire.mtl
o Cone
v -0.000000 0.000000 -3.000000
v 0.585271 0.000000 -2.942356
v 1.148050 0.000000 -2.771638
v 1.666711 0.000000 -2.494409
v 2.121320 0.000000 -2.121320
v 2.494409 0.000000 -1.666711
v 2.771638 0.000000 -1.148050
v 2.942356 0.000000 -0.585271
v 3.000000 0.000000 0.000000
v 2.942356 0.000000 0.585271
v 2.771638 0.000000 1.148050
v 2.494409 0.000000 1.666711
v 2.121320 0.000000 2.121320
v 1.666711 0.000000 2.494409
v 1.148050 0.000000 2.771638
v 0.585271 0.000000 2.942356
v -0.000000 0.000000 3.000000
v -0.585271 0.000000 2.942356
v -1.148050 0.000000 2.771638
v -1.666711 0.000000 2.494409
v -2.121320 0.000000 2.121320
v -2.494409 0.000000 1.666711
v -2.771638 0.000000 1.148050
v -2.942356 0.000000 0.585271
v -3.000000 0.000000 0.000000
v -2.942356 0.000000 -0.585271
v -2.771638 0.000000 -1.148050
v -2.494409 0.000000 -1.666711
v -2.121320 0.000000 -2.121320
v -1.666711 0.000000 -2.494409
v -1.148050 0.000000 -2.771638
v -0.585271 0.000000 -2.942356
v 0.000000 122.000000 0.000000
v 28.023167 103.911186 -0.000001
v 25.678497 108.779938 -0.000001
v 20.410078 109.982422 -0.000001
v 16.185131 106.613144 -0.000001
v 16.185131 101.209229 -0.000001
v 20.410078 97.839951 -0.000001
v 25.678497 99.042435 -0.000001
v 25.248001 103.911186 -12.158795
v 23.135529 108.779938 -11.141482
v 18.388845 109.982422 -8.855600
v 14.582301 106.613144 -7.022465
v 14.582301 101.209229 -7.022465
v 18.388845 97.839951 -8.855600
v 23.135529 99.042435 -11.141482
v 17.472157 103.911186 -21.909397
v 16.010281 108.779938 -20.076262
v 12.725473 109.982422 -15.957243
v 10.091263 106.613144 -12.654046
v 10.091263 101.209229 -12.654046
v 12.725473 97.839951 -15.957243
v 16.010281 99.042435 -20.076262
v 6.235746 103.911186 -27.320568
v 5.714009 108.779938 -25.034685
v 4.541674 109.982422 -19.898354
v 3.601534 106.613144 -15.779336
v 3.601534 101.209229 -15.779336
v 4.541674 97.839951 -19.898354
v 5.714009 99.042435 -25.034685
v -6.235740 103.911186 -27.320568
v -5.714002 108.779938 -25.034685
v -4.541668 109.982422 -19.898354
v -3.601529 106.613144 -15.779336
v -3.601529 101.209229 -15.779336
v -4.541668 97.839951 -19.898354
v -5.714002 99.042435 -25.034685
v -17.472162 103.911186 -21.909391
v -16.010284 108.779938 -20.076258
v -12.725476 109.982422 -15.957240
v -10.091265 106.613144 -12.654043
v -10.091265 101.209229 -12.654043
v -12.725476 97.839951 -15.957240
v -16.010284 99.042435 -20.076258
v -25.248001 103.911186 -12.158799
v -23.135525 108.779938 -11.141486
v -18.388842 109.982422 -8.855602
v -14.582296 106.613144 -7.022467
v -14.582296 101.209229 -7.022467
v -18.388842 97.839951 -8.855602
v -23.135525 99.042435 -11.141486
v -28.023167 103.911186 -0.000003
v -25.678497 108.779938 -0.000003
v -20.410074 109.982422 -0.000003
v -16.185127 106.613144 -0.000002
v -16.185127 101.209229 -0.000002
v -20.410074 97.839951 -0.000003
v -25.678497 99.042435 -0.000003
v -25.248001 103.911186 12.158786
v -23.135530 108.779938 11.141473
v -18.388845 109.982422 8.855593
v -14.582298 106.613144 7.022458
v -14.582298 101.209229 7.022458
v -18.388845 97.839951 8.855593
v -23.135530 99.042435 11.141473
v -17.472162 103.911186 21.909389
v -16.010284 108.779938 20.076254
v -12.725476 109.982422 15.957237
v -10.091265 106.613144 12.654040
v -10.091265 101.209229 12.654040
v -12.725476 97.839951 15.957237
v -16.010284 99.042435 20.076254
v -6.235740 103.911186 27.320568
v -5.714002 108.779938 25.034685
v -4.541668 109.982422 19.898350
v -3.601529 106.613144 15.779333
v -3.601529 101.209229 15.779333
v -4.541668 97.839951 19.898350
v -5.714002 99.042435 25.034685
v 6.235746 103.911186 27.320568
v 5.714009 108.779938 25.034685
v 4.541674 109.982422 19.898350
v 3.601534 106.613144 15.779333
v 3.601534 101.209229 15.779333
v 4.541674 97.839951 19.898350
v 5.714009 99.042435 25.034685
v 17.472147 103.911186 21.909403
v 16.010271 108.779938 20.076267
v 12.725466 109.982422 15.957245
v 10.091257 106.613144 12.654048
v 10.091257 101.209229 12.654048
v 12.725466 97.839951 15.957245
v 16.010271 99.042435 20.076267
v 25.247993 103.911186 12.158806
v 23.135523 108.779938 11.141492
v 18.388842 109.982422 8.855607
v 14.582296 106.613144 7.022470
v 14.582296 101.209229 7.022470
v 18.388842 97.839951 8.855607
v 23.135523 99.042435 11.141492
vn 0.0980 0.0245 -0.9949
vn 0.2902 0.0245 -0.9567
vn 0.4713 0.0245 -0.8817
vn 0.6342 0.0245 -0.7728
vn 0.7728 0.0245 -0.6342
vn 0.8817 0.0245 -0.4713
vn 0.9567 0.0245 -0.2902
vn 0.9949 0.0245 -0.0980
vn 0.9949 0.0245 0.0980
vn 0.9567 0.0245 0.2902
vn 0.8817 0.0245 0.4713
vn 0.7728 0.0245 0.6342
vn 0.6342 0.0245 0.7728
vn 0.4713 0.0245 0.8817
vn 0.2902 0.0245 0.9567
vn 0.0980 0.0245 0.9949
vn -0.0980 0.0245 0.9949
vn -0.2902 0.0245 0.9567
vn -0.4713 0.0245 0.8817
vn -0.6342 0.0245 0.7728
vn -0.7728 0.0245 0.6342
vn -0.8817 0.0245 0.4713
vn -0.9567 0.0245 0.2902
vn -0.9949 0.0245 0.0980
vn -0.9949 0.0245 -0.0980
vn -0.9567 0.0245 -0.2902
vn -0.8817 0.0245 -0.4713
vn -0.7728 0.0245 -0.6342
vn -0.6342 0.0245 -0.7728
vn -0.4713 0.0245 -0.8817
vn -0.2902 0.0245 -0.9567
vn -0.0980 0.0245 -0.9949
vn 0.8825 0.4250 -0.2014
vn 0.2222 0.9737 -0.0507
vn -0.6173 0.7740 0.1409
vn -0.9749 -0.0000 0.2225
vn -0.6173 -0.7740 0.1409
vn 0.2222 -0.9737 -0.0507
vn 0.8825 -0.4250 -0.2014
vn 0.7077 0.4250 -0.5644
vn 0.1782 0.9737 -0.1421
vn -0.4950 0.7740 0.3948
vn -0.7818 -0.0000 0.6235
vn -0.4950 -0.7740 0.3948
vn 0.1782 -0.9737 -0.1421
vn 0.7077 -0.4250 -0.5644
vn 0.3928 0.4250 -0.8156
vn 0.0989 0.9737 -0.2054
vn -0.2747 0.7740 0.5704
vn -0.4339 -0.0000 0.9010
vn -0.2747 -0.7740 0.5704
vn 0.0989 -0.9737 -0.2054
vn 0.3928 -0.4250 -0.8156
vn -0.0000 0.4250 -0.9052
vn -0.0000 0.9737 -0.2279
vn -0.0000 0.7740 0.6331
vn -0.0000 -0.0000 1.0000
vn -0.0000 -0.7740 0.6331
vn -0.0000 -0.9737 -0.2279
vn -0.0000 -0.4250 -0.9052
vn -0.3928 0.4250 -0.8156
vn -0.0989 0.9737 -0.2054
vn 0.2747 0.7740 0.5704
vn 0.4339 -0.0000 0.9010
vn 0.2747 -0.7740 0.5704
vn -0.0989 -0.9737 -0.2054
vn -0.3928 -0.4250 -0.8156
vn -0.7077 0.4250 -0.5644
vn -0.1782 0.9737 -0.1421
vn 0.4950 0.7740 0.3948
vn 0.7818 -0.0000 0.6235
vn 0.4950 -0.7740 0.3948
vn -0.1782 -0.9737 -0.1421
vn -0.7077 -0.4250 -0.5644
vn -0.8825 0.4250 -0.2014
vn -0.2222 0.9737 -0.0507
vn 0.6173 0.7740 0.1409
vn 0.9749 -0.0000 0.2225
vn 0.6173 -0.7740 0.1409
vn -0.2222 -0.9737 -0.0507
vn -0.8825 -0.4250 -0.2014
vn -0.8825 0.4250 0.2014
vn -0.2222 0.9737 0.0507
vn 0.6173 0.7740 -0.1409
vn 0.9749 -0.0000 -0.2225
vn 0.6173 -0.7740 -0.1409
vn -0.2222 -0.9737 0.0507
vn -0.8825 -0.4250 0.2014
vn -0.7077 0.4250 0.5644
vn -0.1782 0.9737 0.1421
vn 0.4950 0.7740 -0.3948
vn 0.7818 -0.0000 -0.6235
vn 0.4950 -0.7740 -0.3948
vn -0.1782 -0.9737 0.1421
vn -0.7077 -0.4250 0.5644
vn -0.3928 0.4250 0.8156
vn -0.0989 0.9737 0.2054
vn 0.2747 0.7740 -0.5704
vn 0.4339 -0.0000 -0.9010
vn 0.2747 -0.7740 -0.5704
vn -0.0989 -0.9737 0.2054
vn -0.3928 -0.4250 0.8156
vn -0.0000 0.4250 0.9052
vn -0.0000 0.9737 0.2279
vn -0.0000 0.7740 -0.6331
vn -0.0000 -0.0000 -1.0000
vn -0.0000 -0.7740 -0.6331
vn -0.0000 -0.9737 0.2279
vn -0.0000 -0.4250 0.9052
vn 0.3928 0.4250 0.8156
vn 0.0989 0.9737 0.2054
vn -0.2747 0.7740 -0.5704
vn -0.4339 -0.0000 -0.9010
vn -0.2747 -0.7740 -0.5704
vn 0.0989 -0.9737 0.2054
vn 0.3928 -0.4250 0.8156
vn 0.7077 0.4250 0.5644
vn 0.1782 0.9737 0.1421
vn -0.4950 0.7740 -0.3948
vn -0.7818 -0.0000 -0.6235
vn -0.4950 -0.7740 -0.3948
vn 0.1782 -0.9737 0.1421
vn 0.7077 -0.4250 0.5644
vn 0.8825 0.4250 0.2014
vn 0.2222 0.9737 0.0507
vn -0.6173 0.7740 -0.1409
vn -0.9749 -0.0000 -0.2225
vn -0.6173 -0.7740 -0.1409
vn 0.2222 -0.9737 0.0507
vn 0.8825 -0.4250 0.2014
vt 0.097468 0.269205
vt 0.115043 0.269205
vt 0.097806 0.270676
vt 0.098806 0.272090
vt 0.100430 0.273394
vt 0.102616 0.274536
vt 0.105279 0.275474
vt 0.108317 0.276171
vt 0.111614 0.276600
vt 0.115043 0.276745
vt 0.118471 0.276600
vt 0.121768 0.276171
vt 0.124807 0.275474
vt 0.127470 0.274536
vt 0.129656 0.273394
vt 0.131280 0.272090
vt 0.132280 0.270676
vt 0.132617 0.269205
vt 0.132280 0.267734
vt 0.131280 0.266319
vt 0.129656 0.265016
vt 0.127470 0.263873
vt 0.124807 0.262936
vt 0.121768 0.262239
vt 0.118471 0.261810
vt 0.115043 0.261665
vt 0.111614 0.261810
vt 0.108317 0.262239
vt 0.105279 0.262936
vt 0.102616 0.263873
vt 0.100430 0.265016
vt 0.098806 0.266319
vt 0.097806 0.267734
vt 0.591747 0.451464
vt 0.591747 0.453547
vt 0.581334 0.453547
vt 0.581334 0.451464
vt 0.570922 0.453547
vt 0.570922 0.451464
vt 0.560509 0.453547
vt 0.560509 0.451464
vt 0.633397 0.451464
vt 0.633397 0.453547
vt 0.622985 0.453547
vt 0.622985 0.451464
vt 0.612572 0.453547
vt 0.612572 0.451464
vt 0.602159 0.453547
vt 0.602159 0.451464
vt 0.591747 0.455631
vt 0.581334 0.455631
vt 0.570922 0.455631
vt 0.560509 0.455631
vt 0.633397 0.455631
vt 0.622985 0.455631
vt 0.612572 0.455631
vt 0.602159 0.455631
vt 0.591747 0.457715
vt 0.581334 0.457715
vt 0.570922 0.457715
vt 0.560509 0.457715
vt 0.633397 0.457715
vt 0.622985 0.457715
vt 0.612572 0.457715
vt 0.602159 0.457715
vt 0.591747 0.459798
vt 0.581334 0.459798
vt 0.570922 0.459798
vt 0.560509 0.459798
vt 0.633397 0.459798
vt 0.622985 0.459798
vt 0.612572 0.459798
vt 0.602159 0.459798
vt 0.591747 0.461882
vt 0.581334 0.461882
vt 0.570922 0.461882
vt 0.560509 0.461882
vt 0.633397 0.461882
vt 0.622985 0.461882
vt 0.612572 0.461882
vt 0.602159 0.461882
vt 0.591747 0.463965
vt 0.581334 0.463965
vt 0.570922 0.463965
vt 0.560509 0.463965
vt 0.633397 0.463965
vt 0.622985 0.463965
vt 0.612572 0.463965
vt 0.602159 0.463965
vt 0.591747 0.466049
vt 0.581334 0.466049
vt 0.570922 0.466049
vt 0.560509 0.466049
vt 0.633397 0.466049
vt 0.622985 0.466049
vt 0.612572 0.466049
vt 0.602159 0.466049
vt 0.591747 0.436879
vt 0.591747 0.438963
vt 0.581334 0.438963
vt 0.581334 0.436879
vt 0.570922 0.438963
vt 0.570922 0.436879
vt 0.560509 0.438963
vt 0.560509 0.436879
vt 0.633397 0.436879
vt 0.633397 0.438963
vt 0.622985 0.438963
vt 0.622985 0.436879
vt 0.612572 0.438963
vt 0.612572 0.436879
vt 0.602159 0.438963
vt 0.602159 0.436879
vt 0.591747 0.441046
vt 0.581334 0.441046
vt 0.570922 0.441046
vt 0.560509 0.441046
vt 0.633397 0.441046
vt 0.622985 0.441046
vt 0.612572 0.441046
vt 0.602159 0.441046
vt 0.591747 0.443130
vt 0.581334 0.443130
vt 0.570922 0.443130
vt 0.560509 0.443130
vt 0.633397 0.443130
vt 0.622985 0.443130
vt 0.612572 0.443130
vt 0.602159 0.443130
vt 0.591747 0.445213
vt 0.581334 0.445213
vt 0.570922 0.445213
vt 0.560509 0.445213
vt 0.633397 0.445213
vt 0.622985 0.445213
vt 0.612572 0.445213
vt 0.602159 0.445213
vt 0.591747 0.447297
vt 0.581334 0.447297
vt 0.570922 0.447297
vt 0.560509 0.447297
vt 0.633397 0.447297
vt 0.622985 0.447297
vt 0.612572 0.447297
vt 0.602159 0.447297
vt 0.591747 0.449380
vt 0.581334 0.449380
vt 0.570922 0.449380
vt 0.560509 0.449380
vt 0.633397 0.449380
vt 0.622985 0.449380
vt 0.612572 0.449380
vt 0.602159 0.449380
s 0
usemtl Material.001
f 1/1/1 33/2/1 2/3/1
f 2/3/2 33/2/2 3/4/2
f 3/4/3 33/2/3 4/5/3
f 4/5/4 33/2/4 5/6/4
f 5/6/5 33/2/5 6/7/5
f 6/7/6 33/2/6 7/8/6
f 7/8/7 33/2/7 8/9/7
f 8/9/8 33/2/8 9/10/8
f 9/10/9 33/2/9 10/11/9
f 10/11/10 33/2/10 11/12/10
f 11/12/11 33/2/11 12/13/11
f 12/13/12 33/2/12 13/14/12
f 13/14/13 33/2/13 14/15/13
f 14/15/14 33/2/14 15/16/14
f 15/16/15 33/2/15 16/17/15
f 16/17/16 33/2/16 17/18/16
f 17/18/17 33/2/17 18/19/17
f 18/19/18 33/2/18 19/20/18
f 19/20/19 33/2/19 20/21/19
f 20/21/20 33/2/20 21/22/20
f 21/22/21 33/2/21 22/23/21
f 22/23/22 33/2/22 23/24/22
f 23/24/23 33/2/23 24/25/23
f 24/25/24 33/2/24 25/26/24
f 25/26/25 33/2/25 26/27/25
f 26/27/26 33/2/26 27/28/26
f 27/28/27 33/2/27 28/29/27
f 28/29/28 33/2/28 29/30/28
f 29/30/29 33/2/29 30/31/29
f 30/31/30 33/2/30 31/32/30
f 31/32/31 33/2/31 32/33/31
f 32/33/32 33/2/32 1/1/32
f 34/34/33 41/35/33 42/36/33 35/37/33
f 35/37/34 42/36/34 43/38/34 36/39/34
f 36/39/35 43/38/35 44/40/35 37/41/35
f 37/42/36 44/43/36 45/44/36 38/45/36
f 38/45/37 45/44/37 46/46/37 39/47/37
f 39/47/38 46/46/38 47/48/38 40/49/38
f 40/49/39 47/48/39 41/35/39 34/34/39
f 41/35/40 48/50/40 49/51/40 42/36/40
f 42/36/41 49/51/41 50/52/41 43/38/41
f 43/38/42 50/52/42 51/53/42 44/40/42
f 44/43/43 51/54/43 52/55/43 45/44/43
f 45/44/44 52/55/44 53/56/44 46/46/44
f 46/46/45 53/56/45 54/57/45 47/48/45
f 47/48/46 54/57/46 48/50/46 41/35/46
f 48/50/47 55/58/47 56/59/47 49/51/47
f 49/51/48 56/59/48 57/60/48 50/52/48
f 50/52/49 57/60/49 58/61/49 51/53/49
f 51/54/50 58/62/50 59/63/50 52/55/50
f 52/55/51 59/63/51 60/64/51 53/56/51
f 53/56/52 60/64/52 61/65/52 54/57/52
f 54/57/53 61/65/53 55/58/53 48/50/53
f 55/58/54 62/66/54 63/67/54 56/59/54
f 56/59/55 63/67/55 64/68/55 57/60/55
f 57/60/56 64/68/56 65/69/56 58/61/56
f 58/62/57 65/70/57 66/71/57 59/63/57
f 59/63/58 66/71/58 67/72/58 60/64/58
f 60/64/59 67/72/59 68/73/59 61/65/59
f 61/65/60 68/73/60 62/66/60 55/58/60
f 62/66/61 69/74/61 70/75/61 63/67/61
f 63/67/62 70/75/62 71/76/62 64/68/62
f 64/68/63 71/76/63 72/77/63 65/69/63
f 65/70/64 72/78/64 73/79/64 66/71/64
f 66/71/65 73/79/65 74/80/65 67/72/65
f 67/72/66 74/80/66 75/81/66 68/73/66
f 68/73/67 75/81/67 69/74/67 62/66/67
f 69/74/68 76/82/68 77/83/68 70/75/68
f 70/75/69 77/83/69 78/84/69 71/76/69
f 71/76/70 78/84/70 79/85/70 72/77/70
f 72/78/71 79/86/71 80/87/71 73/79/71
f 73/79/72 80/87/72 81/88/72 74/80/72
f 74/80/73 81/88/73 82/89/73 75/81/73
f 75/81/74 82/89/74 76/82/74 69/74/74
f 76/82/75 83/90/75 84/91/75 77/83/75
f 77/83/76 84/91/76 85/92/76 78/84/76
f 78/84/77 85/92/77 86/93/77 79/85/77
f 79/86/78 86/94/78 87/95/78 80/87/78
f 80/87/79 87/95/79 88/96/79 81/88/79
f 81/88/80 88/96/80 89/97/80 82/89/80
f 82/89/81 89/97/81 83/90/81 76/82/81
f 83/98/82 90/99/82 91/100/82 84/101/82
f 84/101/83 91/100/83 92/102/83 85/103/83
f 85/103/84 92/102/84 93/104/84 86/105/84
f 86/106/85 93/107/85 94/108/85 87/109/85
f 87/109/86 94/108/86 95/110/86 88/111/86
f 88/111/87 95/110/87 96/112/87 89/113/87
f 89/113/88 96/112/88 90/99/88 83/98/88
f 90/99/89 97/114/89 98/115/89 91/100/89
f 91/100/90 98/115/90 99/116/90 92/102/90
f 92/102/91 99/116/91 100/117/91 93/104/91
f 93/107/92 100/118/92 101/119/92 94/108/92
f 94/108/93 101/119/93 102/120/93 95/110/93
f 95/110/94 102/120/94 103/121/94 96/112/94
f 96/112/95 103/121/95 97/114/95 90/99/95
f 97/114/96 104/122/96 105/123/96 98/115/96
f 98/115/97 105/123/97 106/124/97 99/116/97
f 99/116/98 106/124/98 107/125/98 100/117/98
f 100/118/99 107/126/99 108/127/99 101/119/99
f 101/119/100 108/127/100 109/128/100 102/120/100
f 102/120/101 109/128/101 110/129/101 103/121/101
f 103/121/102 110/129/102 104/122/102 97/114/102
f 104/122/103 111/130/103 112/131/103 105/123/103
f 105/123/104 112/131/104 113/132/104 106/124/104
f 106/124/105 113/132/105 114/133/105 107/125/105
f 107/126/106 114/134/106 115/135/106 108/127/106
f 108/127/107 115/135/107 116/136/107 109/128/107
f 109/128/108 116/136/108 117/137/108 110/129/108
f 110/129/109 117/137/109 111/130/109 104/122/109
f 111/130/110 118/138/110 119/139/110 112/131/110
f 112/131/111 119/139/111 120/140/111 113/132/111
f 113/132/112 120/140/112 121/141/112 114/133/112
f 114/134/113 121/142/113 122/143/113 115/135/113
f 115/135/114 122/143/114 123/144/114 116/136/114
f 116/136/115 123/144/115 124/145/115 117/137/115
f 117/137/116 124/145/116 118/138/116 111/130/116
f 118/138/117 125/146/117 126/147/117 119/139/117
f 119/139/118 126/147/118 127/148/118 120/140/118
f 120/140/119 127/148/119 128/149/119 121/141/119
f 121/142/120 128/150/120 129/151/120 122/143/120
f 122/143/121 129/151/121 130/152/121 123/144/121
f 123/144/122 130/152/122 131/153/122 124/145/122
f 124/145/123 131/153/123 125/146/123 118/138/123
f 125/146/124 34/34/124 35/37/124 126/147/124
f 126/147/125 35/37/125 36/39/125 127/148/125
f 127/148/126 36/39/126 37/41/126 128/149/126
f 128/150/127 37/42/127 38/45/127 129/151/127
f 129/151/128 38/45/128 39/47/128 130/152/128
f 130/152/129 39/47/129 40/49/129 131/153/129
f 131/153/130 40/49/130 34/34/130 125/146/130
